<svg xmlns="http://www.w3.org/2000/svg" viewBox="0 0 72 32" height="32" width="72">
    <g id="Group">
        <g id="g1">
            <path d="M 45.278816 30.578623 C 45.425716 30.471861 45.559566 30.350935 45.67963 30.214912 C 45.741009 29.986555 45.868282 29.793665 46.060223 29.635681 C 46.009914 29.573673 45.959217 29.511189 45.908901 29.449179 C 46.537651 28.717398 47.041992 27.909477 47.421169 27.024492 C 47.552582 26.583189 47.684071 26.141035 47.815475 25.699739 C 47.983932 24.968639 48.082108 24.23192 48.110001 23.489578 C 48.262764 23.322388 48.347813 23.125095 48.363895 22.897141 C 48.328217 21.700003 48.063637 20.548576 47.571472 19.442572 C 47.350636 18.796803 47.019855 18.214705 46.57959 17.695885 C 46.532955 17.7337 46.486317 17.771524 46.439682 17.809349 C 45.650112 17.864483 44.859814 17.938745 44.068439 18.031681 C 44.051609 17.984249 44.049587 17.934107 44.062737 17.881691 C 44.682968 17.845619 45.29184 17.738354 45.889351 17.559906 C 45.92453 17.5051 45.922878 17.45541 45.883648 17.409922 C 48.010132 16.705784 49.347645 15.273195 49.896656 13.111765 C 49.982834 12.694771 50.040852 12.273554 50.070988 11.849443 C 49.995392 11.43223 49.931637 11.020096 49.879738 10.613039 C 49.932121 10.454597 49.941814 10.292126 49.90926 10.125263 C 50.020424 10.185074 50.119404 10.259417 50.206188 10.348286 C 50.454803 11.288477 50.477169 12.236662 50.27235 13.193605 C 50.359634 13.064838 50.417992 12.9147 50.447487 12.742348 C 50.816586 10.742283 50.687702 8.772682 50.060467 6.833086 C 50.123436 6.659101 50.226288 6.626707 50.369308 6.737232 C 50.644455 7.316523 50.8158 7.925114 50.883415 8.56217 C 51.005268 9.854076 51.012348 11.149389 50.905041 12.448582 C 50.801888 12.893255 50.698353 13.337461 50.5952 13.782145 C 49.991123 15.747046 48.721451 17.073603 46.786354 17.76012 C 47.569168 18.825993 48.07922 20.010262 48.315651 21.312836 C 48.543465 22.616219 48.563412 23.927393 48.375111 25.245874 C 48.431705 25.251774 48.462479 25.226818 48.46838 25.170233 C 48.720478 23.301382 48.801418 21.432194 48.711754 19.561438 C 48.810143 19.424438 48.944626 19.367172 49.113865 19.389935 C 49.229679 19.429752 49.30637 19.509037 49.345249 19.627476 C 49.243519 20.656199 49.250175 21.681286 49.366074 22.702824 C 49.228176 24.66382 48.748749 26.534584 47.926968 28.315025 C 47.530727 28.93787 47.033894 29.469135 46.437222 29.909739 C 46.737617 29.841602 47.040558 29.80232 47.346123 29.791067 C 47.931332 29.873838 48.509113 29.855961 49.080769 29.737131 C 49.486774 29.503723 49.701775 29.149244 49.725368 28.673223 C 49.532539 26.829704 49.54047 24.981077 49.748775 23.126869 C 49.914692 22.215378 50.108894 21.311108 50.330612 20.413116 C 50.941605 18.512959 51.469532 16.590488 51.914028 14.645227 C 52.047081 13.643665 52.123009 12.641277 52.1422 11.638514 C 52.144672 9.842247 52.118443 8.046824 52.063526 6.252251 C 52.190609 5.46348 52.5457 4.788975 53.128342 4.229092 C 49.707989 2.520784 46.082169 1.673311 42.250877 1.68668 C 39.638226 2.545431 37.132278 3.650072 34.73304 5.000586 C 33.82935 5.515471 32.946983 6.063313 32.085384 6.64533 C 31.680407 7.114462 31.705454 7.557985 32.160046 7.976292 C 34.223156 9.284042 36.403183 10.350859 38.699745 11.176294 C 38.942108 11.443567 38.883759 11.593706 38.524609 11.62755 C 37.657707 11.273827 36.791183 10.920578 35.924286 10.566853 C 35.879299 10.793503 35.847946 11.024567 35.830513 11.261345 C 36.044838 13.439186 36.115898 15.623432 36.043694 17.814083 C 35.932434 18.958767 35.513206 19.98214 34.784325 20.884029 C 34.117504 21.616535 33.443615 22.343185 32.763962 23.063679 C 32.36451 23.447159 31.930422 23.786057 31.462549 24.080463 C 31.318684 24.231926 31.257336 24.410778 31.278608 24.616169 C 31.470921 24.929445 31.713289 25.19672 32.00618 25.417624 C 32.832314 25.900263 33.648327 26.398071 34.454685 26.910666 C 35.451538 27.659943 36.472549 28.378027 37.517273 29.065281 C 38.108105 29.36846 38.731388 29.532452 39.386932 29.55896 C 38.748543 28.852167 38.656986 28.088411 39.11351 27.268257 C 39.530628 26.694962 39.851486 26.074512 40.076256 25.405188 C 40.185879 24.489117 40.323574 23.578094 40.489166 22.673832 C 40.847721 21.62236 41.24094 20.582191 41.668476 19.552856 C 41.790943 19.066231 41.826897 18.586376 41.775951 18.112835 C 41.009869 18.090174 40.243862 18.066662 39.477772 18.044003 C 39.123196 17.992958 38.775848 17.91363 38.435154 17.807266 C 38.203899 17.601336 38.235867 17.433929 38.530231 17.304981 C 39.639038 17.705265 40.76543 17.822254 41.908859 17.657173 C 41.915142 16.978746 41.95734 16.299786 42.035755 15.621614 C 42.309074 14.089617 42.470963 12.541298 42.520111 10.976965 C 42.659374 10.186056 42.854347 9.409481 43.104561 8.647638 C 43.133411 7.687294 43.245682 6.74588 43.441814 5.82303 C 43.528744 5.669046 43.637562 5.644957 43.769573 5.750484 C 43.826046 5.822966 43.839066 5.902849 43.808704 5.989323 C 43.708309 6.231539 43.626141 6.479076 43.560513 6.731743 C 43.521305 7.381992 43.481632 8.032614 43.442421 8.682861 C 42.9888 10.027893 42.759029 11.412479 42.753101 12.836626 C 42.648731 14.111786 42.488373 15.375139 42.272339 16.627983 C 42.269958 17.011036 42.258209 17.393951 42.237919 17.776838 C 42.699978 17.816463 43.157955 17.792931 43.611385 17.706598 C 43.654423 17.428947 43.669392 17.146238 43.657215 16.857712 C 43.905128 16.253122 43.95578 15.632248 43.808727 14.995449 C 43.896038 13.748819 44.067463 12.514364 44.322918 11.29294 C 44.372238 10.889606 44.406933 10.487307 44.427296 10.087351 C 44.505569 10.081856 44.551323 10.122053 44.564102 10.208321 C 44.421658 11.844461 44.223549 13.473938 43.968857 15.097509 C 44.052555 15.658127 44.023182 16.209942 43.881588 16.753056 C 43.908566 17.218977 43.847641 17.668056 43.698448 18.099819 C 43.650589 18.067513 43.602303 18.055655 43.552837 18.063297 C 43.134651 18.118727 42.712475 18.138748 42.287155 18.12344 C 42.230556 18.117538 42.199783 18.142494 42.193882 18.19908 C 42.153641 18.724159 42.085411 19.243324 41.988731 19.756969 C 41.584 20.77631 41.206635 21.803617 40.856056 22.84013 C 40.687222 23.779484 40.546627 24.718369 40.434334 25.655935 C 40.176792 26.332508 39.840454 26.966288 39.424953 27.556816 C 39.062645 28.136675 39.136505 28.656569 39.64653 29.116507 C 40.025471 29.249054 40.392361 29.415344 40.747192 29.615389 C 41.023026 29.700909 41.298397 29.786808 41.574238 29.87233 C 41.540283 29.677998 41.524616 29.484287 41.528099 29.291302 C 41.565155 29.279799 41.599461 29.290627 41.631477 29.323416 C 41.660843 29.643612 41.75029 29.944462 41.900188 30.226431 C 41.946823 30.18861 41.993458 30.150787 42.040092 30.112967 C 42.549934 30.586967 43.157879 30.828331 43.864414 30.836674 C 44.174751 30.767435 44.483738 30.73562 44.792236 30.741316 C 43.867748 31.107634 42.971901 31.035589 42.103844 30.525101 C 41.464508 30.441381 40.849163 30.27096 40.257511 30.012514 C 40.153561 30.034966 40.057224 30.074438 39.967583 30.131683 C 39.663872 30.043259 39.353882 30.010942 39.038464 30.03483 C 36.892811 30.664829 34.783348 30.558901 32.710537 29.716669 C 31.66477 29.30546 30.664114 28.80279 29.708599 28.208618 C 26.808699 26.085175 23.880894 24.001369 20.925547 21.957684 C 19.305662 21.065857 17.612789 20.377029 15.847193 19.891724 C 14.652203 19.582207 13.439942 19.469929 12.210764 19.55534 C 11.863519 19.595757 11.539152 19.704208 11.237612 19.88073 C 10.057766 20.665184 8.808466 21.317337 7.490099 21.837652 C 6.218133 22.209412 5.247965 21.823706 4.579629 20.680603 C 4.186614 19.809364 4.298409 19.010033 4.915087 18.282635 C 5.378026 17.778788 5.868726 17.30353 6.387229 16.856817 C 6.439128 16.699696 6.377575 16.60791 6.202483 16.581467 C 5.298595 16.515713 4.394663 16.449915 3.490775 16.384161 C 2.353079 16.130688 1.538966 15.47673 1.048468 14.422249 C 0.675728 13.238245 1.081725 12.483803 2.266405 12.158955 C 3.129896 12.077898 3.99453 12.11109 4.860227 12.258604 C 3.566248 11.180172 3.011489 9.813379 3.19592 8.158279 C 3.385226 7.461832 3.829334 7.024353 4.528149 6.845926 C 5.347415 6.71817 6.131379 6.842525 6.879982 7.219131 C 7.731832 7.695063 8.495527 8.286871 9.170973 8.994532 C 9.911849 9.532013 10.731555 9.859301 11.630085 9.976488 C 13.572313 9.876583 15.45148 9.460688 17.267466 8.728762 C 17.790836 8.484669 18.314713 8.240231 18.838083 7.996138 C 20.271132 7.194029 21.694227 6.374876 23.107397 5.538725 C 26.038692 3.97673 29.119474 2.81818 32.349773 2.063124 C 35.209972 1.585718 38.088013 1.41621 40.983891 1.554607 C 41.446808 1.442799 41.91209 1.349165 42.379379 1.273239 C 46.740059 1.173773 50.81583 2.20986 54.606495 4.383179 C 55.372059 4.910295 55.939507 5.609697 56.308826 6.481371 C 57.428314 9.0963 58.113155 11.814039 58.361645 14.634403 C 58.31229 17.289692 58.037785 19.92194 57.538231 22.530304 C 56.935104 25.218779 55.590469 27.468868 53.504307 29.280558 C 53.136852 29.459509 52.753132 29.589815 52.353416 29.672783 C 51.809948 29.701498 51.265617 29.730124 50.722149 29.758839 C 49.939877 29.895411 49.178234 30.100281 48.437973 30.374395 C 47.512703 30.306116 46.589134 30.295204 45.66642 30.341585 C 45.575657 30.483225 45.446205 30.561928 45.278816 30.578623 Z" opacity="0.994" stroke="none" fill-rule="evenodd" fill="#04050d" id="Path"></path>
        </g>
        <g id="g2">
            <path d="M 3.963618 7.960863 C 4.504244 7.414957 5.139366 7.260664 5.868997 7.497889 C 6.454793 7.690981 6.994401 7.974855 7.487856 8.349577 C 8.394288 9.265032 9.44627 9.957998 10.643716 10.428543 C 10.946085 10.502836 11.254317 10.549183 11.568437 10.567623 C 12.010544 10.51413 12.454277 10.489233 12.899675 10.492979 C 12.715831 10.852112 12.508741 11.20042 12.278394 11.537977 C 12.18969 11.708166 12.128423 11.886726 12.094454 12.073683 C 12.07305 12.142603 12.026414 12.18042 11.954547 12.187147 C 11.090837 12.125835 10.274963 11.898481 9.506841 11.505167 C 9.066047 11.08881 8.565333 10.773386 8.004563 10.558931 C 7.604907 10.491953 7.312046 10.639246 7.125987 11.000887 C 7.078626 11.666327 7.273305 12.25576 7.710046 12.769091 C 7.996537 13.07951 8.292447 13.380665 8.597733 13.6726 C 8.664183 13.786234 8.730544 13.89986 8.796994 14.013493 C 8.092601 13.961283 7.389153 13.951982 6.686651 13.985584 C 6.447763 14.029278 6.213772 14.090254 5.984509 14.168489 C 5.493626 14.441971 5.405486 14.809839 5.720001 15.272024 C 6.057306 15.633627 6.471228 15.82616 6.961868 15.849642 C 7.558227 15.783375 8.151573 15.688702 8.741856 15.565681 C 8.943725 15.572432 9.139364 15.607037 9.328713 15.669537 C 9.48043 15.766579 9.551688 15.90205 9.54248 16.07597 C 9.432724 16.235943 9.303945 16.37904 9.15618 16.505211 C 8.714066 16.767979 8.298744 17.066151 7.910215 17.399727 C 7.525578 17.825302 7.417866 18.312016 7.587167 18.859962 C 7.902599 19.518448 8.383585 19.682421 9.030091 19.351833 C 9.792863 18.735313 10.554572 18.117569 11.315262 17.498571 C 11.600375 17.333447 11.893229 17.186152 12.193846 17.056614 C 12.444799 17.69186 12.661521 18.340187 12.844757 19.002522 C 12.199336 19.072174 11.565454 19.212088 10.943775 19.423267 C 9.761944 20.2047 8.513032 20.857323 7.19627 21.380196 C 6.432223 21.58478 5.783768 21.389174 5.250956 20.79327 C 4.731 20.048237 4.776258 19.341602 5.386654 18.67326 C 5.930601 18.165478 6.467937 17.652395 6.998703 17.133978 C 7.26478 16.506142 7.063613 16.115238 6.395234 15.961311 C 5.465448 15.892904 4.533433 15.824219 3.599051 15.755203 C 2.502874 15.492569 1.804331 14.822189 1.503421 13.744064 C 1.557885 13.188204 1.863508 12.850126 2.420327 12.729881 C 2.605191 12.678215 2.792591 12.655106 2.982563 12.660442 C 3.617209 12.740854 4.252125 12.792822 4.887452 12.816326 C 5.187394 12.788609 5.402063 12.640244 5.531546 12.371269 C 5.522639 12.268799 5.504746 12.167353 5.477902 12.066896 C 5.165066 11.637379 4.823128 11.231838 4.452104 10.850206 C 3.747703 9.969044 3.58486 9.005915 3.963618 7.960863 Z" stroke="none" fill-rule="evenodd" fill="#7c4f90" id="path1"></path>
        </g>
        <g id="g3">
            <path d="M 7.642885 11.161476 C 7.84938 11.056314 8.054227 11.070539 8.257467 11.204195 C 8.791365 11.629618 9.365908 11.988289 9.98101 12.280203 C 10.629444 12.483019 11.288572 12.644224 11.958447 12.763771 C 11.9357 13.595552 11.927293 14.426998 11.933135 15.258091 C 11.955302 15.710754 12.022397 16.158836 12.1345 16.602259 C 11.660851 16.740391 11.212102 16.949718 10.788248 17.230221 C 10.10858 17.790016 9.424565 18.344746 8.736262 18.894379 C 8.30315 19.061401 8.062957 18.908318 8.015698 18.435118 C 8.047182 18.094711 8.196918 17.818672 8.464945 17.606941 C 8.960453 17.333651 9.414625 17.003971 9.827498 16.617876 C 10.150099 16.253349 10.191236 15.85928 9.950795 15.435602 C 9.663827 15.163668 9.322175 15.028473 8.925796 15.029974 C 8.219247 15.135971 7.511804 15.23296 6.803548 15.320942 C 6.477627 15.244503 6.218522 15.068106 6.02624 14.791744 C 6.248459 14.630394 6.494685 14.520836 6.764917 14.463253 C 7.489483 14.439119 8.21479 14.443531 8.940807 14.476658 C 9.297875 14.372295 9.407258 14.141819 9.26906 13.785267 C 8.81433 13.20001 8.347776 12.624964 7.869363 12.060081 C 7.723871 11.77354 7.648332 11.474012 7.642885 11.161476 Z" stroke="none" fill-rule="evenodd" fill="#faaac5" id="path2"></path>
        </g>
        <g id="g4">
            <path d="M 17.215925 9.427658 C 17.539728 10.516747 17.845659 11.608591 18.133749 12.70322 C 18.498228 13.752764 18.866583 14.794508 19.238121 15.827496 C 19.079302 15.766123 18.927975 15.786028 18.783663 15.886835 C 18.497839 16.30649 18.407169 16.766556 18.511656 17.267017 C 18.576281 17.842335 18.8421 18.297007 19.308683 18.630592 C 19.464878 18.650805 19.584854 18.592159 19.668566 18.454693 C 19.115551 17.718861 19.019444 16.933285 19.38063 16.098448 C 19.842903 17.227924 20.345705 18.339991 20.889717 19.435646 C 21.190077 20.207083 21.472002 20.983421 21.735476 21.764671 C 19.626987 20.513823 17.377962 19.632057 14.988525 19.119284 C 14.45943 19.007233 13.924623 18.951614 13.383675 18.951996 C 12.983681 17.850098 12.703963 16.71118 12.544609 15.535252 C 12.502973 14.430838 12.547101 13.325678 12.676907 12.219761 C 12.985997 11.617115 13.318047 11.025694 13.673077 10.445547 C 14.340327 10.265661 15.012877 10.093933 15.690646 9.930252 C 16.199129 9.742136 16.707376 9.574703 17.215925 9.427658 Z" stroke="none" fill-rule="evenodd" fill="#9f44a0" id="path3"></path>
        </g>
        <g id="g5">
            <path d="M 17.215927 9.427658 C 17.361572 9.302202 17.526711 9.219835 17.711309 9.180515 C 18.013502 9.839844 18.255718 10.51959 18.437885 11.219673 C 18.319588 11.724789 18.331156 12.230806 18.471611 12.738443 C 18.530407 12.918036 18.628326 13.070539 18.765448 13.195898 C 18.875469 13.225727 18.970388 13.19976 19.050964 13.118954 C 20.03764 15.516914 20.959063 17.939194 21.815237 20.385788 C 22.119469 21.014929 22.424124 21.644508 22.728354 22.273659 C 22.72543 22.334011 22.699444 22.381361 22.64959 22.414841 C 22.349728 22.201923 22.045057 21.985174 21.735476 21.764671 C 21.472002 20.983421 21.190079 20.207083 20.889717 19.435646 C 20.345705 18.339991 19.842903 17.227924 19.38063 16.098448 C 19.359732 15.996349 19.312084 15.905891 19.238121 15.827496 C 18.866585 14.794508 18.498228 13.752764 18.133749 12.70322 C 17.845659 11.608591 17.539728 10.516747 17.215927 9.427658 Z" stroke="none" fill-rule="evenodd" fill="#fbabc6" id="path4"></path>
        </g>
        <g id="g6">
            <path d="M 17.711309 9.180515 C 18.460308 8.841881 19.20224 8.485004 19.936138 8.1106 C 21.135365 7.410076 22.337612 6.731377 23.542439 6.07493 C 23.721739 6.576109 23.925514 7.080778 24.152916 7.589792 C 23.422316 7.86342 23.089499 8.390991 23.155449 9.171795 C 23.21953 9.564333 23.415733 9.869049 23.743107 10.086714 C 23.847651 10.083101 23.92404 10.034292 23.971886 9.939831 C 23.821629 9.591669 23.759907 9.229692 23.786341 8.853409 C 23.850334 8.706423 23.935146 8.572702 24.041531 8.453184 C 24.248928 8.347605 24.440491 8.21776 24.615679 8.064859 C 24.538425 8.179306 24.454735 8.298208 24.364887 8.422865 C 24.845808 9.931482 25.29229 11.451014 25.704042 12.980154 C 26.152981 14.3083 26.62007 15.630226 27.104837 16.946308 C 26.506245 17.503672 26.441217 18.123058 26.911098 18.804167 C 25.836845 19.628231 25.794065 20.513287 26.783705 21.458584 C 27.05953 21.708006 27.249744 21.656551 27.354752 21.304695 C 26.952852 20.925598 26.773237 20.465965 26.815525 19.925312 C 26.865664 19.808887 26.940023 19.709934 27.038601 19.628437 C 27.272974 19.505615 27.481346 19.349773 27.663784 19.160069 C 27.743515 19.009602 27.752172 18.861111 27.688904 18.714514 C 27.970894 19.363245 28.236282 20.023899 28.485424 20.696947 C 28.734413 21.45747 28.975603 22.215057 29.208899 22.970539 C 29.026981 22.905479 28.859697 22.937551 28.707806 23.067696 C 28.416101 23.408625 28.274744 23.806211 28.284479 24.261375 C 28.300825 24.583622 28.353018 24.902321 28.441004 25.216721 C 28.548979 25.470078 28.732765 25.617107 28.992632 25.658367 C 29.080149 25.639196 29.1425 25.588627 29.179182 25.50708 C 29.053268 24.737183 29.110708 23.981709 29.351408 23.241491 C 29.893208 24.78035 30.511623 26.288776 31.206163 27.76716 C 31.485106 28.158617 31.779814 28.538059 32.090759 28.905107 C 31.216881 28.54003 30.389894 28.076633 29.610125 27.515423 C 27.318064 25.775673 24.997618 24.075178 22.64959 22.414841 C 22.699444 22.381361 22.72543 22.334011 22.728354 22.273659 C 22.424124 21.644508 22.119469 21.014929 21.815237 20.385788 C 20.959063 17.939194 20.03764 15.516914 19.050964 13.118954 C 19.051359 12.63625 19.066519 12.146978 19.0973 11.651222 C 19.13409 11.569815 19.171387 11.488083 19.208185 11.406683 C 19.389917 11.256126 19.562246 11.103527 19.725588 10.94842 C 19.478168 10.545307 19.163624 10.491177 18.781948 10.786028 C 18.63125 10.904301 18.516575 11.048861 18.437885 11.219673 C 18.255718 10.51959 18.013502 9.839844 17.711309 9.180515 Z" stroke="none" fill-rule="evenodd" fill="#7d5091" id="path5"></path>
        </g>
        <g id="g7">
            <path d="M 23.542439 6.07493 C 26.122238 4.624838 28.840954 3.527988 31.698175 2.784834 C 32.10149 3.649807 32.427822 4.544743 32.677647 5.469255 C 32.731071 5.575134 32.714336 5.666012 32.627903 5.741512 C 32.367462 5.962776 32.090179 6.161381 31.79726 6.337858 C 31.381865 6.722672 31.255394 7.186255 31.417467 7.728153 C 31.562887 7.971241 31.739166 8.188511 31.947084 8.380922 C 32.557632 8.687428 33.139984 9.03923 33.693947 9.438013 C 34.264038 11.151838 34.928886 12.829012 35.68811 14.469072 C 35.728828 14.831863 35.754749 15.197365 35.765877 15.565599 C 35.739834 16.359779 35.714264 17.153576 35.688221 17.947762 C 35.511311 19.050598 35.053406 20.027264 34.315357 20.877829 C 33.286629 22.039135 32.165131 23.10327 30.951355 24.069859 C 30.888489 24.25922 30.853985 24.45495 30.847477 24.656593 C 31.093937 25.154785 31.449795 25.561943 31.915512 25.877682 C 32.804401 26.376686 33.67411 26.908258 34.524139 27.472784 C 35.408127 28.133469 36.309376 28.767784 37.228649 29.376659 C 37.570213 29.556534 37.926117 29.693089 38.295879 29.786692 C 37.233627 30.069923 36.147331 30.112911 35.037746 29.916576 C 34.014954 29.698551 33.032345 29.361372 32.090759 28.905107 C 31.779814 28.538059 31.485106 28.158617 31.206163 27.76716 C 30.511623 26.288776 29.893208 24.780348 29.351408 23.241491 C 29.330458 23.139423 29.282679 23.04908 29.208899 22.970539 C 28.975603 22.215057 28.734413 21.45747 28.485424 20.696947 C 28.236282 20.023899 27.970894 19.363243 27.688904 18.714514 C 27.520527 18.47459 27.398426 18.212585 27.322512 17.929371 C 27.428743 17.717211 27.576427 17.533279 27.764252 17.377857 C 27.761189 16.911863 27.540956 16.768116 27.104837 16.946308 C 26.62007 15.630226 26.152981 14.3083 25.704042 12.980154 C 25.29229 11.451014 24.845808 9.931482 24.364887 8.422865 C 24.454735 8.298208 24.538425 8.179306 24.615679 8.064859 C 24.740252 7.86101 24.694195 7.692739 24.476271 7.559473 C 24.364836 7.543167 24.256941 7.553127 24.152916 7.589792 C 23.925514 7.080778 23.721739 6.576109 23.542439 6.07493 Z" stroke="none" fill-rule="evenodd" fill="#a044a1" id="path6"></path>
        </g>
        <g id="g8">
            <path d="M 19.050964 13.118954 C 18.970388 13.19976 18.875469 13.225727 18.765448 13.195898 C 18.628326 13.070539 18.530407 12.918036 18.471611 12.738443 C 18.331156 12.230806 18.319588 11.724789 18.437885 11.219673 C 18.516575 11.048861 18.63125 10.904301 18.781948 10.786028 C 19.163624 10.491177 19.478168 10.545307 19.725588 10.94842 C 19.562246 11.103527 19.389917 11.256126 19.208185 11.406683 C 19.171387 11.488083 19.13409 11.569815 19.0973 11.651222 C 19.066519 12.146978 19.051359 12.63625 19.050964 13.118954 Z" stroke="none" fill-rule="evenodd" fill="#070408" id="path7"></path>
        </g>
        <g id="g9">
            <path d="M 15.546444 13.564617 C 15.699391 13.425196 15.873743 13.322453 16.069551 13.25634 C 16.237635 13.265669 16.335188 13.354076 16.362076 13.521591 C 16.231522 13.735313 16.089123 13.941017 15.934849 14.138647 C 15.852053 14.529696 15.868451 14.9153 15.984886 15.296303 C 15.866171 15.533287 15.714836 15.553192 15.530435 15.355637 C 15.256911 14.748512 15.262218 14.151501 15.546444 13.564617 Z" stroke="none" fill-rule="evenodd" fill="#09030a" id="path8"></path>
        </g>
        <g id="g10">
            <path d="M 24.152916 7.589792 C 24.256941 7.553127 24.364836 7.543167 24.476271 7.559473 C 24.694195 7.692739 24.740252 7.86101 24.615679 8.064859 C 24.440491 8.21776 24.248928 8.347605 24.041531 8.453184 C 23.935146 8.572702 23.850334 8.706423 23.786341 8.853409 C 23.759907 9.229692 23.821629 9.591669 23.971886 9.939831 C 23.92404 10.034292 23.847651 10.083101 23.743107 10.086714 C 23.415733 9.869049 23.21953 9.564333 23.155449 9.171795 C 23.089499 8.390991 23.422316 7.86342 24.152916 7.589792 Z" stroke="none" fill-rule="evenodd" fill="#040207" id="path9"></path>
        </g>
        <g id="g11">
            <path d="M 31.698175 2.784834 C 34.443222 2.240795 37.211292 1.967203 40.001934 1.964441 C 38.767704 2.529388 37.527214 3.097084 36.280838 3.66802 C 35.033146 4.321192 33.815628 5.012518 32.627903 5.741512 C 32.714336 5.666012 32.731071 5.575134 32.677647 5.469255 C 32.427822 4.544743 32.10149 3.649809 31.698175 2.784834 Z" stroke="none" fill-rule="evenodd" fill="#7b4f8f" id="path10"></path>
        </g>
        <g id="g12">
            <path d="M 27.483303 6.357681 C 27.708666 6.149405 27.960756 5.983606 28.239595 5.860298 C 28.644251 5.926374 28.736452 6.135319 28.515808 6.486654 C 27.766298 7.000959 27.494629 7.698259 27.69998 8.578447 C 27.806175 8.735064 27.935057 8.862461 28.08708 8.960264 C 27.83741 9.262474 27.582138 9.249941 27.322491 8.923246 C 26.881411 8.035551 26.935171 7.180237 27.483303 6.357681 Z" stroke="none" fill-rule="evenodd" fill="#050207" id="path11"></path>
        </g>
        <g id="g13">
            <path d="M 30.837507 4.487804 C 31.033945 4.315351 31.242317 4.159512 31.462696 4.019436 C 31.799393 3.979839 31.94075 4.122625 31.887629 4.447878 C 31.344978 4.820707 31.091965 5.335125 31.129042 5.990759 C 30.993034 6.140486 30.858875 6.133333 30.725624 5.970047 C 30.537022 5.457405 30.574472 4.963194 30.837507 4.487804 Z" stroke="none" fill-rule="evenodd" fill="#050207" id="path12"></path>
        </g>
        <g id="g14">
            <path d="M 22.881947 12.408537 C 23.138348 12.103189 23.457642 11.972576 23.840591 12.017611 C 24.033651 12.164085 24.099009 12.356136 24.036745 12.592943 C 23.273144 13.160412 23.010601 13.901346 23.249937 14.815813 C 23.407076 15.04475 23.466152 15.292917 23.428482 15.56003 C 23.181295 15.703287 22.938538 15.849144 22.699913 15.996284 C 22.707001 16.489153 22.925173 16.853365 23.354424 17.088905 C 23.415228 17.287743 23.344395 17.422491 23.141462 17.493536 C 23.083706 17.482395 23.028994 17.462608 22.976933 17.433704 C 22.519609 17.111156 22.222408 16.681938 22.086636 16.145771 C 22.093145 15.944132 22.127649 15.748402 22.190514 15.559034 C 22.326433 15.410156 22.475296 15.276281 22.637964 15.157503 C 22.268156 14.20042 22.349648 13.28397 22.881947 12.408537 Z" stroke="none" fill-rule="evenodd" fill="#030105" id="path13"></path>
        </g>
        <g id="g15">
            <path d="M 19.238121 15.827496 C 19.312084 15.905891 19.359732 15.996349 19.38063 16.098448 C 19.019444 16.933285 19.115551 17.718861 19.668566 18.454693 C 19.584854 18.592159 19.464878 18.650805 19.308683 18.630592 C 18.8421 18.297007 18.576281 17.842335 18.511658 17.267017 C 18.407171 16.766556 18.497839 16.30649 18.783663 15.886835 C 18.927975 15.786028 19.079302 15.766123 19.238121 15.827496 Z" stroke="none" fill-rule="evenodd" fill="#060208" id="path14"></path>
        </g>
        <g id="g16">
            <path d="M 50.206188 10.348286 C 49.287933 8.006157 47.596096 6.556557 45.13113 5.999128 C 44.905285 6.01144 44.711689 6.091133 44.551281 6.237461 C 44.561924 7.089251 44.488216 7.935228 44.329319 8.775307 C 44.375801 9.213818 44.408772 9.650915 44.427296 10.087353 C 44.406933 10.487307 44.372238 10.889606 44.322918 11.29294 C 44.067463 12.514364 43.896038 13.748819 43.808727 14.995449 C 43.95578 15.632248 43.905128 16.253122 43.657215 16.857712 C 43.669392 17.14624 43.654423 17.428947 43.611385 17.7066 C 43.157955 17.792933 42.699978 17.816463 42.237919 17.776838 C 42.258209 17.393951 42.269958 17.011036 42.272343 16.627983 C 42.488373 15.375139 42.648731 14.111786 42.753101 12.836626 C 42.759029 11.412479 42.9888 10.027893 43.442421 8.682861 C 43.481632 8.032614 43.521305 7.381992 43.560513 6.731745 C 43.626141 6.479076 43.708309 6.231539 43.808704 5.989323 C 43.839066 5.902849 43.826046 5.822966 43.769573 5.750484 C 43.637562 5.644957 43.528744 5.669046 43.441814 5.823032 C 43.245686 6.745882 43.133411 7.687294 43.104561 8.647638 C 42.854347 9.409481 42.659374 10.186056 42.520115 10.976965 C 42.470963 12.541298 42.309074 14.089617 42.035755 15.621614 C 41.95734 16.299786 41.915142 16.978746 41.908859 17.657173 C 40.76543 17.822254 39.639038 17.705265 38.530231 17.304981 C 38.235867 17.433931 38.203899 17.601336 38.435158 17.807266 C 38.775848 17.913631 39.123196 17.992958 39.477772 18.044003 C 40.243862 18.066662 41.009869 18.090174 41.775951 18.112835 C 41.8269 18.586376 41.790943 19.066231 41.668476 19.552856 C 41.24094 20.582191 40.847721 21.62236 40.489166 22.673832 C 40.323574 23.578094 40.185879 24.489117 40.076256 25.405188 C 39.851486 26.074512 39.530628 26.694962 39.113514 27.268257 C 38.656986 28.088411 38.748543 28.852167 39.386932 29.55896 C 38.731392 29.532452 38.108109 29.36846 37.517277 29.065281 C 36.472549 28.378027 35.451538 27.659943 34.454685 26.910666 C 33.648327 26.398071 32.832317 25.900263 32.00618 25.417625 C 31.713291 25.19672 31.470921 24.929445 31.27861 24.616169 C 31.257338 24.410778 31.318684 24.231928 31.462549 24.080463 C 31.930422 23.786057 32.36451 23.447159 32.763962 23.063679 C 33.443615 22.343185 34.117508 21.616535 34.784325 20.884029 C 35.513206 19.98214 35.932438 18.958767 36.043697 17.814083 C 36.115898 15.623432 36.044838 13.439186 35.830517 11.261345 C 35.847946 11.024567 35.879299 10.793503 35.924286 10.566853 C 36.791183 10.920578 37.657711 11.273827 38.524609 11.62755 C 38.883759 11.593706 38.942108 11.443569 38.699745 11.176294 C 36.403183 10.350859 34.22316 9.284042 32.160046 7.976292 C 31.705454 7.557985 31.680407 7.114462 32.085384 6.64533 C 32.946983 6.063314 33.82935 5.515471 34.73304 5.000586 C 37.132278 3.650072 39.638226 2.545431 42.250877 1.68668 C 46.082169 1.673311 49.707993 2.520784 53.128345 4.229092 C 52.5457 4.788975 52.190613 5.46348 52.063526 6.252251 C 52.118446 8.046824 52.144672 9.842247 52.142204 11.638514 C 52.123013 12.641277 52.047085 13.643667 51.914032 14.645227 C 51.469536 16.590488 50.941605 18.512959 50.330616 20.413116 C 50.108894 21.311108 49.914692 22.215378 49.748775 23.126869 C 49.54047 24.981077 49.532539 26.829704 49.725372 28.673223 C 49.701775 29.149244 49.486778 29.503723 49.080772 29.737131 C 48.509117 29.855961 47.931332 29.873838 47.346123 29.791067 C 47.040558 29.80232 46.737617 29.841602 46.437222 29.909739 C 47.033894 29.469135 47.530731 28.93787 47.926971 28.315025 C 48.748753 26.534584 49.228176 24.66382 49.366074 22.702824 C 49.250175 21.681286 49.243519 20.656199 49.345249 19.627476 C 49.30637 19.509037 49.229679 19.429752 49.113869 19.389936 C 48.944626 19.367172 48.810143 19.42444 48.711758 19.561438 C 48.801422 21.432194 48.720478 23.301382 48.46838 25.170233 C 48.462482 25.226818 48.431709 25.251774 48.375111 25.245874 C 48.563412 23.927395 48.543465 22.61622 48.315655 21.312838 C 48.079224 20.010262 47.569172 18.825993 46.786358 17.76012 C 48.721455 17.073603 49.991127 15.747047 50.595203 13.782145 C 50.698357 13.337461 50.801888 12.893255 50.905041 12.448582 C 51.012348 11.149391 51.005268 9.854076 50.883415 8.56217 C 50.815804 7.925114 50.644455 7.316523 50.369312 6.737234 C 50.226288 6.626707 50.123436 6.659101 50.060471 6.833086 C 50.687706 8.772682 50.816586 10.742283 50.447491 12.74235 C 50.417992 12.9147 50.359634 13.064838 50.272354 13.193605 C 50.477169 12.236662 50.454803 11.288477 50.206188 10.348286 Z" stroke="none" fill-rule="evenodd" fill="#7c5090" id="path15"></path>
        </g>
        <g id="g17">
            <path d="M 30.230848 9.077019 C 30.380644 8.942389 30.542381 8.824373 30.716124 8.722115 C 30.91287 8.70635 31.046158 8.791517 31.11644 8.977259 C 30.651617 9.610886 30.522047 10.308901 30.727339 11.070854 C 30.594404 11.313951 30.436464 11.32608 30.253977 11.106876 C 29.889944 10.434231 29.882359 9.757769 30.230848 9.077019 Z" stroke="none" fill-rule="evenodd" fill="#030105" id="path16"></path>
        </g>
        <g id="g18">
            <path d="M 26.922283 12.146782 C 27.132444 11.895939 27.39262 11.787758 27.703192 11.822695 C 27.813526 11.898643 27.873796 12.004375 27.883532 12.140274 C 27.757179 12.467709 27.62359 12.794823 27.482225 13.122831 C 27.414932 13.62887 27.43408 14.128979 27.53927 14.622684 C 27.372211 14.812288 27.193945 14.814617 27.004757 14.630995 C 26.630068 13.810837 26.602417 12.982887 26.922283 12.146782 Z" stroke="none" fill-rule="evenodd" fill="#050207" id="path17"></path>
        </g>
        <g id="g19">
            <path d="M 34.844227 6.185961 C 35.189507 5.916767 35.581814 5.765596 36.02285 5.732601 C 36.592751 5.397192 37.200474 5.161755 37.846863 5.026392 C 38.337112 4.934927 38.615131 5.134645 38.680912 5.625528 C 38.64682 6.005701 38.592831 6.38422 38.519794 6.761177 C 38.816509 7.465218 38.720711 8.109573 38.232773 8.694683 C 38.134995 8.727596 38.035141 8.731276 37.932743 8.706085 C 37.046692 8.294456 36.183575 7.834845 35.344326 7.326513 C 35.109768 7.160355 34.917713 6.955082 34.768074 6.711561 C 34.731258 6.524185 34.756798 6.348858 34.844227 6.185961 Z" stroke="none" fill-rule="evenodd" fill="#06070e" id="path18"></path>
        </g>
        <g id="g20">
            <path d="M 35.146866 6.558975 C 35.534496 6.436327 35.924271 6.313482 36.316677 6.190058 C 36.64875 5.994188 36.98225 5.801023 37.31625 5.611324 C 37.569283 5.514349 37.827084 5.498541 38.089657 5.5639 C 38.167755 5.588686 38.197655 5.641747 38.179829 5.722685 C 38.023338 6.338936 38.022839 6.957787 38.178333 7.579247 C 38.135345 7.782627 38.058613 7.973961 37.94775 8.152769 C 37.601055 8.087608 37.271996 7.967943 36.960579 7.793768 C 36.518036 7.534225 36.075497 7.274675 35.63295 7.015135 C 35.452549 6.882359 35.290394 6.730154 35.146866 6.558975 Z" stroke="none" fill-rule="evenodd" fill="#faabc5" id="path19"></path>
        </g>
        <g id="g21">
            <path d="M 33.693947 9.438013 C 34.247524 9.738157 34.815273 10.02527 35.39727 10.298502 C 35.55027 11.688841 35.646904 13.079283 35.68811 14.469072 C 34.928886 12.829012 34.264038 11.151838 33.693947 9.438013 Z" stroke="none" fill-rule="evenodd" fill="#7c4f90" id="path20"></path>
        </g>
        <g id="g22">
            <path d="M 22.684212 19.217218 C 22.909523 19.008978 23.161621 18.843185 23.440496 18.719833 C 23.908676 18.651684 24.033621 18.820929 23.814386 19.228321 C 22.815519 19.661922 22.741014 20.237204 23.591618 20.955105 C 23.849272 21.083204 23.848537 21.225266 23.589821 21.38175 C 23.447226 21.395351 23.32357 21.354164 23.218533 21.257681 C 22.43067 20.72081 22.252844 20.040939 22.684212 19.217218 Z" stroke="none" fill-rule="evenodd" fill="#050308" id="path21"></path>
        </g>
        <g id="g23">
            <path d="M 41.046455 5.25321 C 41.147282 5.19927 41.255062 5.189163 41.369801 5.222891 C 41.771011 5.375271 42.165771 5.544464 42.554924 5.730579 C 42.859413 5.946705 42.852779 6.145346 42.535515 6.326117 C 42.022766 6.142054 41.552349 5.87961 41.123417 5.538673 C 41.067822 5.445379 41.042328 5.350098 41.046455 5.25321 Z" stroke="none" fill-rule="evenodd" fill="#04060e" id="path22"></path>
        </g>
        <g id="g24">
            <path d="M 27.104837 16.946308 C 27.540956 16.768116 27.761189 16.911863 27.764252 17.377857 C 27.576427 17.533279 27.428743 17.717211 27.322512 17.929371 C 27.398426 18.212585 27.520527 18.47459 27.688904 18.714514 C 27.752172 18.861111 27.743515 19.009602 27.663784 19.160069 C 27.481346 19.349773 27.272974 19.505613 27.038601 19.628437 C 26.940023 19.709934 26.865664 19.808887 26.815525 19.925312 C 26.773237 20.465965 26.952852 20.925598 27.354752 21.304695 C 27.249744 21.656551 27.05953 21.708006 26.783705 21.458584 C 25.794065 20.513287 25.836845 19.628231 26.911098 18.804167 C 26.441217 18.123058 26.506245 17.503672 27.104837 16.946308 Z" stroke="none" fill-rule="evenodd" fill="#030105" id="path23"></path>
        </g>
        <g id="g25">
            <path d="M 30.884972 14.267172 C 31.224115 13.798868 31.544561 13.796413 31.846218 14.26067 C 31.638638 14.630005 31.442942 15.008266 31.258371 15.394516 C 31.245161 15.521187 31.231953 15.647858 31.218735 15.77453 C 31.292963 15.988003 31.327158 16.204556 31.321625 16.425503 C 30.888842 16.805084 30.740549 17.273224 30.876278 17.830301 C 30.979143 18.104809 31.093401 18.372391 31.219343 18.634357 C 31.125383 18.843529 30.978895 18.885025 30.779408 18.759235 C 30.064964 17.971104 29.982601 17.123365 30.532404 16.215187 C 30.384581 15.520256 30.502203 14.871365 30.884972 14.267172 Z" stroke="none" fill-rule="evenodd" fill="#050107" id="path24"></path>
        </g>
        <g id="g26">
            <path d="M 40.77705 7.017817 C 41.283825 6.763756 41.804829 6.754038 42.338364 6.988493 C 42.638901 7.176895 42.635647 7.347298 42.327759 7.49959 C 41.884487 7.410698 41.435322 7.349789 40.980709 7.316486 C 40.869553 7.244291 40.801819 7.144611 40.77705 7.017817 Z" stroke="none" fill-rule="evenodd" fill="#060710" id="path25"></path>
        </g>
        <g id="g27">
            <path d="M 50.206188 10.348286 C 50.119404 10.259417 50.020424 10.185074 49.90926 10.125263 C 49.941814 10.292126 49.932121 10.454597 49.879742 10.613039 C 49.125671 9.042236 47.993118 7.821669 46.483387 6.951065 C 46.216534 6.820379 45.943684 6.706152 45.665146 6.609669 C 45.52713 6.57394 45.390633 6.581057 45.257332 6.631186 C 44.950493 8.005606 44.826622 9.393982 44.886959 10.79686 C 44.743454 11.751232 44.629692 12.707003 44.5453 13.663689 C 44.276878 14.465042 44.205692 15.282686 44.332142 16.117092 C 44.201355 16.552483 44.126072 17.000065 44.10677 17.459457 C 44.114914 17.540976 44.160679 17.581173 44.243576 17.580425 C 44.796715 17.553143 45.343098 17.496563 45.883648 17.409922 C 45.922882 17.455412 45.92453 17.5051 45.889351 17.559906 C 45.291843 17.738354 44.682972 17.845619 44.062737 17.881691 C 44.049587 17.934107 44.051609 17.984249 44.068439 18.031681 C 43.657722 19.841309 43.151306 21.631149 42.547977 23.400642 C 42.453957 23.892796 42.332039 24.378202 42.18269 24.856472 C 42.063293 25.866287 41.971981 26.881157 41.907887 27.901007 C 41.999126 28.397533 42.018272 28.897642 41.964935 29.40086 C 42.104015 29.954445 42.453289 30.289635 43.012756 30.406429 C 44.136971 30.589354 45.102661 30.27002 45.908901 29.449179 C 45.959217 29.511187 46.009914 29.573673 46.060223 29.635681 C 45.868286 29.793665 45.741009 29.986555 45.67963 30.214912 C 45.559566 30.350937 45.425716 30.471861 45.278816 30.578623 C 45.134937 30.70149 44.972591 30.755844 44.792236 30.741316 C 44.483738 30.73562 44.174751 30.767435 43.864414 30.836674 C 43.157883 30.828331 42.549934 30.586967 42.040096 30.112967 C 41.993458 30.150787 41.946823 30.18861 41.900188 30.226431 C 41.75029 29.944462 41.660847 29.643612 41.631481 29.323416 C 41.599461 29.290627 41.565155 29.279799 41.528099 29.291302 C 41.302326 26.613304 41.707047 24.030056 42.741718 21.542786 C 42.838814 20.591251 43.07674 19.677027 43.454666 18.800018 C 43.529984 18.552628 43.562458 18.306747 43.552841 18.063299 C 43.602306 18.055655 43.650589 18.067513 43.698448 18.099819 C 43.847645 17.668056 43.908566 17.218977 43.881592 16.753056 C 44.023182 16.209942 44.052555 15.658127 43.968857 15.097509 C 44.223549 13.473938 44.421658 11.844461 44.564102 10.208321 C 44.551327 10.122053 44.505569 10.081856 44.427296 10.087353 C 44.408772 9.650915 44.375801 9.213818 44.329319 8.775307 C 44.48822 7.935228 44.561924 7.089251 44.551281 6.237461 C 44.711693 6.091133 44.905285 6.01144 45.131134 5.999128 C 47.596096 6.556557 49.287933 8.006157 50.206188 10.348286 Z" stroke="none" fill-rule="evenodd" fill="#0f1118" id="path26"></path>
        </g>
        <g id="g28">
            <path d="M 49.879742 10.613039 C 49.931641 11.020096 49.995392 11.43223 50.070988 11.849445 C 50.040855 12.273556 49.982834 12.694771 49.89666 13.111765 C 49.347645 15.273195 48.010132 16.705786 45.883648 17.409922 C 45.343098 17.496563 44.796715 17.553143 44.243576 17.580425 C 44.160679 17.581173 44.114914 17.540976 44.10677 17.459457 C 44.126072 17.000065 44.201355 16.552483 44.332142 16.117092 C 44.205692 15.282686 44.276878 14.465042 44.5453 13.663689 C 44.629692 12.707003 44.743454 11.751232 44.886959 10.79686 C 44.826622 9.393982 44.950493 8.005608 45.257332 6.631186 C 45.390633 6.581057 45.52713 6.57394 45.665146 6.609669 C 45.943684 6.706152 46.216534 6.820379 46.483387 6.951065 C 47.993118 7.821669 49.125671 9.042236 49.879742 10.613039 Z" stroke="none" fill-rule="evenodd" fill="#7d5091" id="path27"></path>
        </g>
        <g id="g29">
            <path d="M 29.208899 22.970539 C 29.282679 23.04908 29.330458 23.139423 29.351408 23.241491 C 29.110708 23.981709 29.053268 24.737183 29.179182 25.50708 C 29.1425 25.588627 29.080149 25.639196 28.992632 25.658367 C 28.732765 25.617107 28.548979 25.470078 28.441004 25.216721 C 28.353018 24.902321 28.300825 24.583622 28.284479 24.261375 C 28.274744 23.806211 28.416101 23.408625 28.707806 23.067696 C 28.859697 22.937551 29.026981 22.905479 29.208899 22.970539 Z" stroke="none" fill-rule="evenodd" fill="#040207" id="path28"></path>
        </g>
        <g id="g30">
            <path d="M 52.180584 29.078547 C 52.141388 27.612141 52.341263 26.174492 52.779736 24.765991 C 54.151482 21.44952 54.967617 17.99147 55.227612 14.393072 C 55.304176 12.209705 55.074127 10.05158 54.536652 7.918592 C 54.490383 7.748161 54.397312 7.617239 54.257332 7.526669 C 54.338184 8.761381 54.473232 9.99235 54.662163 11.218266 C 54.883121 14.556498 54.541153 17.835615 53.636189 21.056477 C 53.096844 22.678978 52.557892 24.301954 52.018547 25.924454 C 51.829548 26.987617 51.739414 28.052555 51.749451 29.118973 C 51.176506 29.172359 50.601402 29.225943 50.024902 29.280666 C 50.073055 29.023621 50.106945 28.764221 50.127483 28.501726 C 49.819229 26.135685 49.935745 23.786175 50.478336 21.452911 C 50.862972 19.946594 51.303604 18.45594 51.79855 16.980762 C 52.281147 15.357887 52.540333 13.691244 52.575939 11.982513 C 52.582447 11.101357 52.589043 10.219358 52.595547 9.338202 C 52.540028 8.507359 52.484123 7.676037 52.428612 6.845186 C 52.427944 6.303038 52.538399 5.788271 52.760464 5.300503 C 52.910675 5.088232 53.060802 4.876818 53.211014 4.664539 C 53.943344 4.478806 54.540302 4.690424 55.001907 5.299397 C 55.607422 6.137209 56.074821 7.046852 56.403702 8.027849 C 57.078621 10.083387 57.542988 12.180582 57.79681 14.319426 C 57.796455 17.327694 57.458469 20.294353 56.783245 23.219902 C 56.136547 25.51158 54.892689 27.409365 53.051662 28.913252 C 52.850559 28.978937 52.651001 29.050327 52.452892 29.128277 C 52.357121 29.125546 52.266232 29.108818 52.180584 29.078547 Z" stroke="none" fill-rule="evenodd" fill="#823b2a" id="path29"></path>
        </g>
        <g id="g31">
            <path d="M 33.737423 24.168203 C 33.872211 24.046524 34.018173 23.940519 34.17606 23.851124 C 34.790497 23.706879 35.357864 23.453156 35.877781 23.089485 C 35.978325 23.06283 36.079681 23.0448 36.182217 23.035852 C 36.946648 24.003775 37.147591 25.077707 36.785496 26.257284 C 36.639858 26.298868 36.499172 26.284636 36.363174 26.213261 C 35.820328 25.933014 35.314606 25.595604 34.84639 25.20149 C 34.513668 25.039186 34.172123 24.904125 33.821388 24.795864 C 33.739834 24.75919 33.689137 24.696712 33.670071 24.609352 C 33.678875 24.45533 33.70105 24.308256 33.737423 24.168203 Z" stroke="none" fill-rule="evenodd" fill="#06070e" id="path30"></path>
        </g>
        <g id="g32">
            <path d="M 52.180584 29.078547 C 52.062073 29.306072 51.918488 29.319704 51.749451 29.118973 C 51.739414 28.052555 51.829548 26.987617 52.018547 25.924454 C 52.557892 24.301954 53.096844 22.678976 53.636189 21.056477 C 54.541153 17.835615 54.883121 14.556498 54.662163 11.218266 C 54.473232 9.992348 54.338184 8.761381 54.257332 7.526669 C 54.397312 7.617239 54.490383 7.748159 54.536652 7.918591 C 55.074127 10.051579 55.304176 12.209705 55.227612 14.393072 C 54.967617 17.99147 54.151482 21.44952 52.779736 24.765991 C 52.341263 26.174492 52.141388 27.612141 52.180584 29.078547 Z" stroke="none" fill-rule="evenodd" fill="#131318" id="path31"></path>
        </g>
        <g id="g33">
            <path d="M 34.095501 24.418943 C 34.168724 24.347187 34.253044 24.291958 34.347599 24.253151 C 34.74789 24.201403 35.141201 24.114351 35.527515 23.991997 C 35.739002 23.867641 35.919109 23.708424 36.06823 23.514826 C 36.471294 24.218428 36.571804 24.961773 36.369373 25.744392 C 35.954742 25.50782 35.571323 25.225838 35.219475 24.898914 C 34.85696 24.698933 34.482609 24.538689 34.095501 24.418943 Z" stroke="none" fill-rule="evenodd" fill="#f6a8c2" id="path32"></path>
        </g>
        <g id="g34">
            <path d="M 43.552841 18.063299 C 43.562458 18.306747 43.529984 18.552628 43.454666 18.800018 C 43.07674 19.677027 42.838814 20.591251 42.741718 21.542786 C 41.707047 24.030056 41.302326 26.613304 41.528099 29.291302 C 41.52462 29.484287 41.540283 29.677998 41.574238 29.87233 C 41.298397 29.786808 41.023026 29.700909 40.747192 29.615389 C 40.392361 29.415344 40.025471 29.249054 39.64653 29.116507 C 39.136509 28.656569 39.062649 28.136675 39.424957 27.556816 C 39.840454 26.966288 40.176792 26.332508 40.434334 25.655935 C 40.546627 24.718369 40.687225 23.779484 40.856056 22.84013 C 41.206635 21.803617 41.584 20.77631 41.988731 19.756969 C 42.085411 19.243324 42.153641 18.724159 42.193886 18.19908 C 42.199787 18.142494 42.230556 18.117538 42.287155 18.12344 C 42.712475 18.138748 43.134651 18.118727 43.552841 18.063299 Z" stroke="none" fill-rule="evenodd" fill="#7b4f8f" id="path33"></path>
        </g>
        <g id="g35">
            <path d="M 75.76442 -8.755871 C 75.891937 -8.787392 75.957642 -8.737862 75.962364 -8.607185 C 75.873978 -8.627491 75.808281 -8.677029 75.76442 -8.755871 Z" opacity="0.006" stroke="none" fill-rule="evenodd" fill="#000000" id="path34"></path>
        </g>
        <g id="g36">
            <path d="M 44.068439 18.031681 C 44.859814 17.938745 45.650112 17.864483 46.439682 17.809349 C 47.535641 19.552803 48.092503 21.446653 48.110001 23.489578 C 48.082108 24.23192 47.983932 24.968639 47.815475 25.699739 C 47.684074 26.141035 47.552582 26.583189 47.421169 27.024492 C 47.041996 27.909477 46.537655 28.717398 45.908901 29.449179 C 45.102661 30.27002 44.136971 30.589354 43.012756 30.406429 C 42.453289 30.289635 42.104015 29.954445 41.964935 29.40086 C 42.018272 28.897642 41.999126 28.397533 41.907887 27.901007 C 41.971981 26.881157 42.063293 25.866285 42.18269 24.856472 C 42.332039 24.378202 42.453957 23.892794 42.547977 23.400642 C 43.151306 21.631149 43.657722 19.841309 44.068439 18.031681 Z" stroke="none" fill-rule="evenodd" fill="#7d5091" id="path35"></path>
        </g>
        <g id="g37">
            <path d="M 49.701614 14.777411 C 49.752998 14.554842 49.851555 14.358957 49.997746 14.189377 C 49.946526 14.410252 49.847969 14.606144 49.701614 14.777411 Z" stroke="none" fill-rule="evenodd" fill="#3f2b4f" id="path36"></path>
        </g>
        <g id="g38">
            <path d="M 51.304852 13.322577 C 51.44989 13.176353 51.51104 13.204071 51.4883 13.405722 C 51.313778 14.723082 50.780643 15.876722 49.889263 16.8671 C 49.812881 16.915901 49.736874 16.965181 49.660492 17.013985 C 49.527084 17.048737 49.460526 16.999113 49.462536 16.865295 C 49.818562 16.480703 50.118988 16.056168 50.363628 15.593376 C 50.730167 14.850054 51.043915 14.093121 51.304852 13.322577 Z" stroke="none" fill-rule="evenodd" fill="#060710" id="path37"></path>
        </g>
        <g id="g39">
            <path d="M 49.701614 14.777411 C 49.549099 15.175539 49.307724 15.51276 48.976952 15.790287 C 49.224056 15.455376 49.465893 15.117781 49.701614 14.777411 Z" stroke="none" fill-rule="evenodd" fill="#3c284b" id="path38"></path>
        </g>
        <g id="g40">
            <path d="M 46.439682 17.809349 C 46.48632 17.771524 46.532955 17.7337 46.57959 17.695885 C 47.019855 18.214705 47.350639 18.796803 47.571472 19.442572 C 48.063637 20.548576 48.328217 21.700003 48.363895 22.897141 C 48.347813 23.125095 48.262764 23.322388 48.110001 23.489578 C 48.092503 21.446653 47.535641 19.552803 46.439682 17.809349 Z" stroke="none" fill-rule="evenodd" fill="#111219" id="path39"></path>
        </g>
        <g id="g41">
            <path d="M 48.063972 26.387224 C 48.183311 26.311314 48.215088 26.350477 48.158543 26.503796 C 48.103588 26.781052 47.992702 27.025593 47.825893 27.237413 C 47.924889 26.955353 48.004379 26.672117 48.063972 26.387224 Z" stroke="none" fill-rule="evenodd" fill="#5c3c6d" id="path40"></path>
        </g>
        <g id="g42">
            <path d="M 47.696087 27.458637 C 47.815434 27.382729 47.84721 27.42189 47.790665 27.575205 C 47.613605 28.241385 47.257828 28.787348 46.723236 29.213942 C 47.143967 28.675598 47.467976 28.090469 47.696087 27.458637 Z" stroke="none" fill-rule="evenodd" fill="#6c467f" id="path41"></path>
        </g>
    </g>
</svg>
