<svg xmlns="http://www.w3.org/2000/svg" viewBox="0 0 60 28" height="28" width="60">
    <g id="Group">
        <path d="M 43.932808 3.318966 C 43.735138 3.318966 43.537586 3.318966 43.33992 3.318966 C 43.33992 3.439655 43.33992 3.560345 43.33992 3.681034 C 43.152451 3.943378 42.974586 4.224995 42.806324 4.525862 C 42.747154 5.047314 42.727352 5.570299 42.747036 6.094828 C 42.733753 6.846277 42.812725 7.570415 42.984188 8.267241 C 43.169407 9.88365 43.129803 11.492842 42.865612 13.094828 C 42.749763 12.758465 42.710278 12.396397 42.747036 12.00862 C 42.746563 9.827238 42.627983 7.654827 42.391304 5.491379 C 42.411106 5.169537 42.43079 4.847706 42.450592 4.525862 C 42.727116 4.143494 42.865376 3.741186 42.865612 3.318966 C 39.949448 2.077988 36.90593 1.575121 33.735176 1.810345 C 32.62162 2.223454 31.554428 2.726332 30.533596 3.318966 C 30.057867 3.522894 29.978893 3.44243 30.296442 3.077587 C 30.815218 2.719742 31.368616 2.418018 31.956522 2.172413 C 29.470909 2.231913 27.059881 2.654327 24.72332 3.439655 C 24.41407 3.427622 24.137312 3.508074 23.89328 3.681034 C 23.600752 3.711798 23.363598 3.832487 23.181818 4.043104 C 21.583281 4.615208 20.081383 5.379574 18.67589 6.336206 C 17.075693 7.494236 15.415613 8.540218 13.695652 9.474138 C 13.616561 9.514364 13.537589 9.554602 13.458498 9.594828 C 12.530751 9.972502 11.582134 10.314451 10.612648 10.620689 C 10.356035 11.081144 10.099126 11.543785 9.841897 12.00862 C 9.755158 13.139483 9.79468 14.26588 9.960474 15.387931 C 10.190526 16.230827 10.407913 17.075653 10.612648 17.922413 C 13.170948 18.020172 15.581977 18.663811 17.84585 19.853447 C 17.901937 20.023138 18.020515 20.103638 18.201582 20.094828 C 18.257669 20.264519 18.376245 20.345016 18.557312 20.336206 C 20.423716 21.5285 22.281462 22.755552 24.130434 24.017242 C 24.9249 24.502052 25.75494 24.924465 26.620554 25.284483 C 28.028536 25.996189 29.530554 26.27788 31.126482 26.129311 C 31.73004 25.877069 32.362411 25.71607 33.023716 25.646551 C 33.023716 25.525862 33.023716 25.405172 33.023716 25.284483 C 33.181778 25.284483 33.339958 25.284483 33.498024 25.284483 C 33.649803 25.45719 33.847469 25.537691 34.090908 25.525862 C 34.294147 25.675278 34.531303 25.755775 34.802372 25.767242 C 34.839958 25.260103 34.800358 24.777346 34.683796 24.318966 C 34.683796 24.278776 34.683796 24.238464 34.683796 24.198277 C 34.664112 23.5935 34.683914 22.990051 34.743084 22.387932 C 34.788498 22.320827 34.847786 22.280636 34.920948 22.267242 C 34.890591 23.255207 34.969685 24.220724 35.158104 25.163794 C 35.127392 25.614811 35.324944 25.896379 35.750988 26.008621 C 37.06992 26.322897 38.058022 25.880327 38.715416 24.681034 C 38.863636 24.690327 38.962414 24.770828 39.011856 24.922413 C 39.044823 24.811863 39.104111 24.731483 39.189724 24.681034 C 39.307827 24.691414 39.406601 24.651104 39.486168 24.560345 C 39.568577 24.292171 39.667355 24.030638 39.782608 23.775862 C 39.774307 23.683535 39.734821 23.62319 39.664032 23.594828 C 40.016918 22.486294 40.214584 21.359896 40.256916 20.215517 C 40.23735 20.619827 40.257156 21.022087 40.316204 21.422413 C 40.514111 20.240259 40.533913 19.073551 40.375496 17.922413 C 40.374901 17.435553 40.335415 16.952793 40.256916 16.474138 C 40.414982 16.474138 40.573162 16.474138 40.731224 16.474138 C 40.751026 17.601501 40.790512 18.727896 40.849804 19.853447 C 40.876957 21.02124 40.699093 22.147638 40.316204 23.232758 C 40.105492 23.948568 39.769447 24.592209 39.3083 25.163794 C 39.159367 25.159086 39.040791 25.219431 38.952568 25.344828 C 39.60664 25.443432 40.239132 25.423397 40.849804 25.284483 C 40.96838 25.203981 41.086956 25.123604 41.205532 25.043104 C 41.398102 25.026207 41.536366 25.106707 41.620552 25.284483 C 42.071262 24.99169 42.565372 24.871 43.102768 24.922413 C 42.120354 25.362448 41.132252 25.724518 40.13834 26.008621 C 39.822094 25.968431 39.505966 25.92812 39.189724 25.887932 C 38.49498 25.956604 37.902092 26.177826 37.411068 26.551723 C 37.127552 26.586363 36.85091 26.646708 36.581028 26.732759 C 35.692413 26.522999 34.743797 26.28162 33.735176 26.008621 C 32.551067 26.322657 31.345612 26.523726 30.118578 26.612068 C 28.23913 26.523966 26.480158 26.021051 24.841898 25.103449 C 22.286087 23.335224 19.697195 21.705914 17.075098 20.215517 C 14.810869 18.987139 12.439328 18.42388 9.960474 18.525862 C 9.255059 18.752033 8.642407 19.134258 8.12253 19.672413 C 7.332012 20.074673 6.541506 20.477053 5.750988 20.879311 C 3.717391 21.022087 2.907119 20.076603 3.320158 18.043102 C 3.774699 17.5 4.229253 16.956898 4.683794 16.413794 C 3.824514 16.391466 2.974708 16.331121 2.134387 16.232758 C 2.094866 16.272947 2.055332 16.313259 2.01581 16.353447 C 1.59868 16.131863 1.183661 15.910518 0.770751 15.689655 C 0.398664 15.224759 0.121985 14.762156 -0.059289 14.301724 C -0.059289 14.140844 -0.059289 13.979845 -0.059289 13.818966 C 0.098814 13.778776 0.098814 13.738465 -0.059289 13.698276 C -0.059289 13.658086 -0.059289 13.617776 -0.059289 13.577586 C 0.194598 13.218897 0.510803 12.917172 0.889328 12.672414 C 1.593213 12.534947 2.304676 12.45457 3.023715 12.431034 C 1.728332 11.492516 1.313312 10.265501 1.778656 8.75 C 2.640605 7.846323 3.64851 7.665291 4.802372 8.206896 C 5.615941 8.631952 6.366937 9.154949 7.055336 9.775862 C 8.062482 10.354195 9.109909 10.414539 10.197628 9.956896 C 11.672668 9.791298 13.095534 9.228075 14.466403 8.267241 C 14.505889 8.307467 14.545494 8.347706 14.58498 8.387932 C 17.550592 6.13089 20.771856 4.300438 24.249012 2.896551 C 25.210672 2.621958 26.139605 2.36046 27.035574 2.112068 C 27.075058 2.152294 27.114664 2.192533 27.15415 2.232759 C 27.923597 2.080147 28.694347 1.919231 29.466404 1.75 C 29.535889 1.775261 29.595179 1.815487 29.644268 1.870689 C 30.486403 1.744013 31.355928 1.623323 32.252964 1.508621 C 32.434742 1.56217 32.612606 1.602398 32.78656 1.629311 C 33.04435 1.464762 33.301304 1.424536 33.557312 1.508621 C 33.685257 1.280069 33.843437 1.239843 34.03162 1.387932 C 34.387352 1.307467 34.743084 1.227016 35.098816 1.146551 C 35.468895 1.292696 35.844425 1.292696 36.225296 1.146551 C 38.600159 1.268135 40.892609 1.771013 43.102768 2.655172 C 43.430752 2.820639 43.70739 3.041899 43.932808 3.318966 Z" opacity="0.813" stroke="none" fill-rule="evenodd" fill="#08070f" id="Path"></path>
    </g>
    <g id="g1">
        <path d="M 42.747036 12.00862 C 42.00901 14.869085 41.495216 17.785673 41.205532 20.758621 C 41.355534 22.103706 41.414825 23.451448 41.3834 24.801723 C 41.298378 24.86738 41.23909 24.94788 41.205532 25.043104 C 41.086956 25.123604 40.96838 25.203981 40.849804 25.284483 C 40.312408 25.322861 39.7985 25.282673 39.3083 25.163794 C 39.769447 24.592209 40.105492 23.948568 40.316204 23.232758 C 40.699093 22.147638 40.876957 21.02124 40.849804 19.853447 C 40.928417 19.615326 40.967907 19.353912 40.96838 19.068966 C 40.922611 18.182499 40.843636 17.317518 40.731224 16.474138 C 40.573162 16.474138 40.414982 16.474138 40.256916 16.474138 C 40.335415 16.952793 40.374901 17.435553 40.375496 17.922413 C 40.413795 18.669483 40.374306 19.393621 40.256916 20.094828 C 40.258457 18.961672 40.041107 17.875465 39.604744 16.836206 C 39.315655 16.26088 38.979725 15.717776 38.596836 15.206897 C 40.124466 14.496637 41.09277 13.309775 41.501976 11.646551 C 41.551781 11.201036 41.611069 10.758507 41.67984 10.318966 C 41.757866 10.162876 41.79747 9.981842 41.79842 9.775862 C 41.76083 8.88101 41.642254 8.016062 41.442688 7.181034 C 41.341896 6.691856 41.203636 6.209097 41.027668 5.732759 C 40.92178 5.58658 40.823002 5.58658 40.731224 5.732759 C 41.093479 6.536926 41.291145 7.381754 41.324112 8.267241 C 41.361462 8.73448 41.321976 9.177011 41.205532 9.594828 C 41.225101 9.102558 41.066917 8.700253 40.731224 8.387932 C 40.29747 7.222359 39.507034 6.417768 38.359684 5.974138 C 37.729446 5.386259 36.998184 5.225344 36.166008 5.491379 C 36.11739 6.095963 36.058102 6.699409 35.988144 7.301723 C 36.11348 7.939594 36.19257 8.583267 36.225296 9.232759 C 36.029053 10.94969 35.930157 12.679534 35.928852 14.422414 C 35.906799 14.71207 35.847507 14.993759 35.750988 15.267241 C 35.669998 15.311051 35.590908 15.351241 35.513832 15.387931 C 35.27668 15.387931 35.039524 15.387931 34.802372 15.387931 C 34.808659 14.179586 34.848259 12.97269 34.920948 11.767241 C 34.872925 10.573305 34.951897 9.406637 35.158104 8.267241 C 35.251781 8.133457 35.311069 7.97253 35.335968 7.784483 C 35.367508 6.997089 35.426796 6.212608 35.513832 5.431034 C 35.510513 5.301922 35.471027 5.201338 35.395256 5.129311 C 35.212055 5.217379 35.113281 5.378294 35.098816 5.612068 C 35.059326 6.376432 35.019726 7.140808 34.980236 7.905172 C 34.798103 8.369368 34.699329 8.852127 34.683796 9.353449 C 34.556797 11.343969 34.477707 13.355517 34.44664 15.387931 C 33.455097 15.407845 32.466995 15.367655 31.482214 15.267241 C 31.482214 15.387931 31.482214 15.50862 31.482214 15.629311 C 32.4664 15.734431 33.454506 15.774741 34.44664 15.75 C 34.459091 16.238552 34.419605 16.72131 34.328064 17.198277 C 33.699722 18.684689 33.363796 20.253654 33.32016 21.905172 C 33.096638 22.617001 32.82 23.300827 32.49012 23.956898 C 32.41103 24.198277 32.41103 24.439655 32.49012 24.681034 C 32.622688 24.954397 32.721462 25.236086 32.78656 25.525862 C 31.494665 25.451878 30.387985 24.948965 29.466404 24.017242 C 28.326759 23.375896 27.200277 22.712105 26.086956 22.025862 C 26.007864 21.784483 26.007864 21.543102 26.086956 21.301723 C 26.403202 21.060345 26.719328 20.818966 27.035574 20.577587 C 27.70755 19.732758 28.379406 18.887932 29.051384 18.043102 C 29.261265 17.53669 29.399643 17.013741 29.466404 16.474138 C 29.545376 15.972914 29.584862 15.449845 29.58498 14.905172 C 29.603243 14.072655 29.524151 13.268138 29.347826 12.49138 C 29.246443 11.568199 29.167471 10.642908 29.110672 9.715517 C 29.860672 9.89142 30.591938 10.132801 31.304348 10.439655 C 31.581938 10.378477 31.641226 10.237682 31.482214 10.017241 C 29.389921 9.46529 27.433399 8.600357 25.612648 7.422413 C 25.533556 7.181034 25.533556 6.939655 25.612648 6.698277 C 26.076523 6.145119 26.610119 5.68248 27.213438 5.310345 C 27.836088 4.959042 28.428972 4.556747 28.992094 4.103449 C 29.549881 3.900026 30.063793 3.63854 30.533596 3.318966 C 31.554428 2.726332 32.62162 2.223454 33.735176 1.810345 C 36.90593 1.575121 39.949448 2.077988 42.865612 3.318966 C 42.865376 3.741186 42.727116 4.143494 42.450592 4.525862 C 42.43079 4.847706 42.411106 5.169537 42.391304 5.491379 C 42.627983 7.654827 42.746563 9.827238 42.747036 12.00862 Z" stroke="none" fill-rule="evenodd" fill="#7a4f8e" id="path1"></path>
    </g>
    <g id="g2">
        <path d="M 30.296442 3.077587 C 28.878853 3.854694 27.495533 4.699522 26.146246 5.612068 C 25.978697 4.886761 25.721859 4.20286 25.375494 3.560345 C 25.17403 3.450989 24.95656 3.410763 24.72332 3.439655 C 27.059881 2.654327 29.470909 2.231913 31.956522 2.172413 C 31.368616 2.418018 30.815218 2.719742 30.296442 3.077587 Z" stroke="none" fill-rule="evenodd" fill="#784d8c" id="path2"></path>
    </g>
    <g id="g3">
        <path d="M 43.102768 24.922413 C 42.565372 24.871 42.071262 24.99169 41.620552 25.284483 C 41.536366 25.106707 41.398102 25.026207 41.205532 25.043104 C 41.23909 24.94788 41.298378 24.86738 41.3834 24.801723 C 41.414825 23.451448 41.355534 22.103706 41.205532 20.758621 C 41.495216 17.785673 42.00901 14.869085 42.747036 12.00862 C 42.710278 12.396397 42.749763 12.758465 42.865612 13.094828 C 42.352291 15.164293 41.937271 17.256207 41.620552 19.370689 C 41.51585 21.160759 41.65411 22.930794 42.035572 24.681034 C 43.460159 24.167622 44.922569 23.785519 46.422924 23.534483 C 49.210552 22.931034 51.443718 21.462603 53.122528 19.129311 C 53.62067 18.356897 53.917114 17.51207 54.011856 16.594828 C 53.470432 16.437084 52.917034 16.356586 52.35178 16.353447 C 52.194427 17.03607 51.937588 17.679707 51.581028 18.284483 C 51.343872 18.606363 51.10672 18.92812 50.869564 19.25 C 49.10265 20.881001 47.067036 21.987362 44.762844 22.568966 C 44.218456 22.076551 43.922016 21.45295 43.873516 20.698277 C 43.794426 19.491379 43.794426 18.284483 43.873516 17.077587 C 44.199486 15.659604 44.555218 14.251517 44.940712 12.853448 C 45.019802 11.928156 45.019802 11.002878 44.940712 10.077587 C 44.56921 8.889784 44.470436 7.682886 44.644268 6.456896 C 45.302254 6.407063 45.934624 6.507633 46.5415 6.758621 C 47.911304 7.58987 49.215652 8.515162 50.454544 9.534483 C 51.758179 10.75988 52.509129 12.268465 52.707508 14.060345 C 53.262569 14.080741 53.815968 14.120931 54.367588 14.181034 C 54.360474 12.622689 53.984943 11.174427 53.241108 9.836206 C 51.415615 7.817732 49.261421 6.268887 46.778656 5.189655 C 46.559406 5.057741 46.36174 4.896826 46.185772 4.706896 C 45.218422 4.394491 44.269802 4.052542 43.33992 3.681034 C 43.33992 3.560345 43.33992 3.439655 43.33992 3.318966 C 43.537586 3.318966 43.735138 3.318966 43.932808 3.318966 C 44.00597 3.305605 44.065258 3.265379 44.110672 3.198277 C 46.657589 4.235977 49.088421 5.50322 51.403164 7 C 53.208378 8.283003 54.39415 10.012896 54.960476 12.189655 C 54.920986 12.229846 54.881386 12.270154 54.841896 12.310345 C 55.006958 12.904983 55.125534 13.508431 55.197628 14.120689 C 56.376518 14.323569 57.56229 14.343603 58.75494 14.181034 C 59.954113 14.36231 60.112175 14.865224 59.229248 15.689655 C 58.784111 15.975811 58.309803 16.21719 57.806324 16.413794 C 58.315254 16.582275 58.730274 16.883999 59.051384 17.318966 C 59.082809 17.519672 59.023521 17.700706 58.873516 17.862068 C 57.508339 18.066999 56.223793 17.805466 55.019764 17.077587 C 53.878815 19.888447 51.961899 21.960205 49.268776 23.293102 C 47.286167 24.119102 45.230869 24.662207 43.102768 24.922413 Z" opacity="0.933" stroke="none" fill-rule="evenodd" fill="#151317" id="path3"></path>
    </g>
    <g id="g4">
        <path d="M 24.72332 3.439655 C 24.95656 3.410763 25.17403 3.450989 25.375494 3.560345 C 25.721859 4.20286 25.978697 4.886761 26.146246 5.612068 C 25.89249 5.933708 25.596048 6.215311 25.256916 6.456896 C 25.079762 7.063435 25.218143 7.566311 25.671936 7.965517 C 26.250593 8.239603 26.803991 8.541327 27.332016 8.870689 C 27.775496 10.281334 28.36838 11.608921 29.110672 12.853448 C 29.28083 14.259362 29.261028 15.667448 29.051384 17.077587 C 28.734547 17.645191 28.418419 18.208447 28.102766 18.767242 C 27.251621 19.71393 26.401779 20.659294 25.55336 21.603449 C 25.677629 21.936792 25.835691 22.258673 26.027668 22.568966 C 27.964386 23.655172 29.901226 24.741379 31.837944 25.827587 C 31.587629 25.929569 31.350475 26.030102 31.126482 26.129311 C 29.530554 26.27788 28.028536 25.996189 26.620554 25.284483 C 26.476719 24.955603 26.259367 24.673912 25.96838 24.439655 C 25.645849 23.493208 25.211029 22.608189 24.664032 21.784483 C 24.514149 21.174397 24.276995 20.611259 23.95257 20.094828 C 23.591856 19.042051 23.176838 18.036224 22.70751 17.077587 C 22.564032 16.829931 22.445454 16.568516 22.351778 16.293102 C 22.383675 16.099155 22.482569 15.95831 22.648222 15.870689 C 22.662212 15.392397 22.444742 15.271708 21.996048 15.50862 C 21.126047 13.413086 20.315691 11.280922 19.565218 9.112068 C 19.49004 8.743399 19.509724 8.381329 19.624506 8.025862 C 19.624506 7.905172 19.624506 7.784483 19.624506 7.663794 C 19.426838 7.663794 19.22929 7.663794 19.03162 7.663794 C 18.965336 7.260279 18.807274 6.898211 18.557312 6.577587 C 18.600357 6.495094 18.639841 6.414644 18.67589 6.336206 C 20.081383 5.379574 21.583281 4.615208 23.181818 4.043104 C 23.474348 4.012341 23.711502 3.891651 23.89328 3.681034 C 24.137312 3.508074 24.41407 3.427622 24.72332 3.439655 Z" stroke="none" fill-rule="evenodd" fill="#9e439f" id="path4"></path>
    </g>
    <g id="g5">
        <path d="M 43.33992 3.681034 C 44.269802 4.052542 45.218422 4.394491 46.185772 4.706896 C 46.36174 4.896826 46.559406 5.057741 46.778656 5.189655 C 49.261421 6.268887 51.415615 7.817732 53.241108 9.836206 C 53.984943 11.174427 54.360474 12.622689 54.367588 14.181034 C 53.815968 14.120931 53.262569 14.080741 52.707508 14.060345 C 52.509129 12.268465 51.758179 10.75988 50.454544 9.534483 C 49.215652 8.515162 47.911304 7.58987 46.5415 6.758621 C 45.934624 6.507633 45.302254 6.407063 44.644268 6.456896 C 44.470436 7.682886 44.56921 8.889784 44.940712 10.077587 C 45.019802 11.002878 45.019802 11.928156 44.940712 12.853448 C 44.555218 14.251517 44.199486 15.659604 43.873516 17.077587 C 43.794426 18.284483 43.794426 19.491379 43.873516 20.698277 C 43.922016 21.45295 44.218456 22.076551 44.762844 22.568966 C 47.067036 21.987362 49.10265 20.881001 50.869564 19.25 C 51.10672 18.92812 51.343872 18.606363 51.581028 18.284483 C 51.937588 17.679707 52.194427 17.03607 52.35178 16.353447 C 52.917034 16.356586 53.470432 16.437084 54.011856 16.594828 C 53.917114 17.51207 53.62067 18.356897 53.122528 19.129311 C 51.443718 21.462603 49.210552 22.931034 46.422924 23.534483 C 44.922569 23.785519 43.460159 24.167622 42.035572 24.681034 C 41.65411 22.930794 41.51585 21.160759 41.620552 19.370689 C 41.937271 17.256207 42.352291 15.164293 42.865612 13.094828 C 43.129803 11.492842 43.169407 9.88365 42.984188 8.267241 C 43.01075 7.514307 42.93166 6.790169 42.747036 6.094828 C 42.727352 5.570299 42.747154 5.047314 42.806324 4.525862 C 42.974586 4.224995 43.152451 3.943378 43.33992 3.681034 Z" stroke="none" fill-rule="evenodd" fill="#7f3a2a" id="path5"></path>
    </g>
    <g id="g6">
        <path d="M 23.89328 3.681034 C 23.711502 3.891651 23.474348 4.012341 23.181818 4.043104 C 23.363598 3.832487 23.600752 3.711798 23.89328 3.681034 Z" stroke="none" fill-rule="evenodd" fill="#5e2a63" id="path6"></path>
    </g>
    <g id="g7">
        <path d="M 24.960474 4.284483 C 25.118536 4.284483 25.27672 4.284483 25.434782 4.284483 C 25.162766 4.802483 24.9849 5.365694 24.901186 5.974138 C 24.781303 6.075108 24.642925 6.115345 24.486166 6.094828 C 24.260633 5.387308 24.418695 4.783859 24.960474 4.284483 Z" stroke="none" fill-rule="evenodd" fill="#1a0d1a" id="path7"></path>
    </g>
    <g id="g8">
        <path d="M 30.177866 4.767241 C 30.488417 4.734861 30.784861 4.775087 31.067194 4.887932 C 31.108337 5.553572 31.167627 6.217365 31.24506 6.879311 C 31.254784 7.317028 31.096718 7.658978 30.77075 7.905172 C 29.70083 7.692638 28.772015 7.209879 27.98419 6.456896 C 27.889565 6.244627 27.909369 6.043474 28.043478 5.853449 C 28.811621 5.581123 29.523083 5.219053 30.177866 4.767241 Z" stroke="none" fill-rule="evenodd" fill="#19151e" id="path8"></path>
    </g>
    <g id="g9">
        <path d="M 33.142292 4.887932 C 33.602135 4.91441 34.036839 5.035099 34.44664 5.25 C 34.556797 5.393475 34.596283 5.554403 34.565216 5.732759 C 34.402412 5.751671 34.244228 5.731552 34.090908 5.672413 C 33.847588 5.453735 33.570946 5.29282 33.260868 5.189655 C 33.1717 5.108696 33.132095 5.008125 33.142292 4.887932 Z" stroke="none" fill-rule="evenodd" fill="#14101b" id="path9"></path>
    </g>
    <g id="g10">
        <path d="M 30.177866 5.25 C 30.389881 5.21558 30.587547 5.255804 30.77075 5.370689 C 30.717749 6.038454 30.678261 6.702246 30.652174 7.362068 C 29.762846 7.259991 28.972292 6.897921 28.280632 6.275862 C 28.961384 6.012505 29.593874 5.670555 30.177866 5.25 Z" stroke="none" fill-rule="evenodd" fill="#f2a5bf" id="path10"></path>
    </g>
    <g id="g11">
        <path d="M 22.351778 5.974138 C 22.642056 5.924015 22.800119 6.044704 22.826086 6.336206 C 22.024624 7.080042 21.906048 7.92487 22.470356 8.870689 C 22.275415 8.896458 22.097549 8.856232 21.936758 8.75 C 21.293123 7.707771 21.431385 6.78248 22.351778 5.974138 Z" stroke="none" fill-rule="evenodd" fill="#170b18" id="path11"></path>
    </g>
    <g id="g12">
        <path d="M 33.023716 6.215517 C 33.420948 6.195602 33.816166 6.215723 34.209488 6.275862 C 34.384148 6.361504 34.463242 6.5023 34.44664 6.698277 C 33.978024 6.605091 33.503716 6.564865 33.023716 6.577587 C 33.023716 6.456896 33.023716 6.336206 33.023716 6.215517 Z" stroke="none" fill-rule="evenodd" fill="#0c0a15" id="path12"></path>
    </g>
    <g id="g13">
        <path d="M 35.395256 5.129311 C 35.471027 5.201338 35.510513 5.301922 35.513832 5.431034 C 35.426796 6.212608 35.367508 6.997089 35.335968 7.784483 C 35.311069 7.97253 35.251781 8.133457 35.158104 8.267241 C 35.232567 7.220526 35.311543 6.174555 35.395256 5.129311 Z" stroke="none" fill-rule="evenodd" fill="#5d3c6e" id="path13"></path>
    </g>
    <g id="g14">
        <path d="M 18.67589 6.336206 C 18.639841 6.414644 18.600357 6.495094 18.557312 6.577587 C 18.807274 6.898211 18.965336 7.260279 19.03162 7.663794 C 18.492569 8.10157 18.314703 8.664793 18.498024 9.353449 C 18.6166 9.554602 18.774664 9.715517 18.972332 9.836206 C 18.71822 9.046461 18.935574 8.443012 19.624506 8.025862 C 19.509724 8.381329 19.49004 8.743399 19.565218 9.112068 C 20.315691 11.280922 21.126047 13.413086 21.996048 15.50862 C 21.72747 15.980035 21.687983 16.482948 21.87747 17.017242 C 21.197668 17.888985 21.27676 18.693501 22.114624 19.431034 C 22.227036 19.489326 22.345612 19.509361 22.470356 19.491379 C 22.32095 19.053398 22.162767 18.610826 21.996048 18.163794 C 22.024744 17.752241 22.242094 17.51086 22.648222 17.439655 C 22.705494 17.325241 22.725178 17.204552 22.70751 17.077587 C 23.176838 18.036224 23.591856 19.042051 23.95257 20.094828 C 24.276995 20.611259 24.514149 21.174397 24.664032 21.784483 C 25.211029 22.608189 25.645849 23.493208 25.96838 24.439655 C 26.259367 24.673912 26.476719 24.955603 26.620554 25.284483 C 25.75494 24.924465 24.9249 24.502052 24.130434 24.017242 C 22.281462 22.755552 20.423716 21.5285 18.557312 20.336206 C 18.684546 20.245567 18.704348 20.124878 18.6166 19.974138 C 17.58415 18.068329 16.67502 16.096983 15.889328 14.060345 C 15.615296 13.606551 15.35834 13.163982 15.118577 12.732759 C 15.142174 12.263638 15.161976 11.780844 15.177866 11.284483 C 15.253399 11.066868 15.39166 10.905952 15.592885 10.801723 C 15.153913 10.448671 14.798182 10.529133 14.525692 11.043104 C 14.415652 10.686647 14.316877 10.324579 14.229249 9.956896 C 14.074269 9.752714 13.896403 9.591799 13.695652 9.474138 C 15.415613 8.540218 17.075693 7.494236 18.67589 6.336206 Z" stroke="none" fill-rule="evenodd" fill="#7b4f8f" id="path14"></path>
    </g>
    <g id="g15">
        <path d="M 45 6.818966 C 45.549488 6.816504 46.063282 6.9573 46.5415 7.241379 C 47.822845 8.145115 49.087708 9.070408 50.335968 10.017241 C 50.96822 10.902802 51.50182 11.848202 51.93676 12.853448 C 51.995693 13.172793 52.015495 13.494673 51.996048 13.818966 C 50.934193 13.729776 49.906483 13.488397 48.913044 13.094828 C 48.444782 13.253294 48.444782 13.434328 48.913044 13.637931 C 49.755062 13.97043 50.624584 14.21181 51.52174 14.362069 C 52.879208 14.469362 54.223045 14.670551 55.55336 14.965517 C 56.701305 15.009569 57.847588 15.009569 58.992096 14.965517 C 58.364704 15.460587 57.673046 15.84281 56.916996 16.112068 C 56.832687 16.337397 56.891975 16.518433 57.09486 16.655172 C 57.435295 16.888706 57.791027 17.089775 58.162056 17.258621 C 57.885414 17.339123 57.608658 17.339123 57.332016 17.258621 C 55.372292 16.497429 53.35648 15.934173 51.284584 15.568966 C 50.305256 15.429811 49.35664 15.530465 48.438736 15.870689 C 48.438736 15.99138 48.438736 16.112068 48.438736 16.232758 C 49.462528 15.999585 50.490238 15.959396 51.52174 16.112068 C 51.561226 16.172413 51.60083 16.232758 51.640316 16.293102 C 51.211662 17.534758 50.500198 18.580654 49.505928 19.431034 C 48.246994 20.422016 46.863556 21.186346 45.355732 21.724138 C 45.143951 21.81888 44.966087 21.959604 44.822136 22.146551 C 44.703556 21.945362 44.58498 21.744293 44.466404 21.543102 C 44.280357 20.262949 44.240749 18.975552 44.347828 17.681034 C 44.646877 16.020706 45.002609 14.371241 45.41502 12.732759 C 45.434822 12.41088 45.454506 12.08912 45.474308 11.767241 C 45.315891 10.115181 45.157825 8.465752 45 6.818966 Z" stroke="none" fill-rule="evenodd" fill="#5d2a21" id="path15"></path>
    </g>
    <g id="g16">
        <path d="M 35.395256 5.129311 C 35.311543 6.174555 35.232567 7.220526 35.158104 8.267241 C 34.951897 9.406637 34.872925 10.573305 34.920948 11.767241 C 34.823833 12.105775 34.764545 12.467844 34.743084 12.853448 C 34.683796 11.687479 34.664112 10.520805 34.683796 9.353449 C 34.699329 8.852127 34.798103 8.369368 34.980236 7.905172 C 35.019726 7.140808 35.059326 6.376432 35.098816 5.612068 C 35.113281 5.378294 35.212055 5.217379 35.395256 5.129311 Z" stroke="none" fill-rule="evenodd" fill="#110d19" id="path16"></path>
    </g>
    <g id="g17">
        <path d="M 19.03162 7.663794 C 19.22929 7.663794 19.426838 7.663794 19.624506 7.663794 C 19.624506 7.784483 19.624506 7.905172 19.624506 8.025862 C 18.935574 8.443012 18.71822 9.046461 18.972332 9.836206 C 18.774664 9.715517 18.6166 9.554602 18.498024 9.353449 C 18.314703 8.664793 18.492569 8.10157 19.03162 7.663794 Z" stroke="none" fill-rule="evenodd" fill="#0d060f" id="path17"></path>
    </g>
    <g id="g18">
        <path d="M 42.747036 6.094828 C 42.93166 6.790169 43.01075 7.514307 42.984188 8.267241 C 42.812725 7.570415 42.733753 6.846277 42.747036 6.094828 Z" stroke="none" fill-rule="evenodd" fill="#331a17" id="path18"></path>
    </g>
    <g id="g19">
        <path d="M 24.604744 8.387932 C 24.72332 8.387932 24.841898 8.387932 24.960474 8.387932 C 24.757708 9.051497 24.678734 9.735407 24.72332 10.439655 C 24.566561 10.460173 24.428183 10.419935 24.3083 10.318966 C 24.002609 9.583471 24.101383 8.939796 24.604744 8.387932 Z" stroke="none" fill-rule="evenodd" fill="#110712" id="path19"></path>
    </g>
    <g id="g20">
        <path d="M 38.359684 5.974138 C 38.043438 5.933912 37.72731 5.893673 37.411068 5.853449 C 37.175808 5.774311 36.938656 5.693848 36.699604 5.612068 C 36.555771 5.641903 36.476681 5.722355 36.462452 5.853449 C 36.305336 7.12775 36.344822 8.41511 36.581028 9.715517 C 36.653004 9.7006 36.69249 9.660374 36.699604 9.594828 C 37.098972 9.19018 37.57328 8.908575 38.122528 8.75 C 38.632175 8.665579 39.145969 8.625351 39.664032 8.629311 C 39.743122 8.629311 39.822094 8.629311 39.901184 8.629311 C 40.132175 8.705488 40.349525 8.82618 40.55336 8.991379 C 40.622017 8.818974 40.602211 8.658058 40.494072 8.508621 C 40.534626 8.407459 40.613598 8.36722 40.731224 8.387932 C 41.066917 8.700253 41.225101 9.102558 41.205532 9.594828 C 41.185852 10.119356 41.205654 10.642342 41.264824 11.163794 C 41.45739 10.182816 41.477077 9.217299 41.324112 8.267241 C 41.291145 7.381754 41.093479 6.536926 40.731224 5.732759 C 40.823002 5.58658 40.92178 5.58658 41.027668 5.732759 C 41.203636 6.209097 41.341896 6.691856 41.442688 7.181034 C 41.539803 8.225206 41.618893 9.271185 41.67984 10.318966 C 41.611069 10.758507 41.551781 11.201036 41.501976 11.646551 C 41.09277 13.309775 40.124466 14.496637 38.596836 15.206897 C 38.979725 15.717776 39.315655 16.26088 39.604744 16.836206 C 40.041107 17.875465 40.258457 18.961672 40.256916 20.094828 C 40.256916 20.135017 40.256916 20.175327 40.256916 20.215517 C 40.214584 21.359896 40.016918 22.486294 39.664032 23.594828 C 39.47514 23.939518 39.316956 24.301586 39.189724 24.681034 C 39.104111 24.731483 39.044823 24.811863 39.011856 24.922413 C 38.962414 24.770828 38.863636 24.690327 38.715416 24.681034 C 38.899803 24.265862 39.117153 23.863604 39.367588 23.474138 C 39.49992 23.073448 39.57901 22.67119 39.604744 22.267242 C 38.374268 23.158535 37.089725 23.21888 35.750988 22.448277 C 35.567669 22.175879 35.370117 21.914345 35.158104 21.663794 C 34.986164 21.826725 34.907074 22.027794 34.920948 22.267242 C 34.847786 22.280636 34.788498 22.320827 34.743084 22.387932 C 34.683914 22.990051 34.664112 23.5935 34.683796 24.198277 C 34.546837 23.375051 34.527153 22.530224 34.624504 21.663794 C 35.009762 19.985001 35.34581 18.295345 35.632412 16.594828 C 35.705574 16.581432 35.764862 16.541241 35.810276 16.474138 C 35.869209 16.195345 35.888893 15.913775 35.869564 15.629311 C 35.474346 15.629311 35.079014 15.629311 34.683796 15.629311 C 34.683796 16.031569 34.683796 16.433949 34.683796 16.836206 C 34.644306 16.997086 34.604706 17.158087 34.565216 17.318966 C 34.391262 17.651827 34.312294 17.611637 34.328064 17.198277 C 34.419605 16.72131 34.459091 16.238552 34.44664 15.75 C 33.454506 15.774741 32.4664 15.734431 31.482214 15.629311 C 31.482214 15.50862 31.482214 15.387931 31.482214 15.267241 C 32.466995 15.367655 33.455097 15.407845 34.44664 15.387931 C 34.544823 14.685637 34.604111 13.9615 34.624504 13.215517 C 34.683796 13.978879 34.703476 14.743207 34.683796 15.50862 C 34.987232 15.545069 35.263992 15.504759 35.513832 15.387931 C 35.590908 15.351241 35.669998 15.311051 35.750988 15.267241 C 35.847507 14.993759 35.906799 14.71207 35.928852 14.422414 C 35.930157 12.679534 36.029053 10.94969 36.225296 9.232759 C 36.19257 8.583267 36.11348 7.939594 35.988144 7.301723 C 36.058102 6.699409 36.11739 6.095963 36.166008 5.491379 C 36.998184 5.225344 37.729446 5.386259 38.359684 5.974138 Z" stroke="none" fill-rule="evenodd" fill="#121218" id="path20"></path>
    </g>
    <g id="g21">
        <path d="M 36.462452 5.853449 C 36.427826 7.126242 36.506916 8.373375 36.699604 9.594828 C 36.69249 9.660374 36.653004 9.7006 36.581028 9.715517 C 36.344822 8.41511 36.305336 7.12775 36.462452 5.853449 Z" stroke="none" fill-rule="evenodd" fill="#535559" id="path21"></path>
    </g>
    <g id="g22">
        <path d="M 37.411068 5.853449 C 37.72731 5.893673 38.043438 5.933912 38.359684 5.974138 C 39.507034 6.417768 40.29747 7.222359 40.731224 8.387932 C 40.613598 8.36722 40.534626 8.407459 40.494072 8.508621 C 40.454582 8.508621 40.414982 8.508621 40.375496 8.508621 C 39.686916 7.285275 38.698814 6.400221 37.411068 5.853449 Z" stroke="none" fill-rule="evenodd" fill="#1d1d23" id="path22"></path>
    </g>
    <g id="g23">
        <path d="M 37.411068 5.853449 C 38.698814 6.400221 39.686916 7.285275 40.375496 8.508621 C 40.248856 8.621407 40.09079 8.661631 39.901184 8.629311 C 39.822094 8.629311 39.743122 8.629311 39.664032 8.629311 C 39.490437 8.549667 39.292767 8.509441 39.071148 8.508621 C 38.717075 8.494343 38.400948 8.574797 38.122528 8.75 C 37.57328 8.908575 37.098972 9.19018 36.699604 9.594828 C 36.506916 8.373375 36.427826 7.126242 36.462452 5.853449 C 36.476681 5.722355 36.555771 5.641903 36.699604 5.612068 C 36.938656 5.693848 37.175808 5.774311 37.411068 5.853449 Z" stroke="none" fill-rule="evenodd" fill="#f6f6f7" id="path23"></path>
    </g>
    <g id="g24">
        <path d="M 39.664032 8.629311 C 39.145969 8.625351 38.632175 8.665579 38.122528 8.75 C 38.400948 8.574797 38.717075 8.494343 39.071148 8.508621 C 39.292767 8.509441 39.490437 8.549667 39.664032 8.629311 Z" stroke="none" fill-rule="evenodd" fill="#626468" id="path24"></path>
    </g>
    <g id="g25">
        <path d="M 8.833992 12.25 C 8.335767 12.154293 7.821925 12.053771 7.29249 11.948277 C 6.897237 11.666672 6.501973 11.385054 6.106719 11.103449 C 5.276075 10.943703 4.979632 11.285666 5.217391 12.129311 C 5.388012 12.343534 5.506589 12.584914 5.573123 12.853448 C 5.965898 13.112328 6.301861 13.434206 6.581028 13.818966 C 5.866032 13.902483 5.154569 14.003017 4.44664 14.120689 C 4.241822 14.288327 4.083723 14.489517 3.972332 14.724138 C 4.172597 15.088862 4.449273 15.370552 4.802372 15.568966 C 5.466332 15.576447 6.118506 15.475914 6.758893 15.267241 C 7.240613 15.207017 7.438245 15.408086 7.351779 15.870689 C 6.764668 16.186655 6.290359 16.629103 5.928854 17.198277 C 5.6663 18.379707 6.08132 18.80212 7.173913 18.465517 C 7.88164 17.866053 8.553581 17.222294 9.189723 16.534483 C 9.383491 16.474861 9.581122 16.454826 9.782609 16.474138 C 9.951522 16.929379 10.10962 17.392105 10.256917 17.862068 C 10.217396 17.922413 10.177861 17.982758 10.13834 18.043102 C 9.130281 18.162464 8.260719 18.584879 7.529644 19.310345 C 6.842668 19.639828 6.170739 20.001896 5.513834 20.396551 C 4.248308 20.436016 3.67519 19.812414 3.794466 18.525862 C 4.179972 17.891638 4.654281 17.328381 5.217391 16.836206 C 5.505249 16.411259 5.445961 16.069225 5.039526 15.810345 C 4.130431 15.770156 3.221348 15.729844 2.312253 15.689655 C 1.036228 15.442845 0.542157 14.698672 0.83004 13.456897 C 0.926793 13.297224 1.065132 13.216845 1.245059 13.215517 C 2.036561 13.235552 2.827079 13.215517 3.616601 13.155172 C 3.68253 13.108948 3.722051 13.048603 3.735178 12.974138 C 3.865411 12.841259 3.885178 12.68038 3.794466 12.49138 C 3.105024 11.891008 2.591182 11.16687 2.252964 10.318966 C 2.026707 8.940039 2.599826 8.356697 3.972332 8.568966 C 4.958407 8.949863 5.82798 9.513073 6.581028 10.258621 C 7.637609 10.700573 8.744335 10.901728 9.901186 10.862068 C 9.592577 11.228846 9.394957 11.651258 9.3083 12.129311 C 9.167336 12.241431 9.009225 12.28162 8.833992 12.25 Z" stroke="none" fill-rule="evenodd" fill="#794d8c" id="path25"></path>
    </g>
    <g id="g26">
        <path d="M 40.375496 8.508621 C 40.414982 8.508621 40.454582 8.508621 40.494072 8.508621 C 40.602211 8.658058 40.622017 8.818974 40.55336 8.991379 C 40.349525 8.82618 40.132175 8.705488 39.901184 8.629311 C 40.09079 8.661631 40.248856 8.621407 40.375496 8.508621 Z" stroke="none" fill-rule="evenodd" fill="#adafb1" id="path26"></path>
    </g>
    <g id="g27">
        <path d="M 41.442688 7.181034 C 41.642254 8.016062 41.76083 8.88101 41.79842 9.775862 C 41.79747 9.981842 41.757866 10.162876 41.67984 10.318966 C 41.618893 9.271185 41.539803 8.225206 41.442688 7.181034 Z" stroke="none" fill-rule="evenodd" fill="#2f203c" id="path27"></path>
    </g>
    <g id="g28">
        <path d="M 38.241108 8.991379 C 38.795929 8.971369 39.349209 8.991474 39.901184 9.051723 C 40.040157 9.102245 40.158733 9.182709 40.256916 9.293104 C 38.925533 9.810089 38.293163 10.795713 38.359684 12.25 C 37.233913 12.383724 36.561935 11.901003 36.343872 10.801723 C 36.674229 9.861816 37.306599 9.258368 38.241108 8.991379 Z" stroke="none" fill-rule="evenodd" fill="#010204" id="path28"></path>
    </g>
    <g id="g29">
        <path d="M 27.332016 8.870689 C 27.80514 9.077974 28.259644 9.319353 28.695652 9.594828 C 28.912054 10.670765 29.050316 11.756971 29.110672 12.853448 C 28.36838 11.608921 27.775496 10.281334 27.332016 8.870689 Z" stroke="none" fill-rule="evenodd" fill="#794d8c" id="path29"></path>
    </g>
    <g id="g30">
        <path d="M 41.324112 8.267241 C 41.477077 9.217299 41.45739 10.182816 41.264824 11.163794 C 41.205654 10.642342 41.185852 10.119356 41.205532 9.594828 C 41.321976 9.177011 41.361462 8.73448 41.324112 8.267241 Z" stroke="none" fill-rule="evenodd" fill="#3b2849" id="path30"></path>
    </g>
    <g id="g31">
        <path d="M 38.952568 12.00862 C 38.958736 11.5623 38.998337 11.119764 39.071148 10.681034 C 39.4034 9.988346 39.956799 9.666506 40.731224 9.715517 C 40.790276 11.003096 40.197392 11.767469 38.952568 12.00862 Z" stroke="none" fill-rule="evenodd" fill="#efeff0" id="path31"></path>
    </g>
    <g id="g32">
        <path d="M 13.458498 9.594828 C 14.015692 11.458347 14.687668 13.268742 15.474308 15.025862 C 15.242964 14.992913 15.0651 15.073293 14.940711 15.267241 C 14.760355 16.03688 14.938221 16.700672 15.474308 17.258621 C 15.627628 17.31776 15.78581 17.337914 15.948617 17.318966 C 15.894783 17.000345 15.756403 16.718775 15.533597 16.474138 C 15.445021 16.060898 15.464822 15.658637 15.592885 15.267241 C 16.030436 16.175915 16.524427 17.061052 17.075098 17.922413 C 17.310949 18.581501 17.567787 19.22514 17.84585 19.853447 C 15.581977 18.663811 13.170948 18.020172 10.612648 17.922413 C 10.407913 17.075653 10.190526 16.230827 9.960474 15.387931 C 9.79468 14.26588 9.755158 13.139483 9.841897 12.00862 C 10.099126 11.543785 10.356035 11.081144 10.612648 10.620689 C 11.582134 10.314451 12.530751 9.972502 13.458498 9.594828 Z" stroke="none" fill-rule="evenodd" fill="#9e449f" id="path32"></path>
    </g>
    <g id="g33">
        <path d="M 15.118577 12.732759 C 14.938696 12.731431 14.800317 12.651052 14.703557 12.49138 C 14.553439 12.021279 14.49415 11.538521 14.525692 11.043104 C 14.798182 10.529133 15.153913 10.448671 15.592885 10.801723 C 15.39166 10.905952 15.253399 11.066868 15.177866 11.284483 C 15.161976 11.780844 15.142174 12.263638 15.118577 12.732759 Z" stroke="none" fill-rule="evenodd" fill="#140f14" id="path33"></path>
    </g>
    <g id="g34">
        <path d="M 21.996048 11.163794 C 22.15411 11.163794 22.312294 11.163794 22.470356 11.163794 C 22.364111 11.617308 22.285139 12.079948 22.233202 12.551724 C 22.25502 12.8975 22.294624 13.239413 22.351778 13.577586 C 21.847706 13.483689 21.590868 13.161931 21.581028 12.612069 C 21.41419 12.015379 21.55245 11.532621 21.996048 11.163794 Z" stroke="none" fill-rule="evenodd" fill="#140915" id="path34"></path>
    </g>
    <g id="g35">
        <path d="M 39.071148 10.681034 C 38.998337 11.119764 38.958736 11.5623 38.952568 12.00862 C 38.874546 11.852531 38.834942 11.671497 38.833992 11.465517 C 38.814545 11.15852 38.893635 10.897034 39.071148 10.681034 Z" stroke="none" fill-rule="evenodd" fill="#a1a2a5" id="path35"></path>
    </g>
    <g id="g36">
        <path d="M 18.557312 11.525862 C 18.794466 11.525862 19.03162 11.525862 19.268774 11.525862 C 19.287748 11.730938 19.268064 11.932093 19.209486 12.129311 C 18.967234 12.259536 18.80917 12.460725 18.735178 12.732759 C 18.623241 13.284552 18.682529 13.8075 18.913044 14.301724 C 18.754982 14.543103 18.596798 14.784483 18.438736 15.025862 C 18.597748 15.424259 18.795414 15.786327 19.03162 16.112068 C 18.311502 16.083225 17.916285 15.700999 17.84585 14.965517 C 17.900396 14.653655 18.018972 14.372087 18.201582 14.120689 C 17.972136 13.195362 18.090712 12.330379 18.557312 11.525862 Z" stroke="none" fill-rule="evenodd" fill="#0d0810" id="path36"></path>
    </g>
    <g id="g37">
        <path d="M 7.766798 12.370689 C 7.99666 12.571397 8.273335 12.651776 8.596838 12.612069 C 8.765063 12.726845 8.962684 12.767035 9.189723 12.732759 C 9.153961 13.041603 9.193494 13.323293 9.3083 13.577586 C 9.279023 14.438707 9.358068 15.283535 9.545455 16.112068 C 9.160684 16.157932 8.804953 16.298775 8.478261 16.534483 C 7.934371 17.169189 7.321719 17.712294 6.640316 18.163794 C 6.260253 18.007137 6.141676 17.725449 6.284585 17.318966 C 6.841363 16.892931 7.335427 16.410172 7.766798 15.870689 C 7.84353 15.777276 7.883063 15.656586 7.885375 15.50862 C 7.904324 15.284741 7.825269 15.123861 7.648221 15.025862 C 7.018542 14.72269 6.386134 14.742845 5.750988 15.086206 C 5.395257 15.166707 5.039526 15.166707 4.683794 15.086206 C 4.501565 14.952241 4.42251 14.771207 4.44664 14.543103 C 5.234301 14.462845 6.024806 14.4025 6.818182 14.362069 C 6.98349 14.24669 7.062533 14.08581 7.055336 13.879311 C 6.971692 13.572517 6.813593 13.311104 6.581028 13.094828 C 6.452419 12.842949 6.254798 12.682069 5.988142 12.612069 C 5.706984 12.310706 5.588407 11.948687 5.632411 11.525862 C 6.199198 11.675516 6.713039 11.937016 7.173913 12.310345 C 7.36768 12.369966 7.565312 12.39 7.766798 12.370689 Z" stroke="none" fill-rule="evenodd" fill="#f3a6c0" id="path37"></path>
    </g>
    <g id="g38">
        <path d="M 40.494072 12.00862 C 40.410831 11.934313 40.292252 11.934313 40.13834 12.00862 C 40.268776 11.704954 40.466442 11.584265 40.731224 11.646551 C 40.678818 11.796051 40.599724 11.91674 40.494072 12.00862 Z" stroke="none" fill-rule="evenodd" fill="#8f9094" id="path38"></path>
    </g>
    <g id="g39">
        <path d="M 40.494072 12.00862 C 39.880791 13.719518 38.695019 14.725224 36.93676 15.025862 C 36.73909 15.025862 36.541542 15.025862 36.343872 15.025862 C 36.343872 14.864983 36.343872 14.703982 36.343872 14.543103 C 36.324192 13.737499 36.343872 12.932861 36.403164 12.129311 C 37.165375 12.7435 38.015099 12.884344 38.952568 12.551724 C 39.364979 12.40207 39.760197 12.221036 40.13834 12.00862 C 40.292252 11.934313 40.410831 11.934313 40.494072 12.00862 Z" stroke="none" fill-rule="evenodd" fill="#f3f3f5" id="path39"></path>
    </g>
    <g id="g40">
        <path d="M 42.035572 11.163794 C 42.164349 11.178276 42.243439 11.258739 42.272728 11.405172 C 42.085613 12.327724 41.789169 13.212741 41.3834 14.060345 C 41.233517 14.314638 41.016167 14.435328 40.731224 14.422414 C 40.974545 13.949069 41.231503 13.466311 41.501976 12.974138 C 41.698696 12.373949 41.87656 11.770452 42.035572 11.163794 Z" stroke="none" fill-rule="evenodd" fill="#1b1524" id="path40"></path>
    </g>
    <g id="g41">
        <path d="M 5.988142 12.612069 C 6.254798 12.682069 6.452419 12.842949 6.581028 13.094828 C 6.314372 13.024827 6.116751 12.863948 5.988142 12.612069 Z" stroke="none" fill-rule="evenodd" fill="#9e6d80" id="path41"></path>
    </g>
    <g id="g42">
        <path d="M 8.596838 12.612069 C 8.833992 12.612069 9.071146 12.612069 9.3083 12.612069 C 9.3083 12.933949 9.3083 13.255707 9.3083 13.577586 C 9.193494 13.323293 9.153961 13.041603 9.189723 12.732759 C 8.962684 12.767035 8.765063 12.726845 8.596838 12.612069 Z" stroke="none" fill-rule="evenodd" fill="#755261" id="path42"></path>
    </g>
    <g id="g43">
        <path d="M 13.695652 9.474138 C 13.896403 9.591799 14.074269 9.752714 14.229249 9.956896 C 14.316877 10.324579 14.415652 10.686647 14.525692 11.043104 C 14.49415 11.538521 14.553439 12.021279 14.703557 12.49138 C 14.800317 12.651052 14.938696 12.731431 15.118577 12.732759 C 15.35834 13.163982 15.615296 13.606551 15.889328 14.060345 C 16.67502 16.096983 17.58415 18.068329 18.6166 19.974138 C 18.704348 20.124878 18.684546 20.245567 18.557312 20.336206 C 18.501225 20.166515 18.382647 20.086018 18.201582 20.094828 C 18.020515 20.103638 17.901937 20.023138 17.84585 19.853447 C 17.567787 19.22514 17.310949 18.581501 17.075098 17.922413 C 16.524427 17.061052 16.030436 16.175915 15.592885 15.267241 C 15.61328 15.147517 15.573675 15.067139 15.474308 15.025862 C 14.687668 13.268742 14.015692 11.458347 13.458498 9.594828 C 13.537589 9.554602 13.616561 9.514364 13.695652 9.474138 Z" stroke="none" fill-rule="evenodd" fill="#f3a4c3" id="path43"></path>
    </g>
    <g id="g44">
        <path d="M 25.316206 12.732759 C 25.643597 12.662155 25.841146 12.782845 25.90909 13.094828 C 25.763359 13.324018 25.625099 13.565397 25.494072 13.818966 C 25.427431 14.104517 25.447115 14.386086 25.55336 14.663794 C 25.089485 15.33857 25.089485 16.022396 25.55336 16.715517 C 25.494072 16.755707 25.434782 16.796019 25.375494 16.836206 C 24.829683 16.62162 24.612331 16.219364 24.72332 15.629311 C 24.779051 14.945121 24.838341 14.261172 24.901186 13.577586 C 24.978617 13.259087 25.116997 12.977397 25.316206 12.732759 Z" stroke="none" fill-rule="evenodd" fill="#0f0610" id="path44"></path>
    </g>
    <g id="g45">
        <path d="M 3.735178 12.974138 C 3.722051 13.048603 3.68253 13.108948 3.616601 13.155172 C 2.827079 13.215517 2.036561 13.235552 1.245059 13.215517 C 2.059458 13.12681 2.889498 13.04631 3.735178 12.974138 Z" stroke="none" fill-rule="evenodd" fill="#452e55" id="path45"></path>
    </g>
    <g id="g46">
        <path d="M 12.509881 12.974138 C 12.628458 12.974138 12.747036 12.974138 12.865613 12.974138 C 12.760198 13.265 12.681225 13.566725 12.628458 13.879311 C 12.677905 14.180793 12.71751 14.482517 12.747036 14.784483 C 12.590277 14.804999 12.451898 14.764811 12.332016 14.663794 C 12.054665 14.047793 12.113953 13.484655 12.509881 12.974138 Z" stroke="none" fill-rule="evenodd" fill="#120713" id="path46"></path>
    </g>
    <g id="g47">
        <path d="M 8.833992 12.25 C 8.452992 12.212586 8.097261 12.252777 7.766798 12.370689 C 7.565312 12.39 7.36768 12.369966 7.173913 12.310345 C 6.713039 11.937016 6.199198 11.675516 5.632411 11.525862 C 5.588407 11.948687 5.706984 12.310706 5.988142 12.612069 C 6.116751 12.863948 6.314372 13.024827 6.581028 13.094828 C 6.813593 13.311104 6.971692 13.572517 7.055336 13.879311 C 7.062533 14.08581 6.98349 14.24669 6.818182 14.362069 C 6.024806 14.4025 5.234301 14.462845 4.44664 14.543103 C 4.42251 14.771207 4.501565 14.952241 4.683794 15.086206 C 5.039526 15.166707 5.395257 15.166707 5.750988 15.086206 C 6.386134 14.742845 7.018542 14.72269 7.648221 15.025862 C 7.73343 15.299104 7.772964 15.580672 7.766798 15.870689 C 7.335427 16.410172 6.841363 16.892931 6.284585 17.318966 C 6.141676 17.725449 6.260253 18.007137 6.640316 18.163794 C 7.321719 17.712294 7.934371 17.169189 8.478261 16.534483 C 8.804953 16.298775 9.160684 16.157932 9.545455 16.112068 C 9.578918 16.266312 9.657972 16.387001 9.782609 16.474138 C 9.581122 16.454826 9.383491 16.474861 9.189723 16.534483 C 8.553581 17.222294 7.88164 17.866053 7.173913 18.465517 C 6.08132 18.80212 5.6663 18.379707 5.928854 17.198277 C 6.290359 16.629103 6.764668 16.186655 7.351779 15.870689 C 7.438245 15.408086 7.240613 15.207017 6.758893 15.267241 C 6.118506 15.475914 5.466332 15.576447 4.802372 15.568966 C 4.449273 15.370552 4.172597 15.088862 3.972332 14.724138 C 4.083723 14.489517 4.241822 14.288327 4.44664 14.120689 C 5.154569 14.003017 5.866032 13.902483 6.581028 13.818966 C 6.301861 13.434206 5.965898 13.112328 5.573123 12.853448 C 5.506589 12.584914 5.388012 12.343534 5.217391 12.129311 C 4.979632 11.285666 5.276075 10.943703 6.106719 11.103449 C 6.501973 11.385054 6.897237 11.666672 7.29249 11.948277 C 7.821925 12.053771 8.335767 12.154293 8.833992 12.25 Z" stroke="none" fill-rule="evenodd" fill="#16121a" id="path47"></path>
    </g>
    <g id="g48">
        <path d="M 34.683796 9.353449 C 34.664112 10.520805 34.683796 11.687479 34.743084 12.853448 C 34.764545 12.467844 34.823833 12.105775 34.920948 11.767241 C 34.848259 12.97269 34.808659 14.179586 34.802372 15.387931 C 35.039524 15.387931 35.27668 15.387931 35.513832 15.387931 C 35.263992 15.504759 34.987232 15.545069 34.683796 15.50862 C 34.703476 14.743207 34.683796 13.978879 34.624504 13.215517 C 34.604111 13.9615 34.544823 14.685637 34.44664 15.387931 C 34.477707 13.355517 34.556797 11.343969 34.683796 9.353449 Z" stroke="none" fill-rule="evenodd" fill="#2d1f39" id="path48"></path>
    </g>
    <g id="g49">
        <path d="M 29.347826 12.49138 C 29.524151 13.268138 29.603243 14.072655 29.58498 14.905172 C 29.584862 15.449845 29.545376 15.972914 29.466404 16.474138 C 29.480515 15.14438 29.441027 13.816793 29.347826 12.49138 Z" stroke="none" fill-rule="evenodd" fill="#382646" id="path49"></path>
    </g>
    <g id="g50">
        <path d="M 15.474308 15.025862 C 15.573675 15.067139 15.61328 15.147517 15.592885 15.267241 C 15.464822 15.658637 15.445021 16.060898 15.533597 16.474138 C 15.756403 16.718775 15.894783 17.000345 15.948617 17.318966 C 15.78581 17.337914 15.627628 17.31776 15.474308 17.258621 C 14.938221 16.700672 14.760355 16.03688 14.940711 15.267241 C 15.0651 15.073293 15.242964 14.992913 15.474308 15.025862 Z" stroke="none" fill-rule="evenodd" fill="#140915" id="path50"></path>
    </g>
    <g id="g51">
        <path d="M 36.343872 14.543103 C 36.343872 14.703982 36.343872 14.864983 36.343872 15.025862 C 36.541542 15.025862 36.73909 15.025862 36.93676 15.025862 C 36.72747 15.141845 36.490314 15.182155 36.225296 15.146552 C 36.19162 14.915431 36.23111 14.714362 36.343872 14.543103 Z" stroke="none" fill-rule="evenodd" fill="#8f9093" id="path51"></path>
    </g>
    <g id="g52">
        <path d="M 39.782608 18.887932 C 39.816284 19.119051 39.776798 19.32012 39.664032 19.491379 C 39.246998 19.259172 38.812176 19.057983 38.359684 18.887932 C 38.145771 18.808033 37.908619 18.767845 37.64822 18.767242 C 37.255257 18.748293 36.899525 18.828672 36.581028 19.008621 C 36.149883 19.041328 35.813835 19.242397 35.573124 19.612068 C 35.553322 19.531569 35.533634 19.451191 35.513832 19.370689 C 35.703678 18.745638 35.802448 18.102001 35.810276 17.439655 C 35.957077 16.984896 36.095333 16.542448 36.225296 16.112068 C 36.336048 15.983173 36.375652 15.822293 36.343872 15.629311 C 36.691067 15.621466 37.007313 15.540966 37.292492 15.387931 C 37.73941 15.186018 38.154427 15.226208 38.537548 15.50862 C 39.169563 16.553188 39.584583 17.679588 39.782608 18.887932 Z" stroke="none" fill-rule="evenodd" fill="#f4f4f5" id="path52"></path>
    </g>
    <g id="g53">
        <path d="M 7.648221 15.025862 C 7.825269 15.123861 7.904324 15.284741 7.885375 15.50862 C 7.883063 15.656586 7.84353 15.777276 7.766798 15.870689 C 7.772964 15.580672 7.73343 15.299104 7.648221 15.025862 Z" stroke="none" fill-rule="evenodd" fill="#654755" id="path53"></path>
    </g>
    <g id="g54">
        <path d="M 22.70751 17.077587 C 22.725178 17.204552 22.705494 17.325241 22.648222 17.439655 C 22.242094 17.51086 22.024744 17.752241 21.996048 18.163794 C 22.162767 18.610826 22.32095 19.053398 22.470356 19.491379 C 22.345612 19.509361 22.227036 19.489326 22.114624 19.431034 C 21.27676 18.693501 21.197668 17.888985 21.87747 17.017242 C 21.687983 16.482948 21.72747 15.980035 21.996048 15.50862 C 22.444742 15.271708 22.662212 15.392397 22.648222 15.870689 C 22.482569 15.95831 22.383675 16.099155 22.351778 16.293102 C 22.445454 16.568516 22.564032 16.829931 22.70751 17.077587 Z" stroke="none" fill-rule="evenodd" fill="#100913" id="path54"></path>
    </g>
    <g id="g55">
        <path d="M 37.292492 15.387931 C 37.007313 15.540966 36.691067 15.621466 36.343872 15.629311 C 36.375652 15.822293 36.336048 15.983173 36.225296 16.112068 C 36.225296 15.910878 36.225296 15.709811 36.225296 15.50862 C 36.578892 15.452742 36.934624 15.412552 37.292492 15.387931 Z" stroke="none" fill-rule="evenodd" fill="#a5a6a9" id="path55"></path>
    </g>
    <g id="g56">
        <path d="M 35.632412 16.594828 C 35.34581 18.295345 35.009762 19.985001 34.624504 21.663794 C 34.527153 22.530224 34.546837 23.375051 34.683796 24.198277 C 34.683796 24.238464 34.683796 24.278776 34.683796 24.318966 C 34.683796 24.721224 34.683796 25.123604 34.683796 25.525862 C 34.486126 25.525862 34.288578 25.525862 34.090908 25.525862 C 33.847469 25.537691 33.649803 25.45719 33.498024 25.284483 C 33.334625 25.195898 33.156761 25.115396 32.964428 25.043104 C 32.868614 24.811016 32.809326 24.569637 32.78656 24.318966 C 33.042809 23.716845 33.299644 23.113396 33.557312 22.508621 C 33.693913 21.4655 33.812492 20.419603 33.913044 19.370689 C 34.185654 18.703033 34.403004 18.019085 34.565216 17.318966 C 34.604706 17.158087 34.644306 16.997086 34.683796 16.836206 C 34.799644 16.499844 34.83913 16.137775 34.802372 15.75 C 35.118614 15.75 35.434746 15.75 35.750988 15.75 C 35.757153 16.040016 35.717667 16.321587 35.632412 16.594828 Z" stroke="none" fill-rule="evenodd" fill="#794e8c" id="path56"></path>
    </g>
    <g id="g57">
        <path d="M 35.632412 16.594828 C 35.717667 16.321587 35.757153 16.040016 35.750988 15.75 C 35.434746 15.75 35.118614 15.75 34.802372 15.75 C 34.83913 16.137775 34.799644 16.499844 34.683796 16.836206 C 34.683796 16.433949 34.683796 16.031569 34.683796 15.629311 C 35.079014 15.629311 35.474346 15.629311 35.869564 15.629311 C 35.888893 15.913775 35.869209 16.195345 35.810276 16.474138 C 35.764862 16.541241 35.705574 16.581432 35.632412 16.594828 Z" stroke="none" fill-rule="evenodd" fill="#4b325b" id="path57"></path>
    </g>
    <g id="g58">
        <path d="M 18.913044 17.198277 C 19.110712 17.198277 19.30826 17.198277 19.505928 17.198277 C 19.423517 17.497345 19.245651 17.738724 18.972332 17.922413 C 18.952528 18.043102 18.932846 18.163794 18.913044 18.284483 C 19.112251 18.687706 19.309801 19.089966 19.505928 19.491379 C 18.940672 19.420414 18.565138 19.098534 18.379446 18.525862 C 18.313875 17.982035 18.491739 17.539465 18.913044 17.198277 Z" stroke="none" fill-rule="evenodd" fill="#140e17" id="path58"></path>
    </g>
    <g id="g59">
        <path d="M 40.731224 16.474138 C 40.843636 17.317518 40.922611 18.182499 40.96838 19.068966 C 40.967907 19.353912 40.928417 19.615326 40.849804 19.853447 C 40.790512 18.727896 40.751026 17.601501 40.731224 16.474138 Z" stroke="none" fill-rule="evenodd" fill="#462e55" id="path59"></path>
    </g>
    <g id="g60">
        <path d="M 38.359684 18.887932 C 37.762413 18.87743 37.169529 18.917622 36.581028 19.008621 C 36.899525 18.828672 37.255257 18.748293 37.64822 18.767242 C 37.908619 18.767845 38.145771 18.808033 38.359684 18.887932 Z" stroke="none" fill-rule="evenodd" fill="#808185" id="path60"></path>
    </g>
    <g id="g61">
        <path d="M 40.375496 17.922413 C 40.533913 19.073551 40.514111 20.240259 40.316204 21.422413 C 40.257156 21.022087 40.23735 20.619827 40.256916 20.215517 C 40.256916 20.175327 40.256916 20.135017 40.256916 20.094828 C 40.374306 19.393621 40.413795 18.669483 40.375496 17.922413 Z" stroke="none" fill-rule="evenodd" fill="#20172c" id="path61"></path>
    </g>
    <g id="g62">
        <path d="M 36.81818 19.25 C 36.93676 19.25 37.055336 19.25 37.173912 19.25 C 37.052727 20.015656 37.250393 20.679447 37.7668 21.241379 C 38.141857 21.532967 38.537075 21.79438 38.952568 22.025862 C 38.024227 22.642706 37.075611 22.662741 36.10672 22.086206 C 35.342609 21.509674 35.204231 20.805691 35.6917 19.974138 C 36.028812 19.652742 36.404228 19.411362 36.81818 19.25 Z" stroke="none" fill-rule="evenodd" fill="#010204" id="path62"></path>
    </g>
    <g id="g63">
        <path d="M 39.071148 19.491379 C 39.127232 19.66107 39.245808 19.74157 39.426876 19.732758 C 39.833004 20.122467 39.991066 20.605225 39.901184 21.181034 C 39.585537 21.394415 39.229805 21.474915 38.833992 21.422413 C 38.514427 21.370155 38.257469 21.209274 38.06324 20.939655 C 37.80249 20.590258 37.624622 20.208155 37.529644 19.793102 C 37.473557 19.402309 37.631618 19.180965 38.003952 19.129311 C 38.372135 19.216328 38.727867 19.337017 39.071148 19.491379 Z" stroke="none" fill-rule="evenodd" fill="#efeff0" id="path63"></path>
    </g>
    <g id="g64">
        <path d="M 39.782608 18.887932 C 39.936401 19.152603 39.936401 19.434292 39.782608 19.732758 C 39.687984 19.677605 39.648495 19.597103 39.664032 19.491379 C 39.776798 19.32012 39.816284 19.119051 39.782608 18.887932 Z" stroke="none" fill-rule="evenodd" fill="#717377" id="path64"></path>
    </g>
    <g id="g65">
        <path d="M 39.071148 19.491379 C 39.252213 19.482569 39.370792 19.563068 39.426876 19.732758 C 39.245808 19.74157 39.127232 19.66107 39.071148 19.491379 Z" stroke="none" fill-rule="evenodd" fill="#58595e" id="path65"></path>
    </g>
    <g id="g66">
        <path d="M 18.201582 20.094828 C 18.382647 20.086018 18.501225 20.166515 18.557312 20.336206 C 18.376245 20.345016 18.257669 20.264519 18.201582 20.094828 Z" stroke="none" fill-rule="evenodd" fill="#7f5869" id="path66"></path>
    </g>
    <g id="g67">
        <path d="M 23.774704 20.577587 C 24.027864 20.534983 24.185928 20.635517 24.249012 20.879311 C 24.110395 21.501587 24.110395 22.125189 24.249012 22.75 C 24.086205 22.768948 23.928024 22.748795 23.774704 22.689655 C 23.318419 21.966122 23.318419 21.262018 23.774704 20.577587 Z" stroke="none" fill-rule="evenodd" fill="#0d0811" id="path67"></path>
    </g>
    <g id="g68">
        <path d="M 39.901184 21.181034 C 39.911385 21.301243 39.87178 21.401775 39.782608 21.482758 C 39.442646 21.57943 39.126404 21.559277 38.833992 21.422413 C 39.229805 21.474915 39.585537 21.394415 39.901184 21.181034 Z" stroke="none" fill-rule="evenodd" fill="#5c5e63" id="path68"></path>
    </g>
    <g id="g69">
        <path d="M 38.715416 24.681034 C 38.058022 25.880327 37.06992 26.322897 35.750988 26.008621 C 35.50008 25.755173 35.302414 25.473604 35.158104 25.163794 C 34.969685 24.220724 34.890591 23.255207 34.920948 22.267242 C 34.907074 22.027794 34.986164 21.826725 35.158104 21.663794 C 35.370117 21.914345 35.567669 22.175879 35.750988 22.448277 C 37.089725 23.21888 38.374268 23.158535 39.604744 22.267242 C 39.57901 22.67119 39.49992 23.073448 39.367588 23.474138 C 39.117153 23.863604 38.899803 24.265862 38.715416 24.681034 Z" stroke="none" fill-rule="evenodd" fill="#f4f4f5" id="path69"></path>
    </g>
    <g id="g70">
        <path d="M 39.664032 23.594828 C 39.734821 23.62319 39.774307 23.683535 39.782608 23.775862 C 39.667355 24.030638 39.568577 24.292171 39.486168 24.560345 C 39.406601 24.651104 39.307827 24.691414 39.189724 24.681034 C 39.316956 24.301586 39.47514 23.939518 39.664032 23.594828 Z" stroke="none" fill-rule="evenodd" fill="#3c284a" id="path70"></path>
    </g>
    <g id="g71">
        <path d="M 30.296442 3.077587 C 29.978893 3.44243 30.057867 3.522894 30.533596 3.318966 C 30.063793 3.63854 29.549881 3.900026 28.992094 4.103449 C 28.428972 4.556747 27.836088 4.959042 27.213438 5.310345 C 26.610119 5.68248 26.076523 6.145119 25.612648 6.698277 C 25.533556 6.939655 25.533556 7.181034 25.612648 7.422413 C 27.433399 8.600357 29.389921 9.46529 31.482214 10.017241 C 31.641226 10.237682 31.581938 10.378477 31.304348 10.439655 C 30.591938 10.132801 29.860672 9.89142 29.110672 9.715517 C 29.167471 10.642908 29.246443 11.568199 29.347826 12.49138 C 29.441027 13.816793 29.480515 15.14438 29.466404 16.474138 C 29.399643 17.013741 29.261265 17.53669 29.051384 18.043102 C 28.379406 18.887932 27.70755 19.732758 27.035574 20.577587 C 26.719328 20.818966 26.403202 21.060345 26.086956 21.301723 C 26.007864 21.543102 26.007864 21.784483 26.086956 22.025862 C 27.200277 22.712105 28.326759 23.375896 29.466404 24.017242 C 30.387985 24.948965 31.494665 25.451878 32.78656 25.525862 C 32.721462 25.236086 32.622688 24.954397 32.49012 24.681034 C 32.41103 24.439655 32.41103 24.198277 32.49012 23.956898 C 32.82 23.300827 33.096638 22.617001 33.32016 21.905172 C 33.363796 20.253654 33.699722 18.684689 34.328064 17.198277 C 34.312294 17.611637 34.391262 17.651827 34.565216 17.318966 C 34.403004 18.019085 34.185654 18.703033 33.913044 19.370689 C 33.812492 20.419603 33.693913 21.4655 33.557312 22.508621 C 33.299644 23.113396 33.042809 23.716845 32.78656 24.318966 C 32.809326 24.569637 32.868614 24.811016 32.964428 25.043104 C 33.156761 25.115396 33.334625 25.195898 33.498024 25.284483 C 33.339958 25.284483 33.181778 25.284483 33.023716 25.284483 C 33.023716 25.405172 33.023716 25.525862 33.023716 25.646551 C 32.362411 25.71607 31.73004 25.877069 31.126482 26.129311 C 31.350475 26.030102 31.587629 25.929569 31.837944 25.827587 C 29.901226 24.741379 27.964386 23.655172 26.027668 22.568966 C 25.835691 22.258673 25.677629 21.936792 25.55336 21.603449 C 26.401779 20.659294 27.251621 19.71393 28.102766 18.767242 C 28.418419 18.208447 28.734547 17.645191 29.051384 17.077587 C 29.261028 15.667448 29.28083 14.259362 29.110672 12.853448 C 29.050316 11.756971 28.912054 10.670765 28.695652 9.594828 C 28.259644 9.319353 27.80514 9.077974 27.332016 8.870689 C 26.803991 8.541327 26.250593 8.239603 25.671936 7.965517 C 25.218143 7.566311 25.079762 7.063435 25.256916 6.456896 C 25.596048 6.215311 25.89249 5.933708 26.146246 5.612068 C 27.495533 4.699522 28.878853 3.854694 30.296442 3.077587 Z" stroke="none" fill-rule="evenodd" fill="#15101c" id="path71"></path>
    </g>
    <g id="g72">
        <path d="M 29.58498 20.215517 C 29.977234 20.152035 30.234072 20.312916 30.355732 20.698277 C 30.7034 21.37981 30.841778 22.103949 30.77075 22.870689 C 30.350277 22.863567 29.955059 22.763035 29.58498 22.568966 C 29.102728 22.155243 28.56913 21.853518 27.98419 21.663794 C 27.909485 21.373775 28.008261 21.152431 28.280632 21 C 28.653912 20.870136 29.009644 20.709259 29.347826 20.517242 C 29.452291 20.431793 29.531265 20.331137 29.58498 20.215517 Z" stroke="none" fill-rule="evenodd" fill="#15111a" id="path72"></path>
    </g>
    <g id="g73">
        <path d="M 30.296442 22.146551 C 30.322411 22.288363 30.282925 22.409052 30.177866 22.508621 C 30.10589 22.493656 30.066402 22.453465 30.059288 22.387932 C 30.13838 22.30743 30.21735 22.227053 30.296442 22.146551 Z" opacity="0.992" stroke="none" fill-rule="evenodd" fill="#7b5666" id="path73"></path>
    </g>
    <g id="g74">
        <path d="M 30.296442 22.146551 C 30.21735 22.227053 30.13838 22.30743 30.059288 22.387932 C 29.537668 21.961535 28.944782 21.659809 28.280632 21.482758 C 28.690672 21.267208 29.125374 21.106327 29.58498 21 C 29.923992 20.646381 30.141344 20.746914 30.237154 21.301723 C 30.296085 21.580517 30.315769 21.862087 30.296442 22.146551 Z" stroke="none" fill-rule="evenodd" fill="#e99fb9" id="path74"></path>
    </g>
    <g id="g75">
        <path d="M 35.158104 25.163794 C 35.302414 25.473604 35.50008 25.755173 35.750988 26.008621 C 35.324944 25.896379 35.127392 25.614811 35.158104 25.163794 Z" stroke="none" fill-rule="evenodd" fill="#a4a5a8" id="path75"></path>
    </g>
    <g id="g76">
        <path d="M 39.3083 25.163794 C 39.7985 25.282673 40.312408 25.322861 40.849804 25.284483 C 40.239132 25.423397 39.60664 25.443432 38.952568 25.344828 C 39.040791 25.219431 39.159367 25.159086 39.3083 25.163794 Z" stroke="none" fill-rule="evenodd" fill="#4f345f" id="path76"></path>
    </g>
    <g id="g77">
        <path d="M 34.683796 24.318966 C 34.800358 24.777346 34.839958 25.260103 34.802372 25.767242 C 34.531303 25.755775 34.294147 25.675278 34.090908 25.525862 C 34.288578 25.525862 34.486126 25.525862 34.683796 25.525862 C 34.683796 25.123604 34.683796 24.721224 34.683796 24.318966 Z" stroke="none" fill-rule="evenodd" fill="#483058" id="path77"></path>
    </g>
</svg>
