<svg version="1.1" xmlns="http://www.w3.org/2000/svg" xmlns:xlink="http://www.w3.org/1999/xlink" width="418.82037" height="339.7115"><g transform="translate(-230.73212,-164.32)"><g data-paper-data="{&quot;isPaintingLayer&quot;:true}" fill="none" fill-rule="none" stroke="none" stroke-width="1" stroke-linecap="square" stroke-linejoin="miter" stroke-miterlimit="10" stroke-dasharray="" stroke-dashoffset="0" font-family="none" font-weight="none" font-size="none" text-anchor="none" style="mix-blend-mode: normal"><path d="M598.21393,419.81105h51.33856v84.22046h-51.33856z" fill-opacity="0" fill="#000000" fill-rule="evenodd"/><path d="M633.15143,470.25105c-1.20833,1.4375 -2.65104,2.59375 -4.32812,3.46875c-1.67708,0.875 -3.51562,1.3125 -5.51562,1.3125c-2.625,0 -4.91146,-0.64583 -6.85937,-1.9375c-1.94792,-1.29167 -3.45312,-3.10937 -4.51562,-5.45312c-1.0625,-2.34375 -1.59375,-4.93229 -1.59375,-7.76562c0,-3.04167 0.57813,-5.78125 1.73438,-8.21875c1.15625,-2.4375 2.79688,-4.30208 4.92188,-5.59375c2.125,-1.29167 4.60417,-1.9375 7.4375,-1.9375c4.5,0 8.04688,1.68229 10.64063,5.04688c2.59375,3.36458 3.89063,7.95313 3.89063,13.76563v1.6875c0,8.85417 -1.75,15.31771 -5.25,19.39063c-3.5,4.07292 -8.78125,6.16146 -15.84375,6.26563h-1.125v-4.875h1.21875c4.77083,-0.08333 8.4375,-1.32812 11,-3.73437c2.5625,-2.40625 3.95833,-6.21354 4.1875,-11.42187zM624.24518,470.25105c1.9375,0 3.72396,-0.59375 5.35938,-1.78125c1.63542,-1.1875 2.82813,-2.65625 3.57813,-4.40625v-2.3125c0,-3.79167 -0.82292,-6.875 -2.46875,-9.25c-1.64583,-2.375 -3.72917,-3.5625 -6.25,-3.5625c-2.54167,0 -4.58333,0.97396 -6.125,2.92188c-1.54167,1.94792 -2.3125,4.51563 -2.3125,7.70313c0,3.10417 0.74479,5.66146 2.23438,7.67188c1.48958,2.01042 3.48438,3.01563 5.98438,3.01563z" fill="#000000" fill-rule="nonzero"/><path d="M245.63971,164.32001v1.14951c-4.2867,0 -7.61548,1.26924 -9.98634,3.80774c-2.3469,2.51455 -3.60419,6.05887 -3.77181,10.63294c0.81424,-1.43688 1.98768,-2.57441 3.52037,-3.41259c1.53268,-0.86213 3.20903,-1.2932 5.02909,-1.2932c2.68219,0 4.82554,0.922 6.43007,2.76601c1.60453,1.82006 2.40679,4.22683 2.40679,7.22035c0,1.93979 -0.3712,3.71194 -1.11357,5.31647c-0.71844,1.60453 -1.74822,2.87377 -3.0893,3.80774c-1.31715,0.91002 -2.78995,1.36504 -4.41841,1.36504c-1.86795,0 -3.55628,-0.43107 -5.065,-1.2932c-1.50873,-0.88609 -2.69415,-2.13137 -3.55628,-3.7359c-0.83817,-1.60453 -1.26924,-3.42457 -1.2932,-5.46016v-3.77181c0,-5.41227 1.26924,-9.61514 3.80774,-12.60864c2.56244,-2.9935 6.26242,-4.49025 11.09994,-4.49025zM240.2873,176.35392c-1.96375,0 -3.75985,0.56278 -5.38831,1.68835c-1.60453,1.10162 -2.6223,2.50257 -3.05337,4.2029v2.69417c0,2.87377 0.81424,5.19674 2.4427,6.96889c1.65242,1.77215 3.77183,2.65824 6.35822,2.65824c2.15533,0 3.93945,-0.89804 5.3524,-2.69415c1.41293,-1.82006 2.11942,-4.04723 2.11942,-6.68151c0,-2.70612 -0.69449,-4.84947 -2.08348,-6.43004c-1.389,-1.60453 -3.30483,-2.40677 -5.74754,-2.40677z" data-paper-data="{&quot;origPos&quot;:null}" fill="#ffffff" fill-rule="nonzero"/></g></g></svg>