<svg version="1.1" xmlns="http://www.w3.org/2000/svg" xmlns:xlink="http://www.w3.org/1999/xlink" width="418.37136" height="339.49599"><g transform="translate(-231.18113,-164.53551)"><g data-paper-data="{&quot;isPaintingLayer&quot;:true}" fill="none" fill-rule="none" stroke="none" stroke-width="1" stroke-linecap="square" stroke-linejoin="miter" stroke-miterlimit="10" stroke-dasharray="" stroke-dashoffset="0" font-family="none" font-weight="none" font-size="none" text-anchor="none" style="mix-blend-mode: normal"><path d="M598.21393,419.81104h51.33856v84.22046h-51.33856z" fill-opacity="0" fill="#000000" fill-rule="evenodd"/><path d="M633.15143,470.25104c-1.20833,1.4375 -2.65104,2.59375 -4.32812,3.46875c-1.67708,0.875 -3.51562,1.3125 -5.51562,1.3125c-2.625,0 -4.91146,-0.64583 -6.85937,-1.9375c-1.94792,-1.29167 -3.45312,-3.10937 -4.51562,-5.45312c-1.0625,-2.34375 -1.59375,-4.93229 -1.59375,-7.76562c0,-3.04167 0.57813,-5.78125 1.73438,-8.21875c1.15625,-2.4375 2.79688,-4.30208 4.92188,-5.59375c2.125,-1.29167 4.60417,-1.9375 7.4375,-1.9375c4.5,0 8.04688,1.68229 10.64063,5.04688c2.59375,3.36458 3.89063,7.95313 3.89063,13.76563v1.6875c0,8.85417 -1.75,15.31771 -5.25,19.39063c-3.5,4.07292 -8.78125,6.16146 -15.84375,6.26563h-1.125v-4.875h1.21875c4.77083,-0.08333 8.4375,-1.32812 11,-3.73437c2.5625,-2.40625 3.95833,-6.21354 4.1875,-11.42187zM624.24518,470.25104c1.9375,0 3.72396,-0.59375 5.35938,-1.78125c1.63542,-1.1875 2.82813,-2.65625 3.57813,-4.40625v-2.3125c0,-3.79167 -0.82292,-6.875 -2.46875,-9.25c-1.64583,-2.375 -3.72917,-3.5625 -6.25,-3.5625c-2.54167,0 -4.58333,0.97396 -6.125,2.92188c-1.54167,1.94792 -2.3125,4.51563 -2.3125,7.70313c0,3.10417 0.74479,5.66146 2.23438,7.67188c1.48958,2.01042 3.48438,3.01563 5.98438,3.01563z" fill="#000000" fill-rule="nonzero"/><path d="M232.2228,179.08395l1.40097,-14.54844h14.87175v1.1136h-13.83l-1.25726,12.24945c0.7424,-0.62264 1.71228,-1.11357 2.9097,-1.47279c1.1974,-0.38318 2.35888,-0.57475 3.48445,-0.57475c2.75404,0 4.94527,0.87411 6.57376,2.62232c1.62846,1.72426 2.4427,3.99932 2.4427,6.8252c0,3.32879 -0.7424,5.85531 -2.22717,7.57957c-1.48477,1.72426 -3.60419,2.58639 -6.3582,2.58639c-2.61035,0 -4.71776,-0.7424 -6.32229,-2.22717c-1.60453,-1.50873 -2.51455,-3.58023 -2.73008,-6.21451h1.14951c0.23949,2.37086 1.0178,4.17894 2.33495,5.42425c1.34108,1.24531 3.19708,1.86795 5.56794,1.86795c2.51455,0 4.3825,-0.75435 5.60385,-2.26308c1.22135,-1.50873 1.83204,-3.7359 1.83204,-6.68151c0,-2.5385 -0.70646,-4.57407 -2.11939,-6.10676c-1.41293,-1.53268 -3.31681,-2.29901 -5.7116,-2.29901c-1.46084,0 -2.74206,0.20355 -3.84365,0.61069c-1.07766,0.38318 -2.04755,0.99384 -2.90968,1.83204z" data-paper-data="{&quot;origPos&quot;:null}" fill="#ffffff" fill-rule="nonzero"/></g></g></svg>