<svg version="1.1" xmlns="http://www.w3.org/2000/svg" xmlns:xlink="http://www.w3.org/1999/xlink" width="419.01795" height="339.71152"><g transform="translate(-230.53454,-164.31998)"><g data-paper-data="{&quot;isPaintingLayer&quot;:true}" fill="none" fill-rule="none" stroke="none" stroke-width="1" stroke-linecap="square" stroke-linejoin="miter" stroke-miterlimit="10" stroke-dasharray="" stroke-dashoffset="0" font-family="none" font-weight="none" font-size="none" text-anchor="none" style="mix-blend-mode: normal"><path d="M598.21393,419.81104h51.33856v84.22046h-51.33856z" fill-opacity="0" fill="#000000" fill-rule="evenodd"/><path d="M633.15143,470.25104c-1.20833,1.4375 -2.65104,2.59375 -4.32812,3.46875c-1.67708,0.875 -3.51562,1.3125 -5.51562,1.3125c-2.625,0 -4.91146,-0.64583 -6.85937,-1.9375c-1.94792,-1.29167 -3.45312,-3.10937 -4.51562,-5.45312c-1.0625,-2.34375 -1.59375,-4.93229 -1.59375,-7.76562c0,-3.04167 0.57813,-5.78125 1.73438,-8.21875c1.15625,-2.4375 2.79688,-4.30208 4.92188,-5.59375c2.125,-1.29167 4.60417,-1.9375 7.4375,-1.9375c4.5,0 8.04688,1.68229 10.64063,5.04688c2.59375,3.36458 3.89063,7.95313 3.89063,13.76563v1.6875c0,8.85417 -1.75,15.31771 -5.25,19.39063c-3.5,4.07292 -8.78125,6.16146 -15.84375,6.26563h-1.125v-4.875h1.21875c4.77083,-0.08333 8.4375,-1.32812 11,-3.73437c2.5625,-2.40625 3.95833,-6.21354 4.1875,-11.42187zM624.24518,470.25104c1.9375,0 3.72396,-0.59375 5.35938,-1.78125c1.63542,-1.1875 2.82813,-2.65625 3.57813,-4.40625v-2.3125c0,-3.79167 -0.82292,-6.875 -2.46875,-9.25c-1.64583,-2.375 -3.72917,-3.5625 -6.25,-3.5625c-2.54167,0 -4.58333,0.97396 -6.125,2.92188c-1.54167,1.94792 -2.3125,4.51563 -2.3125,7.70313c0,3.10417 0.74479,5.66146 2.23438,7.67188c1.48958,2.01042 3.48438,3.01563 5.98438,3.01563z" fill="#000000" fill-rule="nonzero"/><path d="M237.10817,179.11981h2.55048c2.39481,-0.04789 4.32263,-0.68251 5.78345,-1.90386c1.48477,-1.22135 2.22717,-2.78995 2.22717,-4.70578c0,-2.15533 -0.65858,-3.86761 -1.9757,-5.13685c-1.31713,-1.26924 -3.14917,-1.90386 -5.49607,-1.90386c-2.29901,0 -4.19092,0.67055 -5.67569,2.01164c-1.46084,1.34108 -2.19124,3.10128 -2.19124,5.28056h-1.14951c0,-1.62846 0.38318,-3.07732 1.14951,-4.34656c0.79029,-1.2932 1.87993,-2.29901 3.26892,-3.01746c1.389,-0.71844 2.92166,-1.07766 4.59803,-1.07766c2.63428,0 4.71776,0.75438 6.25044,2.2631c1.55662,1.48477 2.33495,3.49641 2.33495,6.03491c0,1.60453 -0.51489,3.05339 -1.54464,4.34659c-1.00582,1.26924 -2.38284,2.1673 -4.13103,2.69417c1.98768,0.45502 3.5443,1.31715 4.66987,2.58639c1.12555,1.26924 1.68835,2.9097 1.68835,4.92134c0,2.58639 -0.83817,4.65789 -2.51455,6.21453c-1.65242,1.53268 -3.84365,2.29901 -6.57373,2.29901c-1.84399,0 -3.54432,-0.39513 -5.10094,-1.18542c-1.55662,-0.81424 -2.74206,-1.86795 -3.55628,-3.16114c-0.79029,-1.31715 -1.18542,-2.83783 -1.18542,-4.56209h1.14951c0,2.22717 0.81424,4.08314 2.4427,5.56794c1.65242,1.46084 3.7359,2.19126 6.25044,2.19126c2.49059,0 4.44236,-0.6466 5.85529,-1.93979c1.41293,-1.2932 2.11942,-3.07732 2.11942,-5.35238c0,-2.25113 -0.75435,-3.96341 -2.26308,-5.13685c-1.50873,-1.1974 -3.69996,-1.7961 -6.57373,-1.7961h-2.40677z" data-paper-data="{&quot;origPos&quot;:null}" fill="#ffffff" fill-rule="nonzero"/></g></g></svg>