<svg version="1.1" xmlns="http://www.w3.org/2000/svg" xmlns:xlink="http://www.w3.org/1999/xlink" width="419.05391" height="339.49593"><g transform="translate(-230.49858,-164.53557)"><g data-paper-data="{&quot;isPaintingLayer&quot;:true}" fill="none" fill-rule="none" stroke="none" stroke-width="1" stroke-linecap="square" stroke-linejoin="miter" stroke-miterlimit="10" stroke-dasharray="" stroke-dashoffset="0" font-family="none" font-weight="none" font-size="none" text-anchor="none" style="mix-blend-mode: normal"><path d="M598.21393,419.81104h51.33856v84.22046h-51.33856z" fill-opacity="0" fill="#000000" fill-rule="evenodd"/><path d="M633.15143,470.25104c-1.20833,1.4375 -2.65104,2.59375 -4.32812,3.46875c-1.67708,0.875 -3.51562,1.3125 -5.51562,1.3125c-2.625,0 -4.91146,-0.64583 -6.85937,-1.9375c-1.94792,-1.29167 -3.45312,-3.10937 -4.51562,-5.45312c-1.0625,-2.34375 -1.59375,-4.93229 -1.59375,-7.76562c0,-3.04167 0.57813,-5.78125 1.73438,-8.21875c1.15625,-2.4375 2.79688,-4.30208 4.92188,-5.59375c2.125,-1.29167 4.60417,-1.9375 7.4375,-1.9375c4.5,0 8.04688,1.68229 10.64063,5.04688c2.59375,3.36458 3.89063,7.95313 3.89063,13.76563v1.6875c0,8.85417 -1.75,15.31771 -5.25,19.39063c-3.5,4.07292 -8.78125,6.16146 -15.84375,6.26563h-1.125v-4.875h1.21875c4.77083,-0.08333 8.4375,-1.32812 11,-3.73437c2.5625,-2.40625 3.95833,-6.21354 4.1875,-11.42187zM624.24518,470.25104c1.9375,0 3.72396,-0.59375 5.35938,-1.78125c1.63542,-1.1875 2.82813,-2.65625 3.57813,-4.40625v-2.3125c0,-3.79167 -0.82292,-6.875 -2.46875,-9.25c-1.64583,-2.375 -3.72917,-3.5625 -6.25,-3.5625c-2.54167,0 -4.58333,0.97396 -6.125,2.92188c-1.54167,1.94792 -2.3125,4.51563 -2.3125,7.70313c0,3.10417 0.74479,5.66146 2.23438,7.67188c1.48958,2.01042 3.48438,3.01563 5.98438,3.01563z" fill="#000000" fill-rule="nonzero"/><path d="M249.50132,195.46443h-18.24842v-1.11357l10.41741,-12.03389c1.7003,-1.98768 2.95759,-3.74788 3.77183,-5.28054c0.83817,-1.55662 1.25728,-2.9935 1.25728,-4.31065c0,-2.22717 -0.6466,-3.95143 -1.93979,-5.17278c-1.2932,-1.24531 -3.12521,-1.86795 -5.49607,-1.86795c-1.41293,0 -2.70612,0.34724 -3.87959,1.04175c-1.17346,0.67055 -2.09546,1.61651 -2.76599,2.83786c-0.6466,1.1974 -0.96989,2.5385 -0.96989,4.02327h-1.14951c0,-1.62846 0.3712,-3.13719 1.1136,-4.52618c0.76633,-1.41293 1.82006,-2.51455 3.16114,-3.30483c1.34108,-0.81424 2.83786,-1.22135 4.49027,-1.22135c2.73008,0 4.84949,0.73042 6.35822,2.19126c1.50873,1.43688 2.2631,3.43654 2.2631,5.999c0,2.39481 -1.34108,5.24463 -4.02327,8.54946l-1.90386,2.29901l-9.19606,10.77663h16.7397z" data-paper-data="{&quot;origPos&quot;:null}" fill="#ffffff" fill-rule="nonzero"/></g></g></svg>