<svg xmlns="http://www.w3.org/2000/svg" viewBox="0 0 60 32" height="32" width="60">
    <g id="Group">
        <path d="M 45.218445 31.926268 C 45.121311 31.926268 45.024319 31.926268 44.927185 31.926268 C 44.878689 31.729696 44.830051 31.729696 44.781555 31.926268 C 44.684418 31.926268 44.587425 31.926268 44.490292 31.926268 C 43.435631 31.568811 42.343399 31.27388 41.213593 31.041475 C 40.153252 31.183189 39.085339 31.429014 38.009708 31.778801 C 37.36631 31.744738 36.662476 31.720257 35.89806 31.705069 C 34.902378 31.582672 33.955776 31.31237 33.058254 30.894009 C 33.009758 30.943113 32.961117 30.992371 32.912621 31.041475 C 31.954807 30.593327 31.008205 30.126451 30.072815 29.640553 C 27.178835 27.610397 24.217718 25.693346 21.18932 23.8894 C 18.249758 22.384075 15.26432 21.671225 12.233009 21.751152 C 11.876637 21.884758 11.512559 22.007595 11.140777 22.119816 C 9.721238 23.337879 8.119296 24.198046 6.334951 24.70046 C 4.231136 24.364386 3.478718 23.184662 4.07767 21.161289 C 4.635917 20.497696 5.19418 19.834103 5.752427 19.170506 C 4.529942 19.151485 3.316355 19.053123 2.11165 18.875576 C 0.948293 18.36623 0.220137 17.55517 -0.072816 16.442396 C -0.072816 16.196571 -0.072816 15.950893 -0.072816 15.705069 C 0.233016 15.32107 0.572821 14.952406 0.946602 14.599079 C 1.857204 14.421486 2.779544 14.32317 3.713592 14.304148 C 2.06167 13.044687 1.624777 11.447138 2.402913 9.51152 C 2.796495 9.066278 3.281927 8.771347 3.859223 8.626728 C 4.690733 8.684196 5.515981 8.905396 6.334951 9.290323 C 7.111646 9.880184 7.888354 10.470047 8.665049 11.059908 C 9.341504 11.353836 9.996844 11.575033 10.631068 11.723503 C 12.347432 11.49369 14.022189 11.07588 15.65534 10.470047 C 17.900679 9.327629 20.036652 8.000441 22.063107 6.48848 C 25.169708 4.653374 28.349417 3.203302 31.601942 2.138248 C 31.650436 2.187399 31.69908 2.236565 31.747572 2.285715 C 33.13398 1.880714 34.493156 1.585785 35.825241 1.400921 C 35.873737 1.450075 35.922379 1.499237 35.970875 1.548388 C 36.893154 1.400921 37.815582 1.253456 38.737865 1.105991 C 39.222088 1.136633 39.707474 1.185787 40.194176 1.253456 C 40.976505 1.028549 41.801796 0.831928 42.669903 0.663595 C 47.013493 0.524851 51.212475 1.532536 55.266991 3.686636 C 56.740192 5.710451 57.783932 7.89785 58.39806 10.248848 C 59.327621 13.985844 59.448933 17.746286 58.762135 21.529953 C 58.75034 22.702747 58.45908 23.833363 57.888348 24.921659 C 57.375149 26.684755 56.404221 28.208517 54.975727 29.493088 C 53.989513 29.861456 52.9216 30.107134 51.771843 30.230415 C 51.245388 30.338358 50.760002 30.534931 50.315533 30.820276 C 49.209614 30.959335 48.093201 31.057695 46.966019 31.115208 C 46.362522 31.374599 45.779999 31.644903 45.218445 31.926268 Z" opacity="0.809" stroke="none" fill-rule="evenodd" fill="#09070f" id="Path"></path>
    </g>
    <g id="g1">
        <path d="M 52.35437 10.543779 C 52.402424 12.326797 52.30529 14.096384 52.063107 15.852535 C 51.613979 17.757492 51.225582 19.674543 50.89806 21.603687 C 50.673931 22.625919 50.576797 23.682655 50.606796 24.774193 C 50.606941 25.562248 50.655437 26.324203 50.752426 27.059908 C 51.53476 29.459023 50.70961 30.540388 48.276699 30.304148 C 48.149124 30.323465 48.051991 30.274361 47.985435 30.156681 C 48.225582 29.839632 48.492523 29.544701 48.786407 29.271889 C 49.352768 27.992479 49.765484 26.665291 50.024273 25.290323 C 50.301262 24.166342 50.349903 23.035725 50.169903 21.898617 C 50.054565 21.068386 50.006069 20.2327 50.024273 19.391705 C 49.830143 19.391705 49.635876 19.391705 49.441746 19.391705 C 49.441746 19.588276 49.441746 19.784996 49.441746 19.981567 C 49.48864 20.845421 49.440147 21.681105 49.296116 22.48848 C 49.026409 20.773014 48.39539 19.224628 47.402912 17.843319 C 49.70665 16.743374 50.944515 14.900055 51.116505 12.313364 C 51.348057 10.288073 51.153931 8.321875 50.533981 6.414747 C 50.393448 6.155163 50.223495 6.105997 50.024273 6.267281 C 50.43961 7.206768 50.682381 8.189863 50.752426 9.216589 C 50.798592 9.83618 50.74995 10.426043 50.606796 10.986176 C 49.81966 7.756521 47.780827 6.060669 44.490292 5.898617 C 44.420967 9.500212 44.323982 13.113115 44.199028 16.737328 C 44.057331 17.098322 44.008835 17.491611 44.053398 17.917049 C 43.619125 17.985327 43.182232 18.034431 42.742718 18.064516 C 42.742718 17.228828 42.742718 16.393291 42.742718 15.557604 C 42.831699 13.789419 42.904514 12.019833 42.961166 10.248848 C 43.222134 8.684475 43.440582 7.111506 43.616505 5.529953 C 43.470875 5.529953 43.325241 5.529953 43.179611 5.529953 C 43.078838 6.656839 43.00602 7.787413 42.961166 8.921659 C 42.886749 9.272362 42.789612 9.616444 42.669903 9.953917 C 42.618786 12.663963 42.497478 15.367521 42.305824 18.064516 C 41.088058 18.088848 39.874512 18.039742 38.665047 17.917049 C 38.665047 18.064516 38.665047 18.211983 38.665047 18.359447 C 39.873783 18.487888 41.08733 18.537144 42.305824 18.506912 C 42.329857 19.000923 42.305531 19.492424 42.233009 19.981567 C 41.331699 21.938875 40.894806 24.003391 40.922329 26.175116 C 40.711746 26.933086 40.37199 27.621162 39.902912 28.239632 C 39.805779 28.731133 39.805779 29.222784 39.902912 29.714285 C 39.958687 29.796276 40.031506 29.845383 40.121361 29.861752 C 40.228252 30.039888 40.276745 30.236462 40.266991 30.451612 C 39.655338 30.497326 39.072815 30.398968 38.519417 30.156681 C 37.674175 29.626692 36.800388 29.110563 35.89806 28.608295 C 34.894806 27.901936 33.826748 27.262968 32.694176 26.691244 C 32.042767 26.42964 31.775826 25.962765 31.893204 25.290323 C 32.099854 25.148754 32.318302 25.025917 32.548542 24.921659 C 33.856602 23.548607 34.99733 22.049328 35.970875 20.423964 C 36.24757 19.436386 36.36903 18.428757 36.334953 17.400921 C 36.14563 15.312368 35.951504 13.223314 35.752426 11.13364 C 36.68869 11.309258 37.61097 11.555023 38.519417 11.870968 C 38.820728 11.823158 38.869225 11.700275 38.665047 11.502304 C 36.925049 10.980453 35.225971 10.341429 33.567963 9.585253 C 33.001896 9.126503 32.370872 8.782406 31.674757 8.552996 C 31.405777 8.172667 31.332962 7.754854 31.45631 7.29954 C 33.18961 5.908379 35.009998 4.679504 36.917477 3.612904 C 37.587379 3.322529 38.218544 2.953865 38.81068 2.506912 C 39.657814 2.220875 40.48296 1.876778 41.286407 1.474655 C 45.350388 1.128323 49.233784 1.791912 52.936893 3.465437 C 52.640968 3.888384 52.374031 4.33078 52.135921 4.792627 C 52.242378 6.704826 52.315193 8.621878 52.35437 10.543779 Z" stroke="none" fill-rule="evenodd" fill="#7a4e8e" id="path1"></path>
    </g>
    <g id="g2">
        <path d="M 38.665047 2.138248 C 38.57811 2.044079 38.456799 1.994913 38.300972 1.990784 C 37.364269 2.19132 36.417667 2.289623 35.461166 2.285715 C 36.685192 1.951485 37.947376 1.828587 39.247574 1.917051 C 39.066261 2.033754 38.872135 2.107487 38.665047 2.138248 Z" stroke="none" fill-rule="evenodd" fill="#563967" id="path2"></path>
    </g>
    <g id="g3">
        <path d="M 38.665047 2.138248 C 38.214901 2.356098 37.778008 2.601866 37.35437 2.875576 C 35.536892 3.819414 33.789322 4.900824 32.111652 6.119816 C 31.958155 5.254311 31.691214 4.418669 31.31068 3.612904 C 31.203058 3.454494 31.057428 3.35618 30.873787 3.317972 C 30.616602 3.42614 30.349661 3.475288 30.072815 3.465437 C 31.799417 2.819923 33.595631 2.426691 35.461166 2.285715 C 36.417667 2.289623 37.364269 2.19132 38.300972 1.990784 C 38.456799 1.994913 38.57811 2.044079 38.665047 2.138248 Z" stroke="none" fill-rule="evenodd" fill="#7a4e8d" id="path3"></path>
    </g>
    <g id="g4">
        <path d="M 32.111652 6.119816 C 31.744514 6.444387 31.380438 6.788469 31.019417 7.152073 C 30.91733 7.657629 30.965826 8.149191 31.165049 8.626728 C 31.961069 9.132299 32.762039 9.623846 33.567963 10.101383 C 34.021313 11.166866 34.433884 12.248287 34.805824 13.345623 C 35.163639 13.876204 35.479221 14.416901 35.752426 14.967741 C 35.915535 16.533825 35.939854 18.106838 35.825241 19.686636 C 35.53791 20.563908 35.101017 21.350491 34.514565 22.046082 C 33.626942 23.252941 32.607525 24.334305 31.45631 25.290323 C 31.434467 26.056702 31.750048 26.671188 32.402912 27.13364 C 33.153057 27.439779 33.881214 27.783964 34.587379 28.165899 C 35.716457 28.947466 36.881504 29.660166 38.082523 30.304148 C 38.408882 30.469456 38.748787 30.641401 39.10194 30.820276 C 37.337914 31.335373 35.59034 31.286119 33.859222 30.672812 C 33.35199 30.559999 32.915096 30.338802 32.548542 30.009216 C 32.176601 29.352701 31.76403 28.713585 31.31068 28.092167 C 30.708931 26.82765 30.150581 25.549715 29.635921 24.258064 C 29.136116 22.835907 28.553591 21.459465 27.88835 20.129032 C 27.659708 19.829823 27.514076 19.485788 27.451456 19.096775 C 27.660728 18.790489 27.757864 18.446451 27.742718 18.064516 C 27.548594 18.064516 27.354319 18.064516 27.160194 18.064516 C 25.802767 15.280369 24.686359 12.380167 23.81068 9.364056 C 23.935194 9.212063 24.032331 9.040014 24.101942 8.847927 C 24.091747 8.735144 24.043253 8.661411 23.95631 8.626728 C 23.778933 8.529194 23.584806 8.43088 23.373787 8.331797 C 23.274466 7.909233 23.080193 7.540569 22.791262 7.225807 C 22.919563 7.121357 23.016554 6.998474 23.082523 6.857143 C 25.27733 5.477737 27.607428 4.347164 30.072815 3.465437 C 30.349661 3.475288 30.616602 3.42614 30.873787 3.317972 C 31.057428 3.35618 31.203058 3.454494 31.31068 3.612904 C 31.691214 4.418669 31.958155 5.254311 32.111652 6.119816 Z" stroke="none" fill-rule="evenodd" fill="#9d439e" id="path4"></path>
    </g>
    <g id="g5">
        <path d="M 53.95631 29.124424 C 53.802231 28.962212 53.680779 28.765491 53.592232 28.534561 C 53.495098 27.698875 53.495098 26.863338 53.592232 26.027649 C 54.356068 23.621899 54.938591 21.16424 55.339806 18.654377 C 55.7617 15.909309 55.810337 13.156673 55.485435 10.396313 C 55.257236 9.127033 54.917477 7.898161 54.466019 6.709677 C 54.531845 7.995518 54.726116 9.27354 55.048542 10.543779 C 55.463741 14.527321 55.172478 18.459724 54.174759 22.341015 C 53.156651 24.568333 52.889709 26.878527 53.373787 29.271889 C 52.752815 29.248884 52.170292 29.347244 51.626213 29.56682 C 51.393349 28.778618 51.223541 27.942932 51.116505 27.059908 C 51.019371 25.536148 51.019371 24.012238 51.116505 22.48848 C 51.670776 19.774082 52.2533 17.070599 52.864079 14.37788 C 52.956844 11.541088 52.835388 8.714678 52.5 5.898617 C 52.374466 5.072577 52.617085 4.384399 53.228157 3.834101 C 53.768009 3.68718 54.25354 3.785496 54.684467 4.129032 C 55.515877 5.019958 56.171215 6.027636 56.650486 7.152073 C 57.380535 9.123997 57.963058 11.139362 58.39806 13.198156 C 58.70636 17.369217 58.269466 21.449142 57.087379 25.437788 C 56.504856 26.32258 55.922329 27.207373 55.339806 28.092167 C 54.893738 28.472038 54.432671 28.816072 53.95631 29.124424 Z" stroke="none" fill-rule="evenodd" fill="#7f3a2a" id="path5"></path>
    </g>
    <g id="g6">
        <path d="M 30.509708 4.497696 C 30.752478 4.497696 30.995096 4.497696 31.237864 4.497696 C 31.256359 4.902489 31.086409 5.197418 30.728155 5.382488 C 30.679661 5.775734 30.631018 6.168966 30.582523 6.562212 C 30.436893 6.758827 30.291262 6.758827 30.145632 6.562212 C 29.971748 5.805506 30.09306 5.117332 30.509708 4.497696 Z" stroke="none" fill-rule="evenodd" fill="#140a15" id="path6"></path>
    </g>
    <g id="g7">
        <path d="M 40.703884 5.087557 C 41.242428 5.235775 41.776455 5.432392 42.305824 5.67742 C 42.434853 5.799078 42.483349 5.946543 42.451458 6.119816 C 41.886841 6.068851 41.352962 5.896818 40.849514 5.603687 C 40.727619 5.454556 40.679123 5.282522 40.703884 5.087557 Z" stroke="none" fill-rule="evenodd" fill="#130f1a" id="path7"></path>
    </g>
    <g id="g8">
        <path d="M 27.451456 6.562212 C 27.645582 6.562212 27.839855 6.562212 28.033981 6.562212 C 28.056845 6.76474 28.032526 6.961372 27.961164 7.152073 C 27.209417 7.765369 26.966652 8.551846 27.233009 9.51152 C 27.673107 9.68012 27.697283 9.876749 27.305826 10.101383 C 26.741068 9.691254 26.498301 9.125959 26.577669 8.405529 C 26.540388 7.621147 26.831652 7.006701 27.451456 6.562212 Z" stroke="none" fill-rule="evenodd" fill="#0e050f" id="path8"></path>
    </g>
    <g id="g9">
        <path d="M 40.558254 6.857143 C 41.140778 6.857143 41.723301 6.857143 42.305824 6.857143 C 42.305824 7.053759 42.305824 7.250389 42.305824 7.447004 C 41.728252 7.349367 41.145729 7.300203 40.558254 7.29954 C 40.558254 7.152073 40.558254 7.004608 40.558254 6.857143 Z" stroke="none" fill-rule="evenodd" fill="#0f0c17" id="path9"></path>
    </g>
    <g id="g10">
        <path d="M 23.082523 6.857143 C 23.016554 6.998474 22.919563 7.121357 22.791262 7.225807 C 23.080193 7.540569 23.274466 7.909233 23.373787 8.331797 C 23.584806 8.43088 23.778933 8.529194 23.95631 8.626728 C 22.77437 8.72208 22.361795 9.361092 22.718447 10.543779 C 22.891457 10.700594 22.964272 10.897209 22.936893 11.13364 C 23.082523 11.13364 23.228155 11.13364 23.373787 11.13364 C 23.268787 10.644423 23.244467 10.152878 23.30097 9.658987 C 23.419806 9.463919 23.589758 9.36562 23.81068 9.364056 C 24.686359 12.380167 25.802767 15.280369 27.160194 18.064516 C 26.693884 18.622231 26.596746 19.2612 26.868933 19.981567 C 26.591066 20.444904 26.396942 20.936405 26.286407 21.456223 C 26.31073 21.652792 26.334902 21.849514 26.359222 22.046082 C 26.608688 22.24929 26.802961 22.495115 26.941748 22.783409 C 27.139223 22.913181 27.35767 22.962433 27.597088 22.930876 C 27.370924 22.479631 27.176796 22.012756 27.014563 21.529953 C 27.038885 21.357861 27.063057 21.185917 27.087379 21.013824 C 27.484516 20.828165 27.751602 20.533234 27.88835 20.129032 C 28.553591 21.459465 29.136116 22.835907 29.635921 24.258064 C 30.150581 25.549715 30.708931 26.82765 31.31068 28.092167 C 31.76403 28.713585 32.176601 29.352701 32.548542 30.009216 C 31.802914 29.926636 31.171749 29.607079 30.65534 29.050692 C 30.461214 29.001587 30.266941 28.952332 30.072815 28.903225 C 27.700922 27.257511 25.32233 25.660019 22.936893 24.1106 C 21.584854 21.263632 20.298494 18.36343 19.077669 15.410139 C 18.916456 15.024811 18.649515 14.778986 18.276699 14.672812 C 18.494417 14.685375 18.640049 14.587061 18.713593 14.37788 C 18.555582 13.895226 18.531261 13.403664 18.640778 12.903225 C 18.733543 12.637331 18.903349 12.440716 19.150486 12.313364 C 18.611359 11.881985 18.174465 11.980297 17.839806 12.608295 C 17.712524 12.104141 17.542719 11.612579 17.330097 11.13364 C 17.219563 10.903168 17.049612 10.755701 16.820389 10.691244 C 18.964951 9.530706 21.052427 8.252668 23.082523 6.857143 Z" stroke="none" fill-rule="evenodd" fill="#7b4f8e" id="path10"></path>
    </g>
    <g id="g11">
        <path d="M 37.063107 5.087557 C 37.792862 4.914862 38.229755 5.185223 38.373787 5.898617 C 38.279564 6.755714 38.255245 7.61594 38.300972 8.479263 C 38.192478 8.699045 38.022526 8.846512 37.791264 8.921659 C 36.781311 8.615549 35.810387 8.197721 34.878639 7.668203 C 34.341843 7.377504 34.196213 6.95969 34.441746 6.414747 C 35.398834 6.079393 36.272621 5.636997 37.063107 5.087557 Z" stroke="none" fill-rule="evenodd" fill="#16121b" id="path11"></path>
    </g>
    <g id="g12">
        <path d="M 36.771843 5.67742 C 37.111599 5.67742 37.451504 5.67742 37.791264 5.67742 C 37.759518 6.372204 37.80801 7.060364 37.936893 7.741936 C 37.931213 8.049726 37.785583 8.246355 37.5 8.331797 C 36.486992 8.047308 35.564709 7.580343 34.733009 6.930876 C 35.17791 6.756512 35.614803 6.559896 36.04369 6.341013 C 36.352135 6.186308 36.594757 5.965109 36.771843 5.67742 Z" stroke="none" fill-rule="evenodd" fill="#eba0ba" id="path12"></path>
    </g>
    <g id="g13">
        <path d="M 23.95631 8.626728 C 24.043253 8.661411 24.091747 8.735144 24.101942 8.847927 C 24.032331 9.040014 23.935194 9.212063 23.81068 9.364056 C 23.589758 9.36562 23.419806 9.463919 23.30097 9.658987 C 23.244467 10.152878 23.268787 10.644423 23.373787 11.13364 C 23.228155 11.13364 23.082523 11.13364 22.936893 11.13364 C 22.964272 10.897209 22.891457 10.700594 22.718447 10.543779 C 22.361795 9.361092 22.77437 8.72208 23.95631 8.626728 Z" stroke="none" fill-rule="evenodd" fill="#0c060f" id="path13"></path>
    </g>
    <g id="g14">
        <path d="M 30.072815 9.364056 C 30.383738 9.312 30.577864 9.434883 30.65534 9.732719 C 30.441845 10.47596 30.296213 11.237869 30.218447 12.018433 C 29.771795 11.728132 29.577671 11.310318 29.635921 10.764977 C 29.636505 10.248569 29.782135 9.781588 30.072815 9.364056 Z" stroke="none" fill-rule="evenodd" fill="#140915" id="path14"></path>
    </g>
    <g id="g15">
        <path d="M 9.538835 13.935484 C 8.810519 13.619333 8.130903 13.201519 7.5 12.682028 C 6.47984 12.486841 6.115762 12.904671 6.407767 13.935484 C 6.617316 14.197176 6.762947 14.492107 6.84466 14.820276 C 7.327049 15.136589 7.739665 15.529881 8.082524 16 C 7.204398 16.102047 6.330612 16.224884 5.461165 16.368664 C 4.961592 16.615669 4.815961 16.984333 5.024272 17.474655 C 5.025815 17.69836 5.122893 17.870451 5.315534 17.990784 C 4.508184 18.197824 3.682951 18.271557 2.839806 18.211983 C 1.489107 18.000221 0.785219 17.213642 0.728155 15.852535 C 0.864317 15.46883 1.131307 15.247631 1.529126 15.18894 C 2.500005 15.139833 3.470869 15.09058 4.441748 15.041475 C 4.665554 14.877789 4.762645 14.656649 4.73301 14.37788 C 4.635917 13.984634 4.393209 13.738869 4.004854 13.640553 C 3.066 12.770493 2.653383 11.689085 2.76699 10.396313 C 3.051146 9.774805 3.536578 9.479876 4.223301 9.51152 C 4.912413 9.626764 5.567752 9.847961 6.189321 10.175116 C 7.34269 11.104958 8.604815 11.842285 9.975728 12.387096 C 10.712243 12.393217 11.440398 12.417797 12.160194 12.460829 C 11.763175 12.871609 11.520466 13.363171 11.432039 13.935484 C 10.804937 14.071653 10.173874 14.071653 9.538835 13.935484 Z" stroke="none" fill-rule="evenodd" fill="#794e8d" id="path15"></path>
    </g>
    <g id="g16">
        <path d="M 33.567963 10.101383 C 34.123981 10.367264 34.706505 10.563892 35.315533 10.691244 C 35.517231 12.110186 35.662865 13.535677 35.752426 14.967741 C 35.479221 14.416901 35.163639 13.876204 34.805824 13.345623 C 34.433884 12.248287 34.021313 11.166866 33.567963 10.101383 Z" stroke="none" fill-rule="evenodd" fill="#764b89" id="path16"></path>
    </g>
    <g id="g17">
        <path d="M 16.529127 10.838709 C 17.186504 13.083517 18.01165 15.246304 19.004854 17.327188 C 18.653738 17.273659 18.435291 17.421124 18.349514 17.769585 C 18.12801 18.709972 18.346457 19.521032 19.004854 20.202765 C 19.595097 20.271778 19.692234 20.099834 19.296116 19.686636 C 19.199709 19.101788 19.151215 18.511925 19.150486 17.917049 C 20.285536 19.607006 21.159321 21.425844 21.771845 23.373272 C 19.025681 21.98975 16.113058 21.20332 13.03398 21.013824 C 12.790355 19.978027 12.523369 18.94577 12.233009 17.917049 C 12.029388 16.546066 11.980849 15.169769 12.087379 13.788019 C 12.403296 13.220055 12.718821 12.654776 13.03398 12.092165 C 14.250131 11.793121 15.415194 11.375305 16.529127 10.838709 Z" stroke="none" fill-rule="evenodd" fill="#9e449f" id="path17"></path>
    </g>
    <g id="g18">
        <path d="M 18.276699 14.672812 C 17.883932 14.054489 17.7383 13.36631 17.839806 12.608295 C 18.174465 11.980297 18.611359 11.881985 19.150486 12.313364 C 18.903349 12.440716 18.733543 12.637331 18.640778 12.903225 C 18.531261 13.403664 18.555582 13.895226 18.713593 14.37788 C 18.640049 14.587061 18.494417 14.685375 18.276699 14.672812 Z" stroke="none" fill-rule="evenodd" fill="#161015" id="path18"></path>
    </g>
    <g id="g19">
        <path d="M 27.014563 12.75576 C 27.325485 12.703705 27.519611 12.826588 27.597088 13.124424 C 27.377621 14.014894 27.231989 14.92424 27.160194 15.852535 C 26.496698 15.208996 26.278252 14.422518 26.504854 13.493088 C 26.650047 13.224243 26.82 12.978477 27.014563 12.75576 Z" stroke="none" fill-rule="evenodd" fill="#130814" id="path19"></path>
    </g>
    <g id="g20">
        <path d="M 9.247573 14.230415 C 9.656564 14.441114 10.093457 14.539429 10.558252 14.525345 C 10.764859 14.6656 11.007567 14.714766 11.286407 14.672812 C 11.242486 15.050175 11.291039 15.39436 11.432039 15.705069 C 11.424218 16.748535 11.521297 17.780792 11.723301 18.801844 C 11.299995 18.812902 10.91164 18.93589 10.558252 19.170506 C 9.841937 19.994987 9.040966 20.707687 8.15534 21.308756 C 7.688563 21.117344 7.542932 20.773161 7.718447 20.276497 C 8.350092 19.701235 8.956893 19.111374 9.538835 18.506912 C 9.633073 18.392773 9.681626 18.245308 9.684466 18.064516 C 9.707738 17.790966 9.610646 17.594395 9.393204 17.474655 C 9.029519 17.291355 8.641165 17.192995 8.228155 17.179724 C 7.606005 17.349457 6.974942 17.496922 6.334951 17.62212 C 5.923238 17.635687 5.631976 17.463596 5.461165 17.105991 C 5.510112 16.954102 5.607204 16.880369 5.752427 16.884792 C 6.649559 16.813713 7.523345 16.715355 8.373786 16.589863 C 8.656471 16.367043 8.729286 16.072109 8.592233 15.705069 C 7.905466 15.255447 7.371495 14.66563 6.990291 13.935484 C 6.918422 13.69451 6.894146 13.44873 6.917476 13.198156 C 7.164932 13.174532 7.407655 13.199116 7.645631 13.271889 C 8.091655 13.743441 8.625641 14.062939 9.247573 14.230415 Z" stroke="none" fill-rule="evenodd" fill="#f3a6c0" id="path20"></path>
    </g>
    <g id="g21">
        <path d="M 22.791262 13.198156 C 23.038691 13.174532 23.281456 13.199116 23.519417 13.271889 C 23.600826 13.378757 23.649321 13.501656 23.665049 13.640553 C 23.535582 13.994219 23.317135 14.28915 23.009708 14.525345 C 22.895535 15.391115 22.968349 16.226654 23.228155 17.032257 C 22.871651 16.97106 22.677523 17.118526 22.645632 17.474655 C 22.674757 18.008183 22.917377 18.401474 23.373787 18.654377 C 23.10306 19.025843 22.811796 19.025843 22.5 18.654377 C 21.77927 17.912186 21.730778 17.125751 22.354368 16.29493 C 22.060923 15.176847 22.206554 14.14459 22.791262 13.198156 Z" stroke="none" fill-rule="evenodd" fill="#0e0811" id="path21"></path>
    </g>
    <g id="g22">
        <path d="M 4.004854 13.640553 C 4.393209 13.738869 4.635917 13.984634 4.73301 14.37788 C 4.441748 14.181265 4.199024 13.935484 4.004854 13.640553 Z" stroke="none" fill-rule="evenodd" fill="#402a4e" id="path22"></path>
    </g>
    <g id="g23">
        <path d="M 51.626213 13.050692 C 51.760777 14.415188 51.372375 15.644018 50.461166 16.737328 C 50.341019 16.867981 50.195385 16.917088 50.024273 16.884792 C 50.775875 15.719667 51.309902 14.441689 51.626213 13.050692 Z" stroke="none" fill-rule="evenodd" fill="#171220" id="path23"></path>
    </g>
    <g id="g24">
        <path d="M 52.35437 10.543779 C 52.522865 11.795774 52.547184 13.073801 52.427185 14.37788 C 52.34927 14.899612 52.227959 15.391262 52.063107 15.852535 C 52.30529 14.096384 52.402424 12.326797 52.35437 10.543779 Z" stroke="none" fill-rule="evenodd" fill="#583968" id="path24"></path>
    </g>
    <g id="g25">
        <path d="M 10.558252 14.525345 C 10.849515 14.525345 11.140777 14.525345 11.432039 14.525345 C 11.432039 14.918636 11.432039 15.311779 11.432039 15.705069 C 11.291039 15.39436 11.242486 15.050175 11.286407 14.672812 C 11.007567 14.714766 10.764859 14.6656 10.558252 14.525345 Z" stroke="none" fill-rule="evenodd" fill="#735060" id="path25"></path>
    </g>
    <g id="g26">
        <path d="M 16.820389 10.691244 C 17.049612 10.755701 17.219563 10.903168 17.330097 11.13364 C 17.542719 11.612579 17.712524 12.104141 17.839806 12.608295 C 17.7383 13.36631 17.883932 14.054489 18.276699 14.672812 C 18.649515 14.778986 18.916456 15.024811 19.077669 15.410139 C 20.298494 18.36343 21.584854 21.263632 22.936893 24.1106 C 22.548494 23.864773 22.160244 23.619099 21.771845 23.373272 C 21.159321 21.425844 20.285536 19.607006 19.150486 17.917049 C 19.184999 17.726673 19.136505 17.579208 19.004854 17.474655 C 19.004854 17.425549 19.004854 17.376295 19.004854 17.327188 C 18.01165 15.246304 17.186504 13.083517 16.529127 10.838709 C 16.626263 10.78956 16.723253 10.740395 16.820389 10.691244 Z" stroke="none" fill-rule="evenodd" fill="#f3a3c3" id="path26"></path>
    </g>
    <g id="g27">
        <path d="M 31.237864 14.672812 C 31.542233 14.665453 31.736361 14.812902 31.820389 15.115208 C 31.268448 15.716425 31.122816 16.404497 31.383495 17.179724 C 30.813786 18.004204 30.813786 18.839743 31.383495 19.686636 C 31.127329 19.871557 30.908884 19.822453 30.728155 19.539169 C 30.455534 19.140276 30.334223 18.69788 30.364079 18.211983 C 30.444902 17.377033 30.517717 16.541492 30.582523 15.705069 C 30.729902 15.306618 30.948349 14.96258 31.237864 14.672812 Z" stroke="none" fill-rule="evenodd" fill="#0c040e" id="path27"></path>
    </g>
    <g id="g28">
        <path d="M 15.364078 14.967741 C 15.558204 14.967741 15.752476 14.967741 15.946602 14.967741 C 15.952282 15.24188 15.830971 15.438452 15.582524 15.557604 C 15.557038 16.104847 15.484222 16.645603 15.364078 17.179724 C 15.006553 16.971798 14.860922 16.652239 14.927184 16.221199 C 14.890923 15.731171 15.036553 15.313253 15.364078 14.967741 Z" stroke="none" fill-rule="evenodd" fill="#120713" id="path28"></path>
    </g>
    <g id="g29">
        <path d="M 8.373786 16.589863 C 7.523345 16.715355 6.649559 16.813713 5.752427 16.884792 C 5.863471 16.77154 6.009102 16.697807 6.189321 16.663593 C 6.915859 16.590008 7.644014 16.565382 8.373786 16.589863 Z" stroke="none" fill-rule="evenodd" fill="#735060" id="path29"></path>
    </g>
    <g id="g30">
        <path d="M 9.538835 13.935484 C 9.441742 14.0338 9.344666 14.132099 9.247573 14.230415 C 8.625641 14.062939 8.091655 13.743441 7.645631 13.271889 C 7.407655 13.199116 7.164932 13.174532 6.917476 13.198156 C 6.894146 13.44873 6.918422 13.69451 6.990291 13.935484 C 7.371495 14.66563 7.905466 15.255447 8.592233 15.705069 C 8.729286 16.072109 8.656471 16.367043 8.373786 16.589863 C 7.644014 16.565382 6.915859 16.590008 6.189321 16.663593 C 6.009102 16.697807 5.863471 16.77154 5.752427 16.884792 C 5.607204 16.880369 5.510112 16.954102 5.461165 17.105991 C 5.631976 17.463596 5.923238 17.635687 6.334951 17.62212 C 6.974942 17.496922 7.606005 17.349457 8.228155 17.179724 C 8.641165 17.192995 9.029519 17.291355 9.393204 17.474655 C 9.497854 17.808517 9.546408 18.152554 9.538835 18.506912 C 8.956893 19.111374 8.350092 19.701235 7.718447 20.276497 C 7.542932 20.773161 7.688563 21.117344 8.15534 21.308756 C 9.040966 20.707687 9.841937 19.994987 10.558252 19.170506 C 10.91164 18.93589 11.299995 18.812902 11.723301 18.801844 C 11.764399 18.990303 11.86149 19.13777 12.014564 19.24424 C 11.767106 19.220646 11.524384 19.245125 11.286407 19.317972 C 10.465791 20.001179 9.689097 20.738506 8.95631 21.529953 C 7.465456 22.135742 6.907209 21.619614 7.281553 19.981567 C 7.866262 19.364864 8.473063 18.775005 9.101942 18.211983 C 9.05566 18.042839 8.958582 17.919853 8.810679 17.843319 C 8.41449 17.754543 8.026136 17.779171 7.645631 17.917049 C 7.018311 18.04505 6.387233 18.06953 5.752427 17.990784 C 5.486927 17.843761 5.244218 17.671669 5.024272 17.474655 C 4.815961 16.984333 4.961592 16.615669 5.461165 16.368664 C 6.330612 16.224884 7.204398 16.102047 8.082524 16 C 7.739665 15.529881 7.327049 15.136589 6.84466 14.820276 C 6.762947 14.492107 6.617316 14.197176 6.407767 13.935484 C 6.115762 12.904671 6.47984 12.486841 7.5 12.682028 C 8.130903 13.201519 8.810519 13.619333 9.538835 13.935484 Z" stroke="none" fill-rule="evenodd" fill="#131018" id="path30"></path>
    </g>
    <g id="g31">
        <path d="M 19.004854 17.327188 C 19.004854 17.376295 19.004854 17.425549 19.004854 17.474655 C 18.98068 18.066582 19.005001 18.656443 19.077669 19.24424 C 19.111456 19.426655 19.184271 19.57412 19.296116 19.686636 C 19.692234 20.099834 19.595097 20.271778 19.004854 20.202765 C 18.346457 19.521032 18.12801 18.709972 18.349514 17.769585 C 18.435291 17.421124 18.653738 17.273659 19.004854 17.327188 Z" stroke="none" fill-rule="evenodd" fill="#130814" id="path31"></path>
    </g>
    <g id="g32">
        <path d="M 42.742718 15.557604 C 42.742718 16.393291 42.742718 17.228828 42.742718 18.064516 C 43.182232 18.034431 43.619125 17.985327 44.053398 17.917049 C 44.008835 17.491611 44.057331 17.098322 44.199028 16.737328 C 44.199028 17.179724 44.199028 17.62212 44.199028 18.064516 C 43.8983 18.067022 43.607037 18.116129 43.325241 18.211983 C 43.082478 18.211983 42.839851 18.211983 42.597088 18.211983 C 42.550049 17.299171 42.598545 16.414377 42.742718 15.557604 Z" stroke="none" fill-rule="evenodd" fill="#322240" id="path32"></path>
    </g>
    <g id="g33">
        <path d="M 12.014564 19.24424 C 12.222014 19.80048 12.416184 20.365862 12.597087 20.940092 C 12.548549 21.013824 12.499995 21.087559 12.451456 21.161289 C 11.914063 21.263632 11.380078 21.386618 10.849515 21.529953 C 9.698854 22.382452 8.485267 23.11978 7.208738 23.741936 C 5.102097 24.263077 4.301126 23.452019 4.805825 21.308756 C 5.291257 20.718895 5.825243 20.178137 6.407767 19.686636 C 6.801888 19.068314 6.680534 18.625916 6.043689 18.359447 C 6.5985 18.286156 7.132471 18.138691 7.645631 17.917049 C 8.026136 17.779171 8.41449 17.754543 8.810679 17.843319 C 8.958582 17.919853 9.05566 18.042839 9.101942 18.211983 C 8.473063 18.775005 7.866262 19.364864 7.281553 19.981567 C 6.907209 21.619614 7.465456 22.135742 8.95631 21.529953 C 9.689097 20.738506 10.465791 20.001179 11.286407 19.317972 C 11.524384 19.245125 11.767106 19.220646 12.014564 19.24424 Z" stroke="none" fill-rule="evenodd" fill="#784d8b" id="path33"></path>
    </g>
    <g id="g34">
        <path d="M 5.024272 17.474655 C 5.244218 17.671669 5.486927 17.843761 5.752427 17.990784 C 6.387233 18.06953 7.018311 18.04505 7.645631 17.917049 C 7.132471 18.138691 6.5985 18.286156 6.043689 18.359447 C 4.948675 18.407372 3.880718 18.358267 2.839806 18.211983 C 3.682951 18.271557 4.508184 18.197824 5.315534 17.990784 C 5.122893 17.870451 5.025815 17.69836 5.024272 17.474655 Z" stroke="none" fill-rule="evenodd" fill="#4f345f" id="path34"></path>
    </g>
    <g id="g35">
        <path d="M 9.393204 17.474655 C 9.610646 17.594395 9.707738 17.790966 9.684466 18.064516 C 9.681626 18.245308 9.633073 18.392773 9.538835 18.506912 C 9.546408 18.152554 9.497854 17.808517 9.393204 17.474655 Z" stroke="none" fill-rule="evenodd" fill="#755261" id="path35"></path>
    </g>
    <g id="g36">
        <path d="M 42.742718 15.557604 C 42.598545 16.414377 42.550049 17.299171 42.597088 18.211983 C 42.839851 18.211983 43.082478 18.211983 43.325241 18.211983 C 43.325241 18.261087 43.325241 18.310341 43.325241 18.359447 C 43.082478 18.359447 42.839851 18.359447 42.597088 18.359447 C 42.597088 18.654377 42.597088 18.949308 42.597088 19.24424 C 42.620823 19.591816 42.596653 19.935852 42.524273 20.276497 C 42.161793 21.302414 41.822041 22.334673 41.504856 23.373272 C 41.45636 24.307169 41.407719 25.241219 41.359222 26.175116 C 40.970097 27.178616 40.557522 28.161621 40.121361 29.124424 C 40.221409 29.371723 40.318542 29.617548 40.412621 29.861752 C 40.282135 29.713402 40.185143 29.713402 40.121361 29.861752 C 40.031506 29.845383 39.958687 29.796276 39.902912 29.714285 C 39.805779 29.222784 39.805779 28.731133 39.902912 28.239632 C 40.37199 27.621162 40.711746 26.933086 40.922329 26.175116 C 40.894806 24.003391 41.331699 21.938875 42.233009 19.981567 C 42.305531 19.492424 42.329857 19.000923 42.305824 18.506912 C 41.08733 18.537144 39.873783 18.487888 38.665047 18.359447 C 38.665047 18.211983 38.665047 18.064516 38.665047 17.917049 C 39.874512 18.039742 41.088058 18.088848 42.305824 18.064516 C 42.497478 15.367521 42.618786 12.663963 42.669903 9.953917 C 42.789612 9.616444 42.886749 9.272362 42.961166 8.921659 C 43.00602 7.787413 43.078838 6.656839 43.179611 5.529953 C 43.325241 5.529953 43.470875 5.529953 43.616505 5.529953 C 43.440582 7.111506 43.222134 8.684475 42.961166 10.248848 C 42.904514 12.019833 42.831699 13.789419 42.742718 15.557604 Z" stroke="none" fill-rule="evenodd" fill="#120e1a" id="path36"></path>
    </g>
    <g id="g37">
        <path d="M 27.160194 18.064516 C 27.354319 18.064516 27.548594 18.064516 27.742718 18.064516 C 27.757864 18.446451 27.660728 18.790489 27.451456 19.096775 C 27.514076 19.485788 27.659708 19.829823 27.88835 20.129032 C 27.751602 20.533234 27.484516 20.828165 27.087379 21.013824 C 27.063057 21.185917 27.038885 21.357861 27.014563 21.529953 C 27.176796 22.012756 27.370924 22.479631 27.597088 22.930876 C 27.35767 22.962433 27.139223 22.913181 26.941748 22.783409 C 26.802961 22.495115 26.608688 22.24929 26.359222 22.046082 C 26.334902 21.849514 26.31073 21.652792 26.286407 21.456223 C 26.396942 20.936405 26.591066 20.444904 26.868933 19.981567 C 26.596746 19.2612 26.693884 18.622231 27.160194 18.064516 Z" stroke="none" fill-rule="evenodd" fill="#0c060f" id="path37"></path>
    </g>
    <g id="g38">
        <path d="M 19.004854 17.474655 C 19.136505 17.579208 19.184999 17.726673 19.150486 17.917049 C 19.151215 18.511925 19.199709 19.101788 19.296116 19.686636 C 19.184271 19.57412 19.111456 19.426655 19.077669 19.24424 C 19.005001 18.656443 18.98068 18.066582 19.004854 17.474655 Z" stroke="none" fill-rule="evenodd" fill="#753375" id="path38"></path>
    </g>
    <g id="g39">
        <path d="M 43.325241 22.046082 C 42.719418 23.760517 42.428154 25.530102 42.451458 27.354839 C 42.481308 28.492828 42.578449 29.623447 42.742718 30.746544 C 41.910583 30.585659 41.133934 30.290728 40.412621 29.861752 C 40.318542 29.617548 40.221409 29.371723 40.121361 29.124424 C 40.557522 28.161621 40.970097 27.178616 41.359222 26.175116 C 41.407719 25.241219 41.45636 24.307169 41.504856 23.373272 C 41.822041 22.334673 42.161793 21.302414 42.524273 20.276497 C 42.596653 19.935852 42.620823 19.591816 42.597088 19.24424 C 42.73558 19.034985 42.784077 18.789309 42.742718 18.506912 C 43.131115 18.506912 43.519371 18.506912 43.907768 18.506912 C 43.825779 19.166229 43.655823 19.805199 43.39806 20.423964 C 43.32539 20.962505 43.301212 21.503113 43.325241 22.046082 Z" stroke="none" fill-rule="evenodd" fill="#784d8c" id="path39"></path>
    </g>
    <g id="g40">
        <path d="M 43.325241 18.359447 C 43.568008 18.359447 43.810631 18.359447 44.053398 18.359447 C 43.75267 19.586802 43.510052 20.815779 43.325241 22.046082 C 43.301212 21.503113 43.32539 20.962505 43.39806 20.423964 C 43.655823 19.805199 43.825779 19.166229 43.907768 18.506912 C 43.519371 18.506912 43.131115 18.506912 42.742718 18.506912 C 42.784077 18.789309 42.73558 19.034985 42.597088 19.24424 C 42.597088 18.949308 42.597088 18.654377 42.597088 18.359447 C 42.839851 18.359447 43.082478 18.359447 43.325241 18.359447 Z" stroke="none" fill-rule="evenodd" fill="#5a3b6b" id="path40"></path>
    </g>
    <g id="g41">
        <path d="M 23.373787 20.129032 C 23.567911 20.129032 23.762186 20.129032 23.95631 20.129032 C 23.95631 20.325603 23.95631 20.522324 23.95631 20.718895 C 23.457523 20.756794 23.166262 21.027096 23.082523 21.529953 C 23.351942 22.021309 23.643206 22.488186 23.95631 22.930876 C 22.703592 22.670895 22.291019 21.933567 22.718447 20.718895 C 22.921894 20.487373 23.140341 20.290653 23.373787 20.129032 Z" stroke="none" fill-rule="evenodd" fill="#110a14" id="path41"></path>
    </g>
    <g id="g42">
        <path d="M 50.606796 10.986176 C 50.582623 11.578072 50.606941 12.167933 50.679611 12.75576 C 50.933884 11.561527 50.958202 10.381804 50.752426 9.216589 C 50.682381 8.189863 50.43961 7.206768 50.024273 6.267281 C 50.223495 6.105997 50.393448 6.155163 50.533981 6.414747 C 51.153931 8.321875 51.348057 10.288073 51.116505 12.313364 C 50.944515 14.900055 49.70665 16.743374 47.402912 17.843319 C 48.39539 19.224628 49.026409 20.773014 49.296116 22.48848 C 49.278347 23.186285 49.351162 23.874359 49.514565 24.552996 C 49.634712 23.003429 49.610535 21.479523 49.441746 19.981567 C 49.441746 19.784996 49.441746 19.588276 49.441746 19.391705 C 49.635876 19.391705 49.830143 19.391705 50.024273 19.391705 C 50.006069 20.2327 50.054565 21.068386 50.169903 21.898617 C 50.143692 23.030415 50.095047 24.161032 50.024273 25.290323 C 49.765484 26.665291 49.352768 27.992479 48.786407 29.271889 C 48.492523 29.544701 48.225582 29.839632 47.985435 30.156681 C 48.051991 30.274361 48.149124 30.323465 48.276699 30.304148 C 48.100777 30.493198 47.906506 30.493198 47.694176 30.304148 C 47.690823 29.92767 47.836456 29.583632 48.131069 29.271889 C 48.251797 29.394581 48.373104 29.345474 48.495144 29.124424 C 48.7267 28.807375 48.823833 28.463337 48.786407 28.092167 C 48.662331 28.250101 48.541019 28.397568 48.422329 28.534561 C 48.44738 28.388275 48.398739 28.290064 48.276699 28.239632 C 48.276699 28.141272 48.276699 28.04306 48.276699 27.9447 C 48.276699 27.84634 48.276699 27.748131 48.276699 27.649769 C 48.485096 27.461014 48.582233 27.215187 48.567963 26.912441 C 48.753788 26.781788 48.753788 26.634323 48.567963 26.470047 C 48.479565 26.488331 48.431068 26.537437 48.422329 26.617512 C 48.039032 26.760849 47.699272 26.957418 47.402912 27.207373 C 46.169563 27.510118 45.004517 27.338028 43.907768 26.691244 C 43.586067 26.415041 43.319126 26.095486 43.106796 25.732719 C 43.066307 25.867798 42.993492 25.966009 42.888348 26.027649 C 42.783207 25.966009 42.710392 25.867798 42.669903 25.732719 C 42.644127 26.301346 42.571312 26.8421 42.451458 27.354839 C 42.428154 25.530102 42.719418 23.760517 43.325241 22.046082 C 43.510052 20.815779 43.75267 19.586802 44.053398 18.359447 C 43.810631 18.359447 43.568008 18.359447 43.325241 18.359447 C 43.325241 18.310341 43.325241 18.261087 43.325241 18.211983 C 43.607037 18.116129 43.8983 18.067022 44.199028 18.064516 C 44.199028 17.62212 44.199028 17.179724 44.199028 16.737328 C 44.323982 13.113115 44.420967 9.500212 44.490292 5.898617 C 47.780827 6.060669 49.81966 7.756521 50.606796 10.986176 Z" stroke="none" fill-rule="evenodd" fill="#111118" id="path42"></path>
    </g>
    <g id="g43">
        <path d="M 45.800972 18.064516 C 45.337425 18.19458 44.900532 18.391151 44.490292 18.654377 C 44.490292 18.506912 44.490292 18.359447 44.490292 18.211983 C 44.924561 18.143705 45.361454 18.094601 45.800972 18.064516 Z" stroke="none" fill-rule="evenodd" fill="#a5a6a9" id="path43"></path>
    </g>
    <g id="g44">
        <path d="M 48.713593 22.046082 C 48.73209 22.40221 48.756264 22.746395 48.786407 23.078342 C 48.667572 22.883244 48.49762 22.785032 48.276699 22.783409 C 48.033932 22.685051 47.791309 22.58684 47.548542 22.48848 C 47.532379 22.397491 47.483883 22.323761 47.402912 22.267281 C 46.744663 22.147243 46.113495 22.171871 45.509708 22.341015 C 44.849854 22.415779 44.26733 22.661602 43.762135 23.078342 C 43.665001 23.078342 43.616505 23.029236 43.616505 22.930876 C 43.795921 21.48188 44.087185 20.056479 44.490292 18.654377 C 44.900532 18.391151 45.337425 18.19458 45.800972 18.064516 C 46.349857 17.817806 46.859566 17.866913 47.330097 18.211983 C 47.746746 18.85906 48.086506 19.547134 48.349514 20.276497 C 48.602768 20.83849 48.724075 21.42835 48.713593 22.046082 Z" stroke="none" fill-rule="evenodd" fill="#f8f8f8" id="path44"></path>
    </g>
    <g id="g45">
        <path d="M 45.509708 22.341015 C 46.113495 22.171871 46.744663 22.147243 47.402912 22.267281 C 47.483883 22.323761 47.532379 22.397491 47.548542 22.48848 C 46.875877 22.368443 46.196213 22.319336 45.509708 22.341015 Z" stroke="none" fill-rule="evenodd" fill="#96989a" id="path45"></path>
    </g>
    <g id="g46">
        <path d="M 44.635921 17.032257 C 44.635921 17.228828 44.635921 17.425549 44.635921 17.62212 C 44.878689 17.62212 45.121311 17.62212 45.364079 17.62212 C 45.107037 17.763834 44.815773 17.813087 44.490292 17.769585 C 44.448933 17.487188 44.497429 17.241512 44.635921 17.032257 Z" stroke="none" fill-rule="evenodd" fill="#929496" id="path46"></path>
    </g>
    <g id="g47">
        <path d="M 49.587379 13.640553 C 49.684513 13.640553 49.781506 13.640553 49.878639 13.640553 C 49.136066 15.86787 47.63126 17.195061 45.364079 17.62212 C 45.121311 17.62212 44.878689 17.62212 44.635921 17.62212 C 44.635921 17.425549 44.635921 17.228828 44.635921 17.032257 C 44.611752 16.047926 44.635921 15.064774 44.708736 14.082949 C 45.229511 14.596676 45.860535 14.842396 46.60194 14.820276 C 47.76466 14.793291 48.759754 14.4 49.587379 13.640553 Z" stroke="none" fill-rule="evenodd" fill="#f5f5f5" id="path47"></path>
    </g>
    <g id="g48">
        <path d="M 49.878639 13.640553 C 49.781506 13.640553 49.684513 13.640553 49.587379 13.640553 C 49.632671 13.496361 49.729805 13.398046 49.878639 13.345623 C 50.06403 13.45718 50.06403 13.555496 49.878639 13.640553 Z" stroke="none" fill-rule="evenodd" fill="#606266" id="path48"></path>
    </g>
    <g id="g49">
        <path d="M 49.150486 11.13364 C 49.441746 11.13364 49.733009 11.13364 50.024273 11.13364 C 50.078735 12.797581 49.302086 13.731524 47.694176 13.935484 C 47.561504 12.650719 48.046894 11.71678 49.150486 11.13364 Z" stroke="none" fill-rule="evenodd" fill="#ececec" id="path49"></path>
    </g>
    <g id="g50">
        <path d="M 44.781555 9.51152 C 44.878689 10.003067 44.975681 10.494629 45.072815 10.986176 C 45.064079 11.066261 45.015583 11.115414 44.927185 11.13364 C 44.783154 10.601688 44.734516 10.060976 44.781555 9.51152 Z" stroke="none" fill-rule="evenodd" fill="#5a5b5f" id="path50"></path>
    </g>
    <g id="g51">
        <path d="M 50.752426 9.216589 C 50.958202 10.381804 50.933884 11.561527 50.679611 12.75576 C 50.606941 12.167933 50.582623 11.578072 50.606796 10.986176 C 50.74995 10.426043 50.798592 9.83618 50.752426 9.216589 Z" stroke="none" fill-rule="evenodd" fill="#3d284b" id="path51"></path>
    </g>
    <g id="g52">
        <path d="M 45.218445 10.986176 C 46.070244 10.518709 46.992527 10.22378 47.985435 10.101383 C 48.512039 10.138439 48.997429 10.285906 49.441746 10.543779 C 48.15102 11.138727 47.374367 12.146418 47.111652 13.56682 C 47.337959 14.10187 47.143688 14.323069 46.529125 14.230415 C 45.326794 14.212379 44.695778 13.59795 44.635921 12.387096 C 44.79932 11.903734 44.993446 11.436756 45.218445 10.986176 Z" stroke="none" fill-rule="evenodd" fill="#000001" id="path52"></path>
    </g>
    <g id="g53">
        <path d="M 49.441746 9.216589 C 49.749027 9.486099 49.870487 9.830177 49.805824 10.248848 C 49.555485 10.046997 49.288544 9.89953 49.004856 9.806452 C 49.541653 9.861013 49.687283 9.664398 49.441746 9.216589 Z" stroke="none" fill-rule="evenodd" fill="#a2a3a6" id="path53"></path>
    </g>
    <g id="g54">
        <path d="M 48.713593 9.806452 C 48.077332 9.801613 47.446312 9.850765 46.820389 9.953917 C 47.162331 9.739843 47.550583 9.641541 47.985435 9.658987 C 48.257618 9.65999 48.500389 9.709139 48.713593 9.806452 Z" stroke="none" fill-rule="evenodd" fill="#6e6f73" id="path54"></path>
    </g>
    <g id="g55">
        <path d="M 47.402912 7.152073 C 47.625294 7.14131 47.770924 7.239624 47.839806 7.447004 C 47.617428 7.457769 47.471794 7.359453 47.402912 7.152073 Z" stroke="none" fill-rule="evenodd" fill="#606266" id="path55"></path>
    </g>
    <g id="g56">
        <path d="M 46.966019 6.857143 C 47.1884 6.846378 47.33403 6.944695 47.402912 7.152073 C 47.180534 7.162838 47.034901 7.064524 46.966019 6.857143 Z" stroke="none" fill-rule="evenodd" fill="#606266" id="path56"></path>
    </g>
    <g id="g57">
        <path d="M 46.966019 6.857143 C 47.034901 7.064524 47.180534 7.162838 47.402912 7.152073 C 47.471794 7.359453 47.617428 7.457769 47.839806 7.447004 C 48.377914 8.040688 48.911942 8.630548 49.441746 9.216589 C 49.687283 9.664398 49.541653 9.861013 49.004856 9.806452 C 48.907719 9.806452 48.810726 9.806452 48.713593 9.806452 C 48.500389 9.709139 48.257618 9.65999 47.985435 9.658987 C 47.550583 9.641541 47.162331 9.739843 46.820389 9.953917 C 46.166794 10.11253 45.632767 10.456614 45.218445 10.986176 C 45.169949 10.986176 45.121311 10.986176 45.072815 10.986176 C 44.975681 10.494629 44.878689 10.003067 44.781555 9.51152 C 44.781555 8.380947 44.781555 7.250389 44.781555 6.119816 C 45.552086 6.253035 46.280239 6.498816 46.966019 6.857143 Z" stroke="none" fill-rule="evenodd" fill="#f7f7f8" id="path57"></path>
    </g>
    <g id="g58">
        <path d="M 49.441746 19.981567 C 49.610535 21.479523 49.634712 23.003429 49.514565 24.552996 C 49.351162 23.874359 49.278347 23.186285 49.296116 22.48848 C 49.440147 21.681105 49.48864 20.845421 49.441746 19.981567 Z" stroke="none" fill-rule="evenodd" fill="#4e335e" id="path58"></path>
    </g>
    <g id="g59">
        <path d="M 44.927185 22.783409 C 45.169949 22.783409 45.412575 22.783409 45.655338 22.783409 C 45.50811 23.985991 45.945004 24.944515 46.966019 25.658985 C 47.307091 25.831669 47.646988 26.003759 47.985435 26.175116 C 46.747425 26.929991 45.485241 26.954617 44.199028 26.248848 C 43.402138 25.646009 43.183693 24.884054 43.54369 23.963135 C 43.94738 23.479004 44.408592 23.085714 44.927185 22.783409 Z" stroke="none" fill-rule="evenodd" fill="#000001" id="path59"></path>
    </g>
    <g id="g60">
        <path d="M 48.859222 24.1106 C 48.92709 24.650618 48.829952 25.142118 48.567963 25.585253 C 47.612186 25.617548 46.884029 25.224258 46.383495 24.405529 C 46.394127 24.180351 46.296989 24.032887 46.092232 23.963135 C 46.068348 23.566895 46.09267 23.173603 46.165047 22.783409 C 46.270634 22.700977 46.391945 22.651871 46.529125 22.635944 C 47.014515 22.808037 47.500046 22.97998 47.985435 23.152073 C 48.409077 23.359411 48.70034 23.678822 48.859222 24.1106 Z" stroke="none" fill-rule="evenodd" fill="#f3f3f3" id="path60"></path>
    </g>
    <g id="g61">
        <path d="M 48.713593 22.046082 C 48.898254 22.400738 48.995388 22.794029 49.004856 23.225807 C 48.650532 23.259281 48.407913 23.111816 48.276699 22.783409 C 48.49762 22.785032 48.667572 22.883244 48.786407 23.078342 C 48.756264 22.746395 48.73209 22.40221 48.713593 22.046082 Z" stroke="none" fill-rule="evenodd" fill="#97999b" id="path61"></path>
    </g>
    <g id="g62">
        <path d="M 43.616505 22.930876 C 43.616505 23.029236 43.665001 23.078342 43.762135 23.078342 C 43.720924 23.194691 43.648109 23.293049 43.54369 23.373272 C 43.435925 23.189089 43.460243 23.041622 43.616505 22.930876 Z" stroke="none" fill-rule="evenodd" fill="#828487" id="path62"></path>
    </g>
    <g id="g63">
        <path d="M 53.95631 29.124424 C 53.895435 29.230894 53.798443 29.304626 53.665047 29.345623 C 52.986988 29.443686 52.307331 29.517418 51.626213 29.56682 C 52.170292 29.347244 52.752815 29.248884 53.373787 29.271889 C 52.889709 26.878527 53.156651 24.568333 54.174759 22.341015 C 55.172478 18.459724 55.463741 14.527321 55.048542 10.543779 C 54.726116 9.27354 54.531845 7.995518 54.466019 6.709677 C 54.917477 7.898161 55.257236 9.127033 55.485435 10.396313 C 55.810337 13.156673 55.7617 15.909309 55.339806 18.654377 C 54.938591 21.16424 54.356068 23.621899 53.592232 26.027649 C 53.495098 26.863338 53.495098 27.698875 53.592232 28.534561 C 53.680779 28.765491 53.802231 28.962212 53.95631 29.124424 Z" stroke="none" fill-rule="evenodd" fill="#1e171a" id="path63"></path>
    </g>
    <g id="g64">
        <path d="M 36.334953 23.963135 C 36.869419 23.937622 37.233494 24.1833 37.427185 24.70046 C 37.623936 25.522139 37.696751 26.357677 37.64563 27.207373 C 37.302814 27.15753 36.963058 27.083797 36.626213 26.986176 C 35.922962 26.47049 35.170486 26.052719 34.368931 25.732719 C 34.248787 25.408146 34.321602 25.137844 34.587379 24.921659 C 35.264854 24.745586 35.847378 24.426029 36.334953 23.963135 Z" stroke="none" fill-rule="evenodd" fill="#120f18" id="path64"></path>
    </g>
    <g id="g65">
        <path d="M 46.092232 23.963135 C 46.296989 24.032887 46.394127 24.180351 46.383495 24.405529 C 46.178738 24.335777 46.081604 24.188313 46.092232 23.963135 Z" stroke="none" fill-rule="evenodd" fill="#727477" id="path65"></path>
    </g>
    <g id="g66">
        <path d="M 29.635921 24.258064 C 29.657475 25.165419 29.657475 26.099318 29.635921 27.059908 C 29.443398 27.084976 29.273447 27.035872 29.126213 26.912441 C 28.693108 26.074841 28.668785 25.239151 29.053398 24.405529 C 29.226553 24.268536 29.420681 24.219429 29.635921 24.258064 Z" stroke="none" fill-rule="evenodd" fill="#0d0811" id="path66"></path>
    </g>
    <g id="g67">
        <path d="M 36.917477 24.847927 C 37.006893 25.383963 37.055534 25.924719 37.063107 26.470047 C 36.953735 26.628277 36.808105 26.652905 36.626213 26.543779 C 36.084904 26.02367 35.453884 25.655006 34.733009 25.437788 C 35.180389 25.176479 35.665775 25.004387 36.18932 24.921659 C 36.432526 24.496075 36.675293 24.471594 36.917477 24.847927 Z" stroke="none" fill-rule="evenodd" fill="#e99fb8" id="path67"></path>
    </g>
    <g id="g68">
        <path d="M 50.169903 21.898617 C 50.349903 23.035725 50.301262 24.166342 50.024273 25.290323 C 50.095047 24.161032 50.143692 23.030415 50.169903 21.898617 Z" stroke="none" fill-rule="evenodd" fill="#402b4e" id="path68"></path>
    </g>
    <g id="g69">
        <path d="M 50.89806 21.603687 C 50.775146 23.41943 50.72665 25.238119 50.752426 27.059908 C 50.655437 26.324203 50.606941 25.562248 50.606796 24.774193 C 50.576797 23.682655 50.673931 22.625919 50.89806 21.603687 Z" stroke="none" fill-rule="evenodd" fill="#291d36" id="path69"></path>
    </g>
    <g id="g70">
        <path d="M 48.859222 24.1106 C 49.024952 24.524092 49.049271 24.966488 48.932037 25.437788 C 48.83432 25.548681 48.713009 25.597935 48.567963 25.585253 C 48.713009 25.597935 48.83432 25.548681 48.932037 25.437788 C 49.049271 24.966488 49.024952 24.524092 48.859222 24.1106 Z" stroke="none" fill-rule="evenodd" fill="#4e5054" id="path70"></path>
    </g>
    <g id="g71">
        <path d="M 36.917477 24.847927 C 37.218788 25.370544 37.267281 25.911152 37.063107 26.470047 C 37.055534 25.924719 37.006893 25.383963 36.917477 24.847927 Z" stroke="none" fill-rule="evenodd" fill="#96687a" id="path71"></path>
    </g>
    <g id="g72">
        <path d="M 37.35437 2.875576 C 37.146843 3.085272 37.001213 3.331053 36.917477 3.612904 C 35.009998 4.679504 33.18961 5.908379 31.45631 7.29954 C 31.332962 7.754854 31.405777 8.172667 31.674757 8.552996 C 32.370872 8.782406 33.001896 9.126503 33.567963 9.585253 C 35.225971 10.341429 36.925049 10.980453 38.665047 11.502304 C 38.869225 11.700275 38.820728 11.823158 38.519417 11.870968 C 37.61097 11.555023 36.68869 11.309258 35.752426 11.13364 C 35.951504 13.223314 36.14563 15.312368 36.334953 17.400921 C 36.36903 18.428757 36.24757 19.436386 35.970875 20.423964 C 34.99733 22.049328 33.856602 23.548607 32.548542 24.921659 C 32.318302 25.025917 32.099854 25.148754 31.893204 25.290323 C 31.775826 25.962765 32.042767 26.42964 32.694176 26.691244 C 33.826748 27.262968 34.894806 27.901936 35.89806 28.608295 C 36.800388 29.110563 37.674175 29.626692 38.519417 30.156681 C 38.361698 30.15093 38.216068 30.101677 38.082523 30.009216 C 37.94228 30.078526 37.94228 30.176884 38.082523 30.304148 C 36.881504 29.660166 35.716457 28.947466 34.587379 28.165899 C 33.881214 27.783964 33.153057 27.439779 32.402912 27.13364 C 31.750048 26.671188 31.434467 26.056702 31.45631 25.290323 C 32.607525 24.334305 33.626942 23.252941 34.514565 22.046082 C 35.101017 21.350491 35.53791 20.563908 35.825241 19.686636 C 35.939854 18.106838 35.915535 16.533825 35.752426 14.967741 C 35.662865 13.535677 35.517231 12.110186 35.315533 10.691244 C 34.706505 10.563892 34.123981 10.367264 33.567963 10.101383 C 32.762039 9.623846 31.961069 9.132299 31.165049 8.626728 C 30.965826 8.149191 30.91733 7.657629 31.019417 7.152073 C 31.380438 6.788469 31.744514 6.444387 32.111652 6.119816 C 33.789322 4.900824 35.536892 3.819414 37.35437 2.875576 Z" stroke="none" fill-rule="evenodd" fill="#16101d" id="path72"></path>
    </g>
    <g id="g73">
        <path d="M 47.402912 27.207373 C 47.701454 27.139393 47.992718 27.041031 48.276699 26.912441 C 48.357086 27.134083 48.357086 27.379761 48.276699 27.649769 C 48.276699 27.748131 48.276699 27.84634 48.276699 27.9447 C 48.071941 28.014452 47.974808 28.161919 47.985435 28.387096 C 47.888302 28.632923 47.791309 28.878597 47.694176 29.124424 C 47.489418 29.194176 47.392281 29.341642 47.402912 29.56682 C 47.198154 29.636572 47.101021 29.784039 47.111652 30.009216 C 46.966019 30.058321 46.868885 30.156681 46.820389 30.304148 C 46.577621 30.451612 46.383495 30.648184 46.237865 30.894009 C 45.083012 31.413973 44.039272 31.266506 43.106796 30.451612 C 42.953304 28.980793 42.880489 27.506138 42.888348 26.027649 C 42.993492 25.966009 43.066307 25.867798 43.106796 25.732719 C 43.319126 26.095486 43.586067 26.415041 43.907768 26.691244 C 45.004517 27.338028 46.169563 27.510118 47.402912 27.207373 Z" stroke="none" fill-rule="evenodd" fill="#f8f8f8" id="path73"></path>
    </g>
    <g id="g74">
        <path d="M 48.422329 26.617512 C 48.431068 26.537437 48.479565 26.488331 48.567963 26.470047 C 48.753788 26.634323 48.753788 26.781788 48.567963 26.912441 C 48.59301 26.766155 48.544373 26.667944 48.422329 26.617512 Z" stroke="none" fill-rule="evenodd" fill="#6b6c70" id="path74"></path>
    </g>
    <g id="g75">
        <path d="M 48.422329 26.617512 C 48.544373 26.667944 48.59301 26.766155 48.567963 26.912441 C 48.582233 27.215187 48.485096 27.461014 48.276699 27.649769 C 48.357086 27.379761 48.357086 27.134083 48.276699 26.912441 C 47.992718 27.041031 47.701454 27.139393 47.402912 27.207373 C 47.699272 26.957418 48.039032 26.760849 48.422329 26.617512 Z" stroke="none" fill-rule="evenodd" fill="#bbbcbe" id="path75"></path>
    </g>
    <g id="g76">
        <path d="M 48.276699 27.9447 C 48.276699 28.04306 48.276699 28.141272 48.276699 28.239632 C 48.179565 28.288736 48.082573 28.337992 47.985435 28.387096 C 47.974808 28.161919 48.071941 28.014452 48.276699 27.9447 Z" stroke="none" fill-rule="evenodd" fill="#888a8c" id="path76"></path>
    </g>
    <g id="g77">
        <path d="M 48.131069 29.271889 C 48.268108 29.043318 48.365097 28.79764 48.422329 28.534561 C 48.541019 28.397568 48.662331 28.250101 48.786407 28.092167 C 48.823833 28.463337 48.7267 28.807375 48.495144 29.124424 C 48.373104 29.345474 48.251797 29.394581 48.131069 29.271889 Z" stroke="none" fill-rule="evenodd" fill="#3f2a4e" id="path77"></path>
    </g>
    <g id="g78">
        <path d="M 47.694176 29.124424 C 47.704807 29.349602 47.60767 29.497068 47.402912 29.56682 C 47.392281 29.341642 47.489418 29.194176 47.694176 29.124424 Z" stroke="none" fill-rule="evenodd" fill="#5b5d61" id="path78"></path>
    </g>
    <g id="g79">
        <path d="M 47.402912 29.56682 C 47.413544 29.792 47.31641 29.939465 47.111652 30.009216 C 47.101021 29.784039 47.198154 29.636572 47.402912 29.56682 Z" stroke="none" fill-rule="evenodd" fill="#585b5f" id="path79"></path>
    </g>
    <g id="g80">
        <path d="M 46.820389 30.304148 C 46.771893 30.648184 46.577621 30.844904 46.237865 30.894009 C 46.383495 30.648184 46.577621 30.451612 46.820389 30.304148 Z" stroke="none" fill-rule="evenodd" fill="#585a5e" id="path80"></path>
    </g>
</svg>
