<svg version="1.1" xmlns="http://www.w3.org/2000/svg" xmlns:xlink="http://www.w3.org/1999/xlink" width="418.87428" height="339.71151"><g transform="translate(-230.67821,-164.32)"><g data-paper-data="{&quot;isPaintingLayer&quot;:true}" fill="none" fill-rule="none" stroke="none" stroke-width="1" stroke-linecap="square" stroke-linejoin="miter" stroke-miterlimit="10" stroke-dasharray="" stroke-dashoffset="0" font-family="none" font-weight="none" font-size="none" text-anchor="none" style="mix-blend-mode: normal"><path d="M598.21393,419.81105h51.33856v84.22046h-51.33856z" fill-opacity="0" fill="#000000" fill-rule="evenodd"/><path d="M633.15143,470.25105c-1.20833,1.4375 -2.65104,2.59375 -4.32812,3.46875c-1.67708,0.875 -3.51562,1.3125 -5.51562,1.3125c-2.625,0 -4.91146,-0.64583 -6.85937,-1.9375c-1.94792,-1.29167 -3.45312,-3.10937 -4.51562,-5.45312c-1.0625,-2.34375 -1.59375,-4.93229 -1.59375,-7.76562c0,-3.04167 0.57813,-5.78125 1.73438,-8.21875c1.15625,-2.4375 2.79688,-4.30208 4.92188,-5.59375c2.125,-1.29167 4.60417,-1.9375 7.4375,-1.9375c4.5,0 8.04688,1.68229 10.64063,5.04688c2.59375,3.36458 3.89063,7.95313 3.89063,13.76563v1.6875c0,8.85417 -1.75,15.31771 -5.25,19.39063c-3.5,4.07292 -8.78125,6.16146 -15.84375,6.26563h-1.125v-4.875h1.21875c4.77083,-0.08333 8.4375,-1.32812 11,-3.73437c2.5625,-2.40625 3.95833,-6.21354 4.1875,-11.42187zM624.24518,470.25105c1.9375,0 3.72396,-0.59375 5.35938,-1.78125c1.63542,-1.1875 2.82813,-2.65625 3.57813,-4.40625v-2.3125c0,-3.79167 -0.82292,-6.875 -2.46875,-9.25c-1.64583,-2.375 -3.72917,-3.5625 -6.25,-3.5625c-2.54167,0 -4.58333,0.97396 -6.125,2.92188c-1.54167,1.94792 -2.3125,4.51563 -2.3125,7.70313c0,3.10417 0.74479,5.66146 2.23438,7.67188c1.48958,2.01042 3.48438,3.01563 5.98438,3.01563z" fill="#000000" fill-rule="nonzero"/><path d="M248.17223,180.08976c-0.71844,1.60453 -1.85597,2.89772 -3.41259,3.87959c-1.55662,0.98186 -3.31681,1.47282 -5.28054,1.47282c-1.67637,0 -3.1851,-0.44304 -4.52618,-1.32911c-1.34108,-0.91002 -2.39481,-2.15533 -3.16114,-3.7359c-0.7424,-1.58057 -1.11357,-3.31681 -1.11357,-5.20869c0,-1.98768 0.38318,-3.80774 1.14951,-5.46016c0.76633,-1.67637 1.84399,-2.9935 3.23299,-3.95143c1.389,-0.95793 2.92166,-1.43688 4.59803,-1.43688c3.13719,0 5.52002,1.02977 7.14851,3.0893c1.65242,2.03559 2.49059,4.98121 2.51455,8.83684v3.52037c0,5.14883 -1.14951,9.07632 -3.44852,11.78245c-2.27506,2.68219 -5.63976,4.05921 -10.0941,4.13105h-1.00582l0.03593,-1.14951h0.89806c4.07116,-0.04789 7.16046,-1.2932 9.2679,-3.7359c2.13137,-2.4427 3.19708,-6.01096 3.19708,-10.70478zM239.47908,184.32857c2.05953,0 3.87959,-0.61066 5.46016,-1.83202c1.60453,-1.22135 2.68219,-2.83783 3.23299,-4.84947v-1.2932c0,-3.52037 -0.73042,-6.21451 -2.19124,-8.08246c-1.43688,-1.86795 -3.52037,-2.80192 -6.25044,-2.80192c-1.48477,0 -2.83783,0.44304 -4.05919,1.32913c-1.22135,0.86213 -2.1673,2.05953 -2.83783,3.59221c-0.67055,1.50873 -1.00582,3.10128 -1.00582,4.77765c0,1.67637 0.32331,3.22101 0.96991,4.63396c0.6466,1.41293 1.54466,2.52652 2.69417,3.34077c1.17346,0.79029 2.50257,1.18544 3.98736,1.18544z" data-paper-data="{&quot;origPos&quot;:null}" fill="#ffffff" fill-rule="nonzero"/></g></g></svg>