<svg version="1.1" xmlns="http://www.w3.org/2000/svg" xmlns:xlink="http://www.w3.org/1999/xlink" width="419.26942" height="339.71148"><g transform="translate(-230.28307,-164.32002)"><g data-paper-data="{&quot;isPaintingLayer&quot;:true}" fill="none" fill-rule="none" stroke="none" stroke-width="1" stroke-linecap="square" stroke-linejoin="miter" stroke-miterlimit="10" stroke-dasharray="" stroke-dashoffset="0" font-family="none" font-weight="none" font-size="none" text-anchor="none" style="mix-blend-mode: normal"><path d="M598.21393,419.81104h51.33856v84.22046h-51.33856z" fill-opacity="0" fill="#000000" fill-rule="evenodd"/><path d="M633.15143,470.25104c-1.20833,1.4375 -2.65104,2.59375 -4.32812,3.46875c-1.67708,0.875 -3.51562,1.3125 -5.51562,1.3125c-2.625,0 -4.91146,-0.64583 -6.85937,-1.9375c-1.94792,-1.29167 -3.45312,-3.10937 -4.51562,-5.45312c-1.0625,-2.34375 -1.59375,-4.93229 -1.59375,-7.76562c0,-3.04167 0.57813,-5.78125 1.73438,-8.21875c1.15625,-2.4375 2.79688,-4.30208 4.92188,-5.59375c2.125,-1.29167 4.60417,-1.9375 7.4375,-1.9375c4.5,0 8.04688,1.68229 10.64063,5.04688c2.59375,3.36458 3.89063,7.95313 3.89063,13.76563v1.6875c0,8.85417 -1.75,15.31771 -5.25,19.39063c-3.5,4.07292 -8.78125,6.16146 -15.84375,6.26563h-1.125v-4.875h1.21875c4.77083,-0.08333 8.4375,-1.32812 11,-3.73437c2.5625,-2.40625 3.95833,-6.21354 4.1875,-11.42187zM624.24518,470.25104c1.9375,0 3.72396,-0.59375 5.35938,-1.78125c1.63542,-1.1875 2.82813,-2.65625 3.57813,-4.40625v-2.3125c0,-3.79167 -0.82292,-6.875 -2.46875,-9.25c-1.64583,-2.375 -3.72917,-3.5625 -6.25,-3.5625c-2.54167,0 -4.58333,0.97396 -6.125,2.92188c-1.54167,1.94792 -2.3125,4.51563 -2.3125,7.70313c0,3.10417 0.74479,5.66146 2.23438,7.67188c1.48958,2.01042 3.48438,3.01563 5.98438,3.01563z" fill="#000000" fill-rule="nonzero"/><path d="M248.85479,172.5102c0,1.7003 -0.52687,3.19708 -1.58057,4.49027c-1.05371,1.26924 -2.41875,2.15533 -4.09512,2.65824c1.98768,0.52687 3.56825,1.48477 4.74172,2.87377c1.1974,1.389 1.7961,2.98155 1.7961,4.77765c0,2.58639 -0.88609,4.63396 -2.65824,6.14269c-1.74822,1.48477 -4.09512,2.22717 -7.04073,2.22717c-2.96957,0 -5.34043,-0.7424 -7.11258,-2.22717c-1.74822,-1.50873 -2.6223,-3.55628 -2.6223,-6.14267c0,-1.7961 0.57475,-3.38865 1.72426,-4.77763c1.14951,-1.389 2.73008,-2.3469 4.74172,-2.87377c-1.67637,-0.50291 -3.02943,-1.389 -4.05919,-2.65824c-1.02977,-1.2932 -1.54464,-2.78995 -1.54464,-4.49025c0,-2.51455 0.80226,-4.50223 2.40679,-5.96307c1.62846,-1.48477 3.75985,-2.22717 6.39413,-2.22717c2.65824,0 4.80158,0.75438 6.43007,2.2631c1.65242,1.48477 2.47864,3.4605 2.47864,5.92716zM248.56742,187.41788c0,-2.08348 -0.80226,-3.80774 -2.40677,-5.17278c-1.60453,-1.36504 -3.66405,-2.04755 -6.1786,-2.04755c-2.51455,0 -4.57407,0.68253 -6.1786,2.04757c-1.58057,1.34108 -2.37086,3.06534 -2.37086,5.17278c0,2.15533 0.77831,3.87959 2.33495,5.17278c1.55662,1.2932 3.6401,1.93979 6.25044,1.93979c2.58639,0 4.65789,-0.6466 6.21453,-1.93979c1.55662,-1.31715 2.33495,-3.04141 2.33495,-5.17278zM247.70529,172.40244c0,-1.98768 -0.7424,-3.6401 -2.22717,-4.95725c-1.48477,-1.31715 -3.32879,-1.9757 -5.532,-1.9757c-2.25113,0 -4.09512,0.63462 -5.532,1.90388c-1.41293,1.26924 -2.11939,2.94561 -2.11939,5.02909c0,1.98768 0.70646,3.60419 2.11942,4.84949c1.43688,1.22135 3.29286,1.83204 5.56794,1.83204c2.27506,0 4.13105,-0.62264 5.56794,-1.86795c1.43688,-1.24531 2.15533,-2.84981 2.15533,-4.81356z" data-paper-data="{&quot;origPos&quot;:null}" fill="#ffffff" fill-rule="nonzero"/></g></g></svg>