<svg version="1.1" xmlns="http://www.w3.org/2000/svg" xmlns:xlink="http://www.w3.org/1999/xlink" width="418.67671" height="339.71149"><g transform="translate(-230.87578,-164.32001)"><g data-paper-data="{&quot;isPaintingLayer&quot;:true}" fill="none" fill-rule="none" stroke="none" stroke-width="1" stroke-linecap="square" stroke-linejoin="miter" stroke-miterlimit="10" stroke-dasharray="" stroke-dashoffset="0" font-family="none" font-weight="none" font-size="none" text-anchor="none" style="mix-blend-mode: normal"><path d="M598.21393,419.81104h51.33856v84.22046h-51.33856z" fill-opacity="0" fill="#000000" fill-rule="evenodd"/><path d="M633.15143,470.25104c-1.20833,1.4375 -2.65104,2.59375 -4.32812,3.46875c-1.67708,0.875 -3.51562,1.3125 -5.51562,1.3125c-2.625,0 -4.91146,-0.64583 -6.85937,-1.9375c-1.94792,-1.29167 -3.45312,-3.10937 -4.51562,-5.45312c-1.0625,-2.34375 -1.59375,-4.93229 -1.59375,-7.76562c0,-3.04167 0.57813,-5.78125 1.73438,-8.21875c1.15625,-2.4375 2.79688,-4.30208 4.92188,-5.59375c2.125,-1.29167 4.60417,-1.9375 7.4375,-1.9375c4.5,0 8.04688,1.68229 10.64063,5.04688c2.59375,3.36458 3.89063,7.95313 3.89063,13.76563v1.6875c0,8.85417 -1.75,15.31771 -5.25,19.39063c-3.5,4.07292 -8.78125,6.16146 -15.84375,6.26563h-1.125v-4.875h1.21875c4.77083,-0.08333 8.4375,-1.32812 11,-3.73437c2.5625,-2.40625 3.95833,-6.21354 4.1875,-11.42187zM624.24518,470.25104c1.9375,0 3.72396,-0.59375 5.35938,-1.78125c1.63542,-1.1875 2.82813,-2.65625 3.57813,-4.40625v-2.3125c0,-3.79167 -0.82292,-6.875 -2.46875,-9.25c-1.64583,-2.375 -3.72917,-3.5625 -6.25,-3.5625c-2.54167,0 -4.58333,0.97396 -6.125,2.92188c-1.54167,1.94792 -2.3125,4.51563 -2.3125,7.70313c0,3.10417 0.74479,5.66146 2.23438,7.67188c1.48958,2.01042 3.48438,3.01563 5.98438,3.01563z" fill="#000000" fill-rule="nonzero"/><path d="M249.12418,182.81985c0,4.09512 -0.80226,7.26824 -2.40677,9.51937c-1.58057,2.22717 -3.80774,3.34077 -6.68151,3.34077c-2.87377,0 -5.12489,-1.12555 -6.75335,-3.37668c-1.60453,-2.27506 -2.40677,-5.47214 -2.40677,-9.59121v-5.532c0,-4.04723 0.79029,-7.1964 2.37086,-9.4475c1.60453,-2.27506 3.84368,-3.41259 6.71744,-3.41259c2.89772,0 5.14883,1.13753 6.75335,3.41261c1.60453,2.25113 2.40679,5.4362 2.40679,9.55528zM247.97467,177.1801c0,-3.68801 -0.69449,-6.56178 -2.08348,-8.6213c-1.389,-2.08348 -3.3647,-3.12521 -5.92713,-3.12521c-2.56244,0 -4.53816,1.04175 -5.92713,3.12523c-1.36504,2.08348 -2.04755,4.99318 -2.04755,8.72908v5.49609c0,3.66405 0.70646,6.53782 2.11942,8.6213c1.41293,2.08348 3.38865,3.12523 5.92716,3.12523c2.5385,0 4.49027,-1.04173 5.85531,-3.12521c1.389,-2.08348 2.08348,-4.99318 2.08348,-8.72908z" data-paper-data="{&quot;origPos&quot;:null}" fill="#ffffff" fill-rule="nonzero"/></g></g></svg>