<svg version="1.1" xmlns="http://www.w3.org/2000/svg" xmlns:xlink="http://www.w3.org/1999/xlink" width="536.00556" height="394.34468"><g transform="translate(18.35374,16.57548)"><g data-paper-data="{&quot;isPaintingLayer&quot;:true}" fill-rule="nonzero" stroke-linejoin="miter" stroke-miterlimit="10" stroke-dasharray="" stroke-dashoffset="0" style="mix-blend-mode: normal"><g data-paper-data="{&quot;origPos&quot;:null}"><g data-paper-data="{&quot;origPos&quot;:null}" stroke-linecap="butt"><g data-paper-data="{&quot;origPos&quot;:null}" fill="none" stroke="#ffffff" stroke-width="1.5"><path d="M34.2641,142.67847c-2.354,0 -4.26229,-1.15893 -4.26229,-2.58855c0,-1.42962 1.90829,-2.58855 4.26229,-2.58855c2.18775,0 3.99052,1.00101 4.23426,2.29" data-paper-data="{&quot;origPos&quot;:null}"/><path d="M34.18798,142.67848c2.56418,0 4.64286,1.26241 4.64286,2.81967c0,1.55727 -2.07868,2.81967 -4.64286,2.81967c-2.08429,0 -3.84779,-0.8341 -4.43488,-1.98266" data-paper-data="{&quot;index&quot;:null,&quot;origPos&quot;:null}"/></g><path d="M37.65227,139.60353c0,-0.41422 0.33578,-0.75 0.75,-0.75c0.41422,0 0.75,0.33578 0.75,0.75c0,0.41422 -0.33578,0.75 -0.75,0.75c-0.41422,0 -0.75,-0.33578 -0.75,-0.75z" data-paper-data="{&quot;origPos&quot;:null}" fill="#ffffff" stroke="none" stroke-width="0.5"/><path d="M29.36656,146.17496c0,-0.41422 0.33578,-0.75 0.75,-0.75c0.41422,0 0.75,0.33578 0.75,0.75c0,0.41422 -0.33578,0.75 -0.75,0.75c-0.41422,0 -0.75,-0.33578 -0.75,-0.75z" data-paper-data="{&quot;origPos&quot;:null}" fill="#ffffff" stroke="none" stroke-width="0.5"/></g><g data-paper-data="{&quot;origPos&quot;:null}" stroke-linecap="butt"><g data-paper-data="{&quot;origPos&quot;:null}" fill="none" stroke="#ffffff" stroke-width="1.5"><path d="M87.37521,142.77371c-2.354,0 -4.26229,-1.15893 -4.26229,-2.58855c0,-1.42962 1.9083,-2.58855 4.26229,-2.58855c2.18775,0 3.99052,1.00101 4.23426,2.29" data-paper-data="{&quot;origPos&quot;:null}"/><path d="M87.29909,142.77372c2.56418,0 4.64286,1.26241 4.64286,2.81967c0,1.55727 -2.07868,2.81967 -4.64286,2.81967c-2.08429,0 -3.84779,-0.8341 -4.43488,-1.98266" data-paper-data="{&quot;index&quot;:null,&quot;origPos&quot;:null}"/></g><path d="M90.87449,139.69877c0,-0.41422 0.33578,-0.75 0.75,-0.75c0.41422,0 0.75,0.33578 0.75,0.75c0,0.41422 -0.33578,0.75 -0.75,0.75c-0.41422,0 -0.75,-0.33578 -0.75,-0.75z" data-paper-data="{&quot;origPos&quot;:null}" fill="#ffffff" stroke="none" stroke-width="0.5"/><path d="M82.14433,146.2702c0,-0.41422 0.33579,-0.75 0.75,-0.75c0.41422,0 0.75,0.33578 0.75,0.75c0,0.41422 -0.33578,0.75 -0.75,0.75c-0.41422,0 -0.75,-0.33578 -0.75,-0.75z" data-paper-data="{&quot;origPos&quot;:null}" fill="#ffffff" stroke="none" stroke-width="0.5"/></g><g data-paper-data="{&quot;origPos&quot;:null}" stroke-linecap="butt"><path d="M49.7997,146.57892c-0.98639,1.02311 -2.37115,1.65953 -3.90456,1.65953c-2.99508,0 -5.42308,-2.428 -5.42308,-5.42308c0,-2.99508 2.428,-5.42307 5.42308,-5.42307c1.47272,0 2.80834,0.58705 3.7856,1.53991" data-paper-data="{&quot;origPos&quot;:null}" fill="none" stroke="#ffffff" stroke-width="1.5"/><path d="M48.92614,146.58751c0,-0.46221 0.37468,-0.83689 0.83689,-0.83689c0.46221,0 0.83689,0.37469 0.83689,0.83689c0,0.46221 -0.37469,0.83689 -0.83689,0.83689c-0.46221,0 -0.83689,-0.37469 -0.83689,-0.83689z" data-paper-data="{&quot;origPos&quot;:null}" fill="#ffffff" stroke="none" stroke-width="0.5"/><path d="M48.81153,138.97731c0,-0.46221 0.37469,-0.83689 0.83689,-0.83689c0.46221,0 0.83689,0.37469 0.83689,0.83689c0,0.46221 -0.37469,0.83689 -0.83689,0.83689c-0.46221,0 -0.83689,-0.37469 -0.83689,-0.83689z" data-paper-data="{&quot;origPos&quot;:null}" fill="#ffffff" stroke="none" stroke-width="0.5"/></g><path d="M51.32179,142.59126c0,-3.03757 2.46243,-5.5 5.5,-5.5c3.03757,0 5.5,2.46243 5.5,5.5c0,3.03757 -2.46243,5.5 -5.5,5.5c-3.03757,0 -5.5,-2.46243 -5.5,-5.5z" data-paper-data="{&quot;origPos&quot;:null}" fill="none" stroke="#ffffff" stroke-width="1.5" stroke-linecap="butt"/><path d="M64.40115,137.31348v11.11111" data-paper-data="{&quot;origPos&quot;:null}" fill="none" stroke="#ffffff" stroke-width="1.5" stroke-linecap="round"/><path d="M65.14717,140.75792c0,0 0.05552,-1.27925 1.91333,-2.66246c0.88571,-0.65943 2.19779,-0.67087 2.19779,-0.67087" data-paper-data="{&quot;origPos&quot;:null}" fill="none" stroke="#ffffff" stroke-width="1.5" stroke-linecap="round"/><g data-paper-data="{&quot;origPos&quot;:null}" stroke-linecap="butt"><path d="M79.631,146.61067c-0.98639,1.02311 -2.37116,1.65954 -3.90456,1.65954c-2.99508,0 -5.42308,-2.428 -5.42308,-5.42308c0,-2.99508 2.428,-5.42308 5.42308,-5.42308c2.99508,0 5.42308,2.428 5.42308,5.42308c0,0.08717 -0.00206,0.17386 -0.00612,0.26002h-8.13264" data-paper-data="{&quot;origPos&quot;:null}" fill="none" stroke="#ffffff" stroke-width="1.5"/><path d="M78.75744,146.61925c0,-0.46221 0.37469,-0.83689 0.8369,-0.83689c0.4622,0 0.83689,0.37469 0.83689,0.83689c0,0.46221 -0.37469,0.83689 -0.83689,0.83689c-0.46221,0 -0.8369,-0.37469 -0.8369,-0.83689z" data-paper-data="{&quot;origPos&quot;:null}" fill="#ffffff" stroke="none" stroke-width="0.5"/><path d="M72.34125,143.1043c0,-0.46221 0.37469,-0.83689 0.83689,-0.83689c0.46221,0 0.83689,0.37469 0.83689,0.83689c0,0.46221 -0.37469,0.8369 -0.83689,0.8369c-0.46221,0 -0.83689,-0.37469 -0.83689,-0.8369z" data-paper-data="{&quot;origPos&quot;:null}" fill="#ffffff" stroke="none" stroke-width="0.5"/></g></g><path d="M25.30276,375.26921c0,-1.38071 1.11929,-2.5 2.5,-2.5c1.38071,0 2.5,1.11929 2.5,2.5c0,1.38071 -1.11929,2.5 -2.5,2.5c-1.38071,0 -2.5,-1.11929 -2.5,-2.5z" fill="#ffffff" stroke="none" stroke-width="0.5" stroke-linecap="butt"/><path d="M27.08466,-14.07548c0,-1.38071 1.11929,-2.5 2.5,-2.5c1.38071,0 2.5,1.11929 2.5,2.5c0,1.38071 -1.11929,2.5 -2.5,2.5c-1.38071,0 -2.5,-1.11929 -2.5,-2.5z" fill="#ffffff" stroke="none" stroke-width="0.5" stroke-linecap="butt"/><path d="M-18.35374,195.29752c0,-1.38071 1.11929,-2.5 2.5,-2.5c1.38071,0 2.5,1.11929 2.5,2.5c0,1.38071 -1.11929,2.5 -2.5,2.5c-1.38071,0 -2.5,-1.11929 -2.5,-2.5z" fill="#ffffff" stroke="none" stroke-width="0.5" stroke-linecap="butt"/><path d="M512.65183,181.93329c0,-1.38071 1.11929,-2.5 2.5,-2.5c1.38071,0 2.5,1.11929 2.5,2.5c0,1.38071 -1.11929,2.5 -2.5,2.5c-1.38071,0 -2.5,-1.11929 -2.5,-2.5z" fill="#ffffff" stroke="none" stroke-width="0.5" stroke-linecap="butt"/></g></g></svg>